<svg width="109" height="28" viewBox="0 0 109 28" fill="none" xmlns="http://www.w3.org/2000/svg">
<path d="M42.288 26H38V11.76C38 11.0773 38.0107 10.352 38.032 9.584C38.0533 8.816 38.0853 8.10133 38.128 7.44C37.872 7.65333 37.616 7.92 37.36 8.24C37.104 8.53867 36.8267 8.816 36.528 9.072L34.16 11.12L31.984 8.624L38.64 3.152H42.288V26ZM63.5343 26H48.6863V23.024L54.0623 17.136C55.6836 15.3867 56.8463 13.9787 57.5503 12.912C58.2543 11.8453 58.6063 10.672 58.6063 9.392C58.6063 8.368 58.3396 7.58933 57.8063 7.056C57.2729 6.52267 56.6009 6.256 55.7903 6.256C54.9369 6.256 54.1263 6.45867 53.3583 6.864C52.5903 7.248 51.8009 7.80267 50.9903 8.528L48.6223 5.872C49.5183 5.06133 50.5423 4.35733 51.6943 3.76C52.8463 3.14133 54.3183 2.832 56.1103 2.832C58.2009 2.832 59.8543 3.408 61.0703 4.56C62.2863 5.712 62.8943 7.184 62.8943 8.976C62.8943 10.832 62.3716 12.4747 61.3263 13.904C60.2809 15.3333 58.8836 17.008 57.1343 18.928L54.0623 22.32V22.512H63.5343V26ZM65.7405 19.12V15.728H73.5485V19.12H65.7405ZM83.4928 11.632C85.4981 11.632 87.1408 12.2293 88.4208 13.424C89.7008 14.5973 90.3408 16.2827 90.3408 18.48C90.3408 20.9333 89.6261 22.8533 88.1968 24.24C86.7674 25.6267 84.6661 26.32 81.8928 26.32C79.5461 26.32 77.6261 25.904 76.1328 25.072V21.488C76.8581 21.936 77.7434 22.2987 78.7888 22.576C79.8341 22.832 80.8261 22.96 81.7648 22.96C83.0874 22.96 84.1328 22.6293 84.9008 21.968C85.6688 21.3067 86.0528 20.272 86.0528 18.864C86.0528 17.6053 85.6901 16.6453 84.9648 15.984C84.2394 15.3013 83.1088 14.96 81.5728 14.96C81.0181 14.96 80.4314 15.0133 79.8128 15.12C79.1941 15.2267 78.6928 15.3333 78.3088 15.44L76.5168 14.48L77.3488 3.152H88.8688V6.672H81.0608L80.6128 11.952C80.9541 11.888 81.3488 11.824 81.7968 11.76C82.2448 11.6747 82.8101 11.632 83.4928 11.632ZM108.003 14.576C108.003 18.2667 107.438 21.1467 106.307 23.216C105.176 25.2853 103.267 26.32 100.579 26.32C98.019 26.32 96.1417 25.2853 94.947 23.216C93.7523 21.1467 93.155 18.2667 93.155 14.576C93.155 10.8853 93.7097 8.00533 94.819 5.936C95.9283 3.84533 97.8483 2.8 100.579 2.8C103.096 2.8 104.963 3.83467 106.179 5.904C107.395 7.97333 108.003 10.864 108.003 14.576ZM97.379 14.576C97.379 17.392 97.603 19.504 98.051 20.912C98.499 22.2987 99.3417 22.992 100.579 22.992C101.731 22.992 102.552 22.2987 103.043 20.912C103.534 19.504 103.779 17.392 103.779 14.576C103.779 11.7813 103.534 9.68 103.043 8.272C102.552 6.84267 101.731 6.128 100.579 6.128C99.3417 6.128 98.499 6.84267 98.051 8.272C97.603 9.68 97.379 11.7813 97.379 14.576Z" fill="#D2876F"/>
<path fill-rule="evenodd" clip-rule="evenodd" d="M0 26.1969V26.7326C0 27.0611 0.366288 27.429 0.693324 27.429H23.3067C23.6337 27.429 24 27.0611 24 26.7326C24 23.7273 22.9335 21.2324 20.9746 19.1642L19.617 18.0101C16.2205 15.7031 14.0501 16.0718 10.0267 16.0718C8.11685 16.0718 6.60301 16.7159 5.19143 17.4829C4.50625 17.8551 3.95554 18.3285 3.40065 18.8448C3.26203 18.9738 3.18345 18.9954 3.0516 19.1371C2.21887 20.0318 1.54728 21.0069 0.995139 22.1072C0.51394 23.0661 0 24.7823 0 26.1969Z" fill="#D2876F"/>
<path fill-rule="evenodd" clip-rule="evenodd" d="M4.80078 6.85719C4.80078 8.43117 4.99917 9.60467 5.78245 10.9069C6.21825 11.6314 6.32161 11.6428 6.69822 12.1299C7.06189 12.6002 7.83134 13.1681 8.34245 13.4783C10.8049 14.9728 13.7813 14.7426 16.172 13.1363C16.3454 13.0198 16.5055 12.9062 16.6541 12.7635C16.8232 12.6012 16.9404 12.5313 17.1084 12.3626C17.2763 12.1939 17.3459 12.0762 17.5075 11.9064C18.4138 10.9536 19.2008 8.9369 19.2008 7.6072C19.2008 5.62446 18.8971 4.57176 17.8786 3.04236C17.7626 2.86813 17.6495 2.70728 17.5075 2.558C16.8473 1.86401 16.5663 1.52476 15.6585 0.986649C14.6642 0.397187 13.507 0.0599 12.3376 0H11.5863C10.6551 0.0478916 9.73668 0.275564 8.90724 0.696221C8.72328 0.789513 8.52948 0.872559 8.34245 0.986062C7.91097 1.24792 7.23599 1.74856 6.89258 2.10118C6.28002 2.73017 5.88696 3.34286 5.4939 4.12482C5.17229 4.76464 4.80078 5.90043 4.80078 6.85719Z" fill="#D2876F"/>
</svg>

