<svg width="138" height="139" viewBox="0 0 138 139" fill="none" xmlns="http://www.w3.org/2000/svg">
<path fill-rule="evenodd" clip-rule="evenodd" d="M39.2453 68.6684C38.6968 74.6451 40.8128 83.9808 35.8011 81.7759C33.8172 80.9031 34.5055 76.9777 34.5055 74.707C34.5055 71.9206 34.5058 69.1344 34.5053 66.348C34.5049 63.8704 33.9008 60.0494 37.1405 60.4582C39.2816 60.7285 46.0577 71.2944 48.7403 73.898C48.9439 67.5125 47.3732 58.8476 52.0953 60.5967C54.1516 61.3582 53.4522 65.4251 53.4522 67.6962C53.4522 70.4826 53.4517 73.2688 53.4522 76.0552C53.4527 78.5658 54.0806 82.5092 50.7414 81.9381C49.27 81.6865 47.3757 78.8131 46.5506 77.75C45.3213 76.1659 44.0709 74.6199 42.8473 73.0973L39.2453 68.6684ZM95.9556 75.0466C97.4242 72.465 97.8169 62.2477 99.6612 60.8823C100.721 60.0978 102.303 60.4216 102.967 61.2262C104.117 62.6202 101.93 69.1329 101.305 71.7079C100.511 74.9778 99.7845 80.7332 97.7972 81.6718C91.8751 84.4689 91.7212 71.8134 89.4873 68.5035C88.299 71.8068 86.3413 80.3012 84.6429 81.4632C83.0884 82.5269 80.4112 82.5471 79.493 78.7783L76.0595 64.6837C75.7338 63.4514 75.3344 61.988 76.1253 61.071C76.7685 60.3252 78.4877 60.2384 79.3769 60.8177C80.5896 61.6077 82.4487 72.4344 82.8817 74.8341C83.806 73.7789 84.9181 69.2946 85.6509 66.831C86.7589 63.1058 87.0185 60.2858 89.7389 60.4318C92.2518 60.5666 92.8693 64.9929 93.526 67.1644C94.3115 69.7621 95.268 72.5049 95.9556 75.0466ZM59.1973 63.9211C59.1973 61.4029 59.7051 60.5738 62.2618 60.5738C65.9416 60.5738 73.3962 59.6003 71.2287 63.6776C70.4033 65.2307 66.8452 64.6966 63.8788 64.6966V69.0594C66.2673 69.0594 70.2481 68.5917 70.9938 70.0395C73.09 74.1096 65.2715 73.182 63.9466 73.1804L63.8452 77.7064C67.5789 77.7064 71.6402 76.9849 71.8163 79.5622C71.9399 81.3684 70.6746 81.8294 69.0674 81.8294C61.6514 81.8294 59.1973 82.7913 59.1973 78.7516V63.9211ZM55.5234 18.6206C54.6726 18.1703 53.8663 17.9326 52.9168 17.4534C48.6067 15.2785 44.0149 13.6939 39.7097 11.5213C39.2716 11.3002 34.8498 9.10531 34.5001 9.45265C33.9646 9.98457 32.9072 23.8658 32.6588 26.2163L32.0742 32.103C28.6408 32.1795 24.4294 32.8021 20.8307 33.2584C19.277 33.4555 10.1715 34.1755 9.43351 34.5299C9.22273 34.9775 9.31015 34.3594 9.41349 34.9266C9.49769 35.3876 9.48214 35.2304 9.63822 35.6334C9.87689 36.2501 9.99275 36.4665 10.2391 36.9594C12.8096 42.104 14.9126 47.5763 17.3406 52.7751C17.7901 53.7375 18.153 54.7213 18.5976 55.5621C15.4271 57.6861 12.5423 59.9791 9.32535 62.1949C8.07103 63.0588 1.3977 68.4014 0 68.7747V69.3141C0.889967 69.5518 1.54288 70.2214 2.31199 70.7761C7.71741 74.6735 13.0958 78.8409 18.5976 82.5267L16.2604 87.7386C15.3406 89.5631 14.756 91.3044 13.8347 93.1314C12.9478 94.8905 12.3598 96.554 11.4997 98.3456C11.2828 98.7972 9.08203 103.205 9.43351 103.559C9.45926 103.585 28.8819 105.915 32.0742 105.986L32.6367 111.625C32.8324 113.965 34.0138 128.153 34.5001 128.636C34.8526 128.987 39.0152 126.921 39.5324 126.66C41.3588 125.738 43.0994 125.153 44.9232 124.233C48.4106 122.473 52.0846 121.289 55.5234 119.468C57.6466 122.64 59.9385 125.526 62.1534 128.744L67.1552 135.605C67.7579 136.425 68.4758 137.12 68.7304 138.074H69.2696C69.6615 136.605 71.5939 134.695 72.4506 133.436C75.6601 128.72 79.3317 124.166 82.4766 119.468L102.947 128.625C103.604 128.778 103.042 128.852 103.5 128.636C104.039 128.1 105.386 111.88 105.633 108.929C105.731 107.756 105.906 106.897 105.926 105.986C109.314 105.91 128.255 103.873 128.566 103.559C128.928 103.195 126.843 99.0704 126.589 98.5263C124.367 93.768 121.737 86.9407 119.402 82.5267C124.834 78.8881 130.233 74.7884 135.532 70.89C136.352 70.2871 137.046 69.5688 138 69.3141V68.7747C137.089 68.5312 137.542 68.6184 136.799 68.0888C136.32 67.747 136.164 67.6559 135.688 67.3127C134.81 66.6797 134.241 66.1891 133.365 65.5923C128.651 62.3815 124.099 58.7083 119.402 55.5621C119.838 54.7379 120.12 53.894 120.571 52.9558C121.6 50.8122 128.211 36.5625 128.555 35.0834C128.708 34.4261 128.782 34.9884 128.566 34.5299C127.996 33.9552 114.206 32.9413 111.81 32.6878C110.684 32.5687 109.755 32.4702 108.867 32.3959C107.695 32.2979 106.837 32.1232 105.926 32.103C105.904 31.1032 105.73 30.6508 105.647 29.416C105.574 28.3343 105.47 27.7321 105.363 26.4638C105.168 24.1242 103.986 9.93574 103.5 9.45265C103.287 9.24088 102.77 9.51275 102.397 9.65744L82.4766 18.6206C79.3691 13.9781 75.7305 9.47447 72.5574 4.81528C71.9554 3.93173 71.4616 3.32272 70.8448 2.48371C70.5461 2.07717 70.3434 1.75469 70.0702 1.3714C69.568 0.666889 69.5051 0.89779 69.2696 0.0151367H68.7304C68.3491 1.44384 63.0311 8.06902 62.1534 9.34444C59.9385 12.5628 57.6466 15.4488 55.5234 18.6206Z" fill="#34B5D1" fill-opacity="0.25"/>
<path fill-rule="evenodd" clip-rule="evenodd" d="M89.4847 68.5039C91.7185 71.8138 91.8724 84.4693 97.7945 81.6722C99.7818 80.7336 100.509 74.9782 101.302 71.7083C101.927 69.1333 104.115 62.6207 102.964 61.2267C102.3 60.422 100.718 60.0983 99.6585 60.8827C97.8142 62.2481 97.4216 72.4654 95.9529 75.047C95.2653 72.5053 94.3089 69.7625 93.5233 67.1648C92.8666 64.9934 92.2491 60.567 89.7362 60.4322C87.0159 60.2862 86.7563 63.1063 85.6482 66.8315C84.9154 69.295 83.8034 73.7793 82.8791 74.8345C82.4461 72.4348 80.587 61.6082 79.3743 60.8181C78.485 60.2388 76.7659 60.3256 76.1226 61.0714C75.3317 61.9884 75.7311 63.4518 76.0568 64.6841L79.4903 78.7787C80.4085 82.5475 83.0858 82.5273 84.6403 81.4637C86.3387 80.3016 88.2963 71.8072 89.4847 68.5039Z" fill="#FDFEFE" fill-opacity="0.25"/>
<path fill-rule="evenodd" clip-rule="evenodd" d="M39.2459 68.6694L42.848 73.0982C44.0716 74.6208 45.322 76.1669 46.5512 77.751C47.3763 78.8141 49.2707 81.6874 50.742 81.9391C54.0813 82.5102 53.4534 78.5667 53.4529 76.0561C53.4523 73.2697 53.4529 70.4835 53.4529 67.6971C53.4529 65.426 54.1523 61.3592 52.0959 60.5976C47.3738 58.8486 48.9446 67.5134 48.7409 73.899C46.0584 71.2954 39.2822 60.7294 37.1412 60.4592C33.9015 60.0503 34.5056 63.8714 34.5059 66.3489C34.5065 69.1353 34.5061 71.9215 34.5061 74.7079C34.5061 76.9787 33.8178 80.904 35.8017 81.7768C40.8135 83.9818 38.6974 74.646 39.2459 68.6694Z" fill="#FDFEFE" fill-opacity="0.25"/>
<path fill-rule="evenodd" clip-rule="evenodd" d="M59.1973 63.9208V78.7513C59.1973 82.791 61.6514 81.8291 69.0674 81.8291C70.6746 81.8291 71.9398 81.3681 71.8163 79.5619C71.6402 76.9846 67.5788 77.7061 63.8452 77.7061L63.9465 73.1801C65.2715 73.1817 73.0899 74.1093 70.9937 70.0392C70.248 68.5914 66.2673 69.0591 63.8788 69.0591V64.6963C66.8451 64.6963 70.4032 65.2304 71.2286 63.6774C73.3962 59.6 65.9416 60.5735 62.2617 60.5735C59.705 60.5735 59.1973 61.4027 59.1973 63.9208Z" fill="#FDFEFE" fill-opacity="0.25"/>
</svg>
