<svg width="75" height="115" viewBox="0 0 75 115" fill="none" xmlns="http://www.w3.org/2000/svg">
<path fill-rule="evenodd" clip-rule="evenodd" d="M35.2965 55.6392C41.8312 53.685 44.3106 61.7634 38.7555 63.351C32.1835 65.2292 29.7363 57.3018 35.2965 55.6392ZM24.093 34.4524C24.3218 28.6536 27.3976 25.4438 32.5712 24.0725C39.9533 22.1158 50.6053 24.2007 50.9027 33.4637C51.0007 36.5168 50.0433 38.2708 48.4566 40.2215C44.633 44.9223 41.11 44.4987 40.7131 51.2246L33.0855 51.1769C33.1881 47.7463 33.7275 44.9431 35.6618 42.8006C37.3568 40.9231 39.9698 39.3603 41.4033 37.2149C43.173 34.5663 42.3845 30.6547 39.1468 29.9552C37.3733 29.5721 35.4457 29.9412 34.3666 30.8501C32.1223 32.7407 33.4326 34.1567 32.2897 34.4535L24.093 34.4524ZM28.0228 85.7563L27.993 85.7003L30.9397 85.6531L30.9359 84.4536H49.0557L48.9706 81.1066L50.4218 81.0696V78.3133L49.0425 78.2878C48.6068 74.0069 51.0656 69.7406 53.069 67.0829C57.4775 61.2346 62.0099 59.901 67.546 50.0694C74.1578 38.3273 73.3586 25.5582 65.3924 15.4376C61.1326 10.0258 53.0121 4.59174 45.5597 3.47803C42.3675 3.62648 39.8344 3.26387 36.3569 3.72095C18.9394 6.01008 5.0372 19.8173 5.6629 37.0602C5.93567 44.5745 8.91821 50.7013 13.6066 56.2035C17.8512 61.1851 23.7971 65.4158 26.6341 70.4834C27.8469 72.6498 28.5053 74.772 28.6364 77.4836L28.6915 84.013C28.732 86.2106 28.6776 85.7563 28.0228 85.7563Z" fill="#FEC800" fill-opacity="0.25"/>
<path fill-rule="evenodd" clip-rule="evenodd" d="M32.7235 110.998C33.7318 110.203 36.2521 110.086 37.5061 110.086L42.283 111.003C37.7625 112.99 37.0594 112.8 32.7235 110.998ZM38.7324 115H35.9507C34.1982 114.784 32.4882 114.153 30.9369 113.079L21.3046 106.067C20.0528 104.704 21.021 100.611 21.6094 99.5022C19.2198 98.3589 18.2229 96.1771 19.0793 93.8511C19.4914 92.7317 19.852 92.9947 20.1191 92.0902C19.2431 90.907 18.1878 89.6283 19.0843 87.339C19.5913 86.0443 21.364 84.5841 23.0997 84.4534C23.0997 76.7904 23.447 74.367 20.1365 69.3889L15.7114 64.406C6.82912 56.467 0 46.4139 0 34.3633L1.49028 34.3781L2.97542 34.4005C3.80086 42.622 5.21614 47.7746 10.1674 54.3731C12.5054 57.4889 14.1546 59.0658 16.7649 61.6591C19.2196 64.0978 21.0278 65.2216 23.4105 69.1258C26.4992 74.1866 26.0354 78.2221 26.0354 84.4544L27.9933 84.4881L28.023 85.7571L27.9932 85.7012L27.9028 86.9931L24.9142 87.0446C20.1935 87.2497 21.9866 90.0505 22.3363 90.31C23.1732 90.9306 22.3441 90.524 23.2413 90.6239C23.8372 91.1635 39.1238 90.8634 41.0728 90.8634L41.0221 93.527C39.7253 93.5271 24.1483 93.2568 23.3511 93.7054C21.3099 93.9377 20.9851 97.021 23.4895 97.1444C24.0324 97.5854 46.4902 97.2366 49.9299 97.3324C51.8512 97.3858 53.4179 97.1245 53.2331 95.241C52.9945 92.811 48.0328 93.5272 44.0852 93.5272L44.014 90.9636C46.0182 90.6485 50.9384 91.2963 52.2559 90.6072C53.2943 90.0642 53.5651 88.5751 52.7729 87.7207C52.014 86.9021 50.3853 87.0673 48.9319 87.0727C42.9858 87.0941 37.0347 87.0736 31.088 87.0736L30.9399 85.6539L30.9361 84.4544H49.0559L48.9709 81.1074L50.422 81.0705L51.9124 81.0843V84.4534C53.7143 84.589 55.1809 85.9081 55.8226 87.2065C56.8847 89.3558 55.789 90.8801 54.893 92.0902C54.8983 92.1082 58.6878 96.9734 53.4027 99.5022C54.009 100.645 55 104.93 53.5539 106.153C53.2994 106.368 52.6302 106.811 52.3011 107.041L45.0345 112.375C43.1141 113.841 40.9377 114.734 38.7324 115ZM27.0738 99.9503C31.7581 100.044 36.5368 99.9658 41.2318 99.9658C50.393 99.9658 51.0977 99.0777 51.0978 103.766L34.0702 103.831L34.1652 106.412L48.2508 106.432C48.2108 106.48 48.1491 106.537 48.1186 106.566C48.0884 106.595 48.0231 106.663 47.9857 106.697L47.7159 106.938C43.1485 110.824 45.8161 107.468 37.506 107.466C29.9947 107.465 31.52 110.097 28.8042 108.053C27.9602 107.417 27.5216 107.333 26.7698 106.425L31.0616 106.421L31.107 103.774L26.5337 103.768L23.9099 103.714C23.9099 100.936 23.8351 100.043 27.0738 99.9503Z" fill="black" fill-opacity="0.25"/>
<path fill-rule="evenodd" clip-rule="evenodd" d="M24.0938 34.453L32.2905 34.4541C33.4334 34.1574 32.123 32.7413 34.3673 30.8508C35.4464 29.9418 37.374 29.5728 39.1476 29.9559C42.3853 30.6553 43.1737 34.5669 41.404 37.2155C39.9705 39.3609 37.3576 40.9238 35.6626 42.8012C33.7282 44.9438 33.1889 47.747 33.0863 51.1776L40.7138 51.2252C41.1108 44.4993 44.6338 44.923 48.4574 40.2221C50.044 38.2714 51.0015 36.5175 50.9035 33.4643C50.606 24.2014 39.9541 22.1165 32.572 24.0731C27.3983 25.4444 24.3225 28.6543 24.0938 34.453Z" fill="black" fill-opacity="0.25"/>
<path fill-rule="evenodd" clip-rule="evenodd" d="M38.9863 1.12305L39.1044 2.53392L45.5589 3.47855C53.0113 4.59226 61.1318 10.0263 65.3917 15.4381C73.3578 25.5587 74.157 38.3278 67.5452 50.0699C62.0091 59.9015 57.4767 61.2351 53.0683 67.0834C51.0648 69.7411 48.606 74.0075 49.0418 78.2883L50.421 78.3139L51.9108 78.402C51.9116 71.4149 56.6164 66.8188 61.4156 62.5009C61.9537 62.0168 61.9769 61.9643 62.4483 61.4131L65.6114 57.9844C74.9079 46.5392 77.9659 33.8801 71.7502 20.019C71.3389 19.1016 70.8286 18.2125 70.2443 17.3379C68.1732 14.2378 67.1555 12.7739 64.2685 10.1636C60.6165 6.86153 58.6192 5.51542 53.733 3.29411C49.9225 1.56171 44.5836 0 38.9953 0L38.9863 1.12305Z" fill="black" fill-opacity="0.25"/>
<path fill-rule="evenodd" clip-rule="evenodd" d="M2.23543 26.5252C2.23543 27.2522 1.98472 28.7347 1.73861 29.2029L3.32246 29.2489L3.08133 31.5784L1.49023 31.6698V34.3778L2.97537 34.4002C3.80081 42.6217 5.21609 47.7743 10.1674 54.3728C12.5053 57.4886 14.1545 59.0655 16.7648 61.6588C19.2196 64.0975 21.0278 65.2213 23.4104 69.1255C26.4992 74.1863 26.0354 78.2218 26.0354 84.4541L27.9933 84.4878L28.0229 85.7568C28.6777 85.7568 28.7322 86.2111 28.6917 84.0135L28.6365 77.4841C28.5055 74.7726 27.8471 72.6503 26.6343 70.4839C23.7972 65.4163 17.8514 61.1857 13.6067 56.204C8.91839 50.7018 5.93585 44.5751 5.66308 37.0607C5.03738 19.8178 18.9396 6.01061 36.3571 3.72148C39.8346 3.2644 42.3677 3.62701 45.5598 3.47855L39.1054 2.53392L38.9873 1.12305H36.032L35.9174 2.60649C25.7879 3.55842 21.1043 5.71149 14.98 10.1747C10.5717 13.3874 5.89822 19.2424 3.96639 26.4787L2.23543 26.5252Z" fill="#FEF799" fill-opacity="0.25"/>
<path fill-rule="evenodd" clip-rule="evenodd" d="M24.9131 87.0446C24.3955 88.5268 23.9743 89.1208 24.8653 90.6661L23.2402 90.6239C23.8361 91.1635 39.1227 90.8633 41.0717 90.8633L41.021 93.5269C39.7242 93.527 24.1472 93.2567 23.35 93.7054L24.873 93.7127C24.2439 94.9405 24.135 95.7903 24.8342 97.0549L23.4884 97.1444C24.0313 97.5853 46.4891 97.2365 49.9288 97.3323C51.8501 97.3858 53.4168 97.1244 53.232 95.2409C52.9934 92.8109 48.0317 93.5271 44.0841 93.5271L44.0129 90.9635C46.0171 90.6484 50.9373 91.2962 52.2548 90.6072C53.2932 90.0641 53.564 88.575 52.7718 87.7206C52.0129 86.9021 50.3842 87.0672 48.9308 87.0726C42.9847 87.0941 37.0336 87.0735 31.0869 87.0735L30.9388 85.6538L27.9921 85.7011L27.9017 86.993L24.9131 87.0446Z" fill="#086E7D" fill-opacity="0.25"/>
<path fill-rule="evenodd" clip-rule="evenodd" d="M26.5332 103.768L31.1065 103.774L31.0611 106.421L26.7693 106.425C27.521 107.333 27.9597 107.417 28.8037 108.052C31.5195 110.097 29.9942 107.465 37.5055 107.466C45.8155 107.468 43.148 110.824 47.7154 106.938L47.9852 106.697C48.0226 106.662 48.0879 106.594 48.1181 106.566C48.1485 106.537 48.2103 106.479 48.2503 106.431L34.1647 106.412L34.0697 103.831L51.0973 103.766C51.0972 99.0774 50.3925 99.9655 41.2313 99.9655C36.5363 99.9655 31.7575 100.044 27.0733 99.95C26.6219 101.676 26.5332 101.684 26.5332 103.768Z" fill="#086E7D" fill-opacity="0.25"/>
<path fill-rule="evenodd" clip-rule="evenodd" d="M2.23607 26.5252L3.96703 26.4787C5.89885 19.2424 10.5724 13.3874 14.9806 10.1747C21.1049 5.71149 25.7886 3.55842 35.9181 2.6065L36.0327 1.12305L36.0132 0C23.384 0 11.3338 7.32845 5.56694 16.0394C4.44554 17.7334 3.82454 18.9422 2.89538 20.811C2.33829 21.9315 1.02727 25.1584 0.994141 26.5039L2.23607 26.5252Z" fill="black" fill-opacity="0.25"/>
<path fill-rule="evenodd" clip-rule="evenodd" d="M35.2978 55.6399C29.7377 57.3025 32.1848 65.2299 38.7569 63.3517C44.312 61.7641 41.8325 53.6857 35.2978 55.6399Z" fill="black" fill-opacity="0.25"/>
<path fill-rule="evenodd" clip-rule="evenodd" d="M32.7227 110.999C37.0585 112.8 37.7616 112.991 42.2821 111.003L37.5052 110.086C36.2512 110.086 33.7309 110.203 32.7227 110.999Z" fill="#FEC800" fill-opacity="0.25"/>
<path fill-rule="evenodd" clip-rule="evenodd" d="M26.5321 103.768C26.5321 101.684 26.6209 101.676 27.0722 99.9502C23.8335 100.043 23.9083 100.936 23.9083 103.714L26.5321 103.768Z" fill="#279EB0" fill-opacity="0.25"/>
<path fill-rule="evenodd" clip-rule="evenodd" d="M23.2404 90.6237L24.8654 90.666C23.9744 89.1207 24.3956 88.5267 24.9132 87.0444C20.1925 87.2495 21.9856 90.0503 22.3353 90.3098C23.1722 90.9304 22.3431 90.5237 23.2404 90.6237Z" fill="#279EB0" fill-opacity="0.25"/>
<path fill-rule="evenodd" clip-rule="evenodd" d="M23.4894 97.1436L24.8352 97.0541C24.1359 95.7896 24.2449 94.9398 24.874 93.712L23.3509 93.7046C21.3097 93.9368 20.985 97.0202 23.4894 97.1436Z" fill="#279EB0" fill-opacity="0.25"/>
<path fill-rule="evenodd" clip-rule="evenodd" d="M1.49028 31.6699L3.08138 31.5785L3.32251 29.2489L1.73866 29.2029L0.248356 29.1986C0.248356 30.2433 0.389726 30.9354 0 31.67L1.49028 31.6699Z" fill="black" fill-opacity="0.25"/>
</svg>
