<svg xmlns="http://www.w3.org/2000/svg" width="16" height="16" viewBox="0 0 16 16" fill="none">
<path fill-rule="evenodd" clip-rule="evenodd" d="M1.25 8.0625C1.25 6.92877 1.45633 6.1656 1.85691 5.20066C2.1269 4.55031 2.55314 3.97007 3.02383 3.46132C3.10569 3.37285 3.13469 3.31735 3.22601 3.22601C4.05849 2.39354 5.29172 1.67089 6.43489 1.43489C8.07213 1.09689 9.24354 1.21105 10.7993 1.85691C11.679 2.22208 12.5313 2.93682 13.1639 3.64861L13.8545 4.6455C13.9578 4.83561 14.056 4.99085 14.1431 5.20066C14.7735 6.71916 14.9102 7.93348 14.5703 9.53908C14.3289 10.6797 13.7534 11.6986 12.9762 12.5387C12.8943 12.6272 12.8653 12.6827 12.774 12.774L11.3545 13.8545C10.785 14.1641 10.2306 14.4277 9.56511 14.5651C7.78755 14.9321 6.26854 14.7591 4.66588 13.8654C4.48582 13.765 4.3059 13.6606 4.14711 13.5404C3.6916 13.1956 3.85271 13.3383 3.46133 12.9762C3.02684 12.5742 2.61918 12.1425 2.31101 11.6265C1.92095 10.9733 1.59609 10.3459 1.43489 9.56511C1.33881 9.09973 1.25 8.63565 1.25 8.0625ZM7.65383 0H8.23415C8.92004 0.0260743 9.61317 0.143547 10.3438 0.343749C10.4711 0.378658 10.5682 0.410855 10.6996 0.45666C11.4976 0.734852 12.2237 1.16679 12.8926 1.66993C13.484 2.11477 14.1492 2.80312 14.556 3.41276L14.7562 3.71258C14.931 3.98516 15.1461 4.34294 15.2681 4.63819C15.3679 4.87995 15.4643 5.0685 15.5511 5.32389C15.8252 6.12983 15.9707 6.89261 16 7.65383V8.23415C15.9739 8.92004 15.8565 9.61317 15.6563 10.3438C15.4511 11.0925 15.1251 11.6818 14.7322 12.3259C14.5524 12.6207 14.3337 12.888 14.1206 13.1519C14.0271 13.2677 13.9805 13.3078 13.8824 13.4137C13.796 13.507 13.7614 13.5673 13.6643 13.6643C13.5635 13.7652 13.4935 13.8054 13.3978 13.8978C13.0205 14.2622 12.4664 14.6683 11.9984 14.9359C11.6036 15.1618 11.1136 15.4023 10.6761 15.5511C10.4425 15.6305 10.1569 15.7264 9.92985 15.7736C8.95982 15.9754 8.79611 16 7.78125 16C5.8841 16 3.9726 15.1667 2.58633 13.8824C2.493 13.796 2.43268 13.7614 2.33566 13.6643C1.9197 13.2484 1.36865 12.5309 1.06406 11.9984C0.720337 11.3975 0.368362 10.6123 0.226398 9.92985C0.0246017 8.95982 0 8.79611 0 7.78125C0 7.12342 0.112844 6.59584 0.231712 6.04422C0.413413 5.20103 0.824313 4.40114 1.26783 3.67407C1.34117 3.55384 1.38174 3.50709 1.45636 3.39386C1.53885 3.26873 1.58353 3.22229 1.66993 3.10742C1.74939 3.00179 1.80327 2.94241 1.87937 2.84813L2.33566 2.33566C3.12227 1.54904 4.27292 0.80631 5.32389 0.448887C6.12983 0.174803 6.89261 0.029263 7.65383 0Z" fill="#6A6A6A"/>
<path fill-rule="evenodd" clip-rule="evenodd" d="M7.375 4.3125V8.06251C7.375 8.43788 7.75237 8.65029 7.98662 8.82588C8.26012 9.03089 8.5006 9.21118 8.77235 9.41516L9.95086 10.2991C10.1531 10.4512 10.2111 10.5313 10.5 10.5313C10.7988 10.5313 11.0937 10.2664 11.0937 9.96875C11.0937 9.54117 10.982 9.50193 10.5804 9.20087L9.29462 8.23663C9.17693 8.14841 9.08636 8.08035 8.97325 7.9955C8.8562 7.90768 8.75252 7.81748 8.62499 7.75C8.62499 6.98958 8.62499 6.22917 8.62499 5.46875C8.62499 4.56924 8.82636 3.71875 7.9375 3.71875C7.63982 3.71875 7.375 4.01373 7.375 4.3125Z" fill="#6A6A6A"/>
</svg>