<svg width="188" height="48" viewBox="0 0 188 48" fill="none" xmlns="http://www.w3.org/2000/svg">
<g filter="url(#filter0_d_1201_5204)">
<path d="M89.6071 28.789C86.954 31.0099 83.1174 32.2591 78.0971 32.5365V35.72H70.3998V32.5336C65.3782 32.1759 61.5415 30.907 58.8897 28.7269C56.238 26.5467 54.9121 23.5674 54.9121 19.789C54.9121 16.0099 56.231 13.0237 58.8687 10.8304C61.5065 8.6371 65.3492 7.36096 70.3968 7.00199V4.02368H78.0941V7.00199C83.1157 7.33072 86.9524 8.59272 89.6041 10.788C92.2559 12.9833 93.5818 15.9833 93.5818 19.788C93.5838 23.5691 92.2589 26.5694 89.6071 28.789ZM64.9077 24.1341C66.1272 25.1552 67.9569 25.8173 70.3968 26.1203V13.4122C67.8436 13.6884 65.9856 14.337 64.8227 15.358C63.6598 16.379 63.0786 17.856 63.0793 19.789C63.0793 21.666 63.6887 23.1144 64.9077 24.1341ZM83.6502 24.1756C84.8264 23.1276 85.4149 21.6516 85.4156 19.7476C85.4162 17.8435 84.8134 16.3817 83.6072 15.362C82.4016 14.3409 80.5649 13.691 78.0971 13.4122V26.1618C80.6222 25.8856 82.4733 25.2236 83.6502 24.1756Z" fill="#0092DD"/>
<path d="M119.752 11.8855H106.264V34.3539H97.9668V5.3894H119.794L119.752 11.8855Z" fill="#0092DD"/>
<path d="M127.134 32.9892C124.625 31.6927 122.653 29.8995 121.221 27.6095C119.788 25.3196 119.072 22.7403 119.072 19.8718C119.072 17.0033 119.788 14.4241 121.221 12.1342C122.653 9.84421 124.624 8.05098 127.134 6.75447C129.646 5.45861 132.475 4.81035 135.624 4.80969C138.772 4.80904 141.601 5.45729 144.112 6.75447C146.622 8.05164 148.593 9.84487 150.026 12.1342C151.458 14.4234 152.174 17.0027 152.175 19.8718C152.175 22.7417 151.458 25.3209 150.026 27.6095C148.593 29.8981 146.621 31.6914 144.112 32.9892C141.602 34.2864 138.772 34.9346 135.624 34.934C132.475 34.9333 129.645 34.2851 127.134 32.9892ZM139.708 27.1135C140.928 26.4242 141.929 25.4143 142.601 24.1963C143.31 22.9412 143.664 21.4997 143.665 19.8718C143.665 18.244 143.311 16.8025 142.601 15.5474C141.929 14.3297 140.927 13.3199 139.708 12.6302C138.457 11.9515 137.052 11.5957 135.624 11.5957C134.195 11.5957 132.79 11.9515 131.539 12.6302C130.319 13.3197 129.317 14.3296 128.645 15.5474C127.936 16.8038 127.581 18.2453 127.581 19.8718C127.581 21.4984 127.936 22.9399 128.645 24.1963C129.317 25.4146 130.319 26.4246 131.539 27.1135C132.79 27.7922 134.195 28.148 135.624 28.148C137.052 28.148 138.457 27.7922 139.708 27.1135Z" fill="#0092DD"/>
<path d="M162.789 33.0099C160.306 31.7265 158.356 29.9402 156.939 27.6509C155.521 25.3616 154.812 22.7686 154.811 19.8718C154.811 16.9751 155.52 14.382 156.939 12.0927C158.358 9.80345 160.308 8.01712 162.789 6.73376C165.271 5.45105 168.072 4.80969 171.192 4.80969C173.915 4.80969 176.369 5.27879 178.553 6.21699C180.677 7.11016 182.547 8.50239 183.999 10.2722L178.638 14.9902C176.709 12.7285 174.369 11.5973 171.618 11.5967C170 11.5967 168.561 11.9415 167.299 12.6312C166.055 13.3031 165.035 14.3164 164.363 15.5484C163.667 16.8048 163.32 18.2463 163.321 19.8728C163.321 21.4994 163.669 22.9409 164.363 24.1973C165.035 25.4297 166.055 26.4431 167.299 27.1144C168.561 27.8041 170 28.149 171.618 28.149C174.369 28.149 176.709 27.0178 178.638 24.7555L183.999 29.4724C182.548 31.2439 180.678 32.6373 178.553 33.5306C176.368 34.4688 173.914 34.9379 171.192 34.9379C168.071 34.9353 165.27 34.2926 162.789 33.0099Z" fill="#0092DD"/>
<path d="M23.7212 40.0001L43.4414 29.5868V20.7584L23.7212 31.1707L4 20.7584V29.5868L23.7212 40.0001Z" fill="#E30518"/>
<path d="M23.7212 29.6203L43.4414 19.2081V10.3787L23.7212 20.7919L4 10.3787V19.2081L23.7212 29.6203Z" fill="#3359A5"/>
<path d="M23.7212 19.2416L43.4414 8.8294V0L23.7212 10.4132L4 0V8.8294L23.7212 19.2416Z" fill="#0092DD"/>
</g>
<defs>
<filter id="filter0_d_1201_5204" x="0" y="0" width="188" height="48.0001" filterUnits="userSpaceOnUse" color-interpolation-filters="sRGB">
<feFlood flood-opacity="0" result="BackgroundImageFix"/>
<feColorMatrix in="SourceAlpha" type="matrix" values="0 0 0 0 0 0 0 0 0 0 0 0 0 0 0 0 0 0 127 0" result="hardAlpha"/>
<feOffset dy="4"/>
<feGaussianBlur stdDeviation="2"/>
<feComposite in2="hardAlpha" operator="out"/>
<feColorMatrix type="matrix" values="0 0 0 0 0.415686 0 0 0 0 0.415686 0 0 0 0 0.415686 0 0 0 0.25 0"/>
<feBlend mode="normal" in2="BackgroundImageFix" result="effect1_dropShadow_1201_5204"/>
<feBlend mode="normal" in="SourceGraphic" in2="effect1_dropShadow_1201_5204" result="shape"/>
</filter>
</defs>
</svg>

