<svg width="1920" height="1080" fill="none" xmlns="http://www.w3.org/2000/svg" preserveAspectRatio="xMidYMid"><filter id="j" x="0" y="0"><feFlood flood-color="#fff" result="neutral"/><feGaussianBlur in="SourceGraphic" stdDeviation="10" result="blurred"/><feMerge><feMergeNode in="neutral"/><feMergeNode in="blurred"/></feMerge></filter><g id="i"><path fill="#171416" d="M-50-50h2020v1180H-50z"/><g opacity=".7"><path d="M1838.76-44.082c-38.62 21.137-80.82 37.84-121.84 53.246-154.22 57.917-317.15 88.251-476.89 121.261-71.27 14.725-142.27 31.014-213.49 45.964-70.548 14.808-141.544 26.362-212.1 41.007-106.155 22.033-206.268 69.464-298.698 126.855-86.426 53.662-156.84 127.566-232.132 194.377-35.627 31.613-70.136 63.915-101.445 99.514-28.606 32.527-54.2 67.351-84.621 98.453-42.438 43.387-94.982 76.527-148.461 105.344-15.953 8.596-32.113 15.686-49.386 20.981-5.721 1.754-11.27 3.145-16.558 6.039M1952.17 636.829c-37.27-31.724-78.6-46.942-127.72-49.94-48.71-2.973-97.77 3.504-145.4 13.258-76.87 15.742-151.89 41.046-225.32 68.354-63.39 23.577-126.14 49.634-184.81 83.528-70.43 40.69-131.56 93.182-182.37 156.744-67.19 84.053-119.591 187.887-118.813 297.647.584 82.31 32.773 175.4 92.513 233.65 34.84 33.96 79.31 53.18 126.25 63.78 80.13 18.11 165.26 18.47 246.97 17.16 79.05-1.26 157.99-6.73 236.74-13.4 89.29-7.57 178.31-16.81 266.49-33 50.02-9.18 100.16-19.28 149.38-32.11 14.62-3.82 28.15-7.45 42.06-13.12 10.49-4.27 12.55-8.06 20.26-14.28" stroke="#BDDD94" stroke-width="50" stroke-linecap="round"/><path d="M-69.731 229.797c13.258 9.178 37.96 9.086 52.96 9.796 90.363 4.281 187.129-10.247 269.513-47.951 81.387-37.248 152.737-93.28 217.437-154.386 15.973-15.086 31.405-31.498 49.498-44.121 4.771-3.329 9.835-5.931 13.848-9.944" stroke="#8C647E" stroke-width="50" stroke-linecap="round"/><path d="M-38 1315.14c36.591 30.41 83.351 46.44 129.557 55.2 75.905 14.39 154.757 14.07 231.587 10.01 133.302-7.05 265.854-27.46 396.195-55.85 264.549-57.62 521.751-153.72 755.951-290.25 117.61-68.563 227.74-149.642 329.83-239.609 36.93-32.545 80.7-74.741 114.65-111.051 63.9-68.345 23.38-29.369 83.35-97.354" stroke="#694C5F" stroke-width="50" stroke-linecap="round"/><path d="M279.999 415c0 55.228-35.499 87.5-107.999 117-66.5 27.059-92-61.772-92-117 0-82.5 47-108.091 99.999-100 65.501 10 100 44.772 100 100Z" fill="#98EF09"/><path d="M1718.5 1021c-3.5 58-90 68-148.5 73.5-92.37 8.68-100-49.27-100-104.5 0-55.228 69.5-104.5 143.5-135 70.5-16.5 101.5 65 105 166ZM1330 866c0 24.853-28.73 31.957-55 34-45 3.5-45-20.147-45-45s8.5-40 45-45c62-7 55 31.147 55 56ZM796.5 932.5c0 12 .739 17.5-19.001 17.5-9.665 0-16.499-6-18.499-17.5-.435-2.5-8-29.5 18.499-23.5 17.068 3.864 17.001 13 19.001 23.5Z" fill="#683155"/><path d="M1436 397c0 9.665-3 21-19 18-12.14-2.276-16-8.335-16-18s4-21 17.5-28.5c16.2-9 17.5 18.835 17.5 28.5Z" fill="#D2876F"/><path d="M425.999 670c0 27.614-22.385 50-50 50-27.614 0-50-22.386-50-50s4.001-57.5 50-62c27.615 0 50 34.386 50 62ZM1914.5 129.5c0 75.387-95.61 160.5-171 160.5S1607 275 1607 153.5c0-75.387 61.11-136.5 136.5-136.5s171 37.113 171 112.5ZM113.499 1248.5c3.5 13-3.5 47-20.5 43.5s-31.5-14.5-31.5-25c0-18.5 3-50.5 18.5-52.5 20.5 0 29.21 18.07 33.5 34Z" fill="#98EF09"/></g></g><clipPath id="h"><use href="#a"/><use href="#b"/><use href="#c"/><use href="#d"/><use href="#e"/><use href="#f"/><use href="#g"/></clipPath><g clip-path="url(#h)"><use href="#i" filter="url(#j)"/></g><path d="m228.905 3.214 219.753 371.772c1.773 3-.389 6.79-3.874 6.79H5.277c-3.484 0-5.647-3.79-3.873-6.79L221.157 3.214c1.742-2.947 6.006-2.947 7.748 0Z" stroke="#98EF09" stroke-opacity=".5" fill="#6B696B" fill-opacity=".25" id="a"><animateTransform attributeName="transform" attributeType="auto" type="translate" values="0.47 42.19;148.7 -21.23;309.57 -134.55;453.21 13.09;491.66 66.81;753.9 -133.32;1279.69 -115.77;1453.69 -217.77;0.47 42.19" calcMode="spline" keyTimes="0;0.11;0.23;0.34;0.45;0.59;0.73;0.86;1" keySplines="0 0 1 1;0 0 1 1;0 0 1 1;0 0 1 1;0 0 1 1;0 0 1 1;0 0 1 1;0 0 1 1" dur="44s" begin="0s" repeatCount="indefinite" additive="sum" accumulate="none" fill="freeze"/><animateTransform attributeName="transform" attributeType="auto" type="rotate" values="20 223.02 223.92;55.43 223.02 223.92;98.07 223.02 223.92;161.5 223.02 223.92;215.02 223.02 223.92;325.02 223.02 223.92;435.93 223.02 223.92;508 223.02 223.92;740 223.02 223.92" calcMode="spline" keyTimes="0;0.11;0.23;0.34;0.45;0.59;0.73;0.86;1" keySplines="0 0 1 1;0 0 1 1;0 0 1 1;0 0 1 1;0 0 1 1;0 0 1 1;0 0 1 1;0 0 1 1" dur="44s" begin="0s" repeatCount="indefinite" additive="sum" accumulate="none" fill="freeze"/></path><path d="m396.605 3.536 386.778 654.339c1.773 3-.39 6.79-3.874 6.79H5.954c-3.485 0-5.647-3.79-3.874-6.79L388.858 3.536c1.741-2.947 6.005-2.947 7.747 0Z" stroke="#98EF09" stroke-opacity=".5" fill="#6B696B" fill-opacity=".25" id="b"><animateTransform attributeName="transform" attributeType="auto" type="translate" values="1446.81 355.75;1497.72 389.69;1316.7 367.06;1206.39 562.22;1016.89 610.3;858.5 553.74;734.05 632.93;335.24 703.64;1446.81 355.75" calcMode="spline" keyTimes="0;0.11;0.23;0.34;0.45;0.59;0.73;0.86;1" keySplines="0 0 1 1;0 0 1 1;0 0 1 1;0 0 1 1;0 0 1 1;0 0 1 1;0 0 1 1;0 0 1 1" dur="44s" begin="0s" repeatCount="indefinite" additive="sum" accumulate="none" fill="freeze"/><animateTransform attributeName="transform" attributeType="auto" type="rotate" values="-22.06 390.37 393.36;60.6 390.37 393.36;160.52 390.37 393.36;182.06 390.37 393.36;255.16 390.37 393.36;349.48 390.37 393.36;432.96 390.37 393.36;575.82 390.37 393.36;697.94 390.37 393.36" calcMode="spline" keyTimes="0;0.11;0.23;0.34;0.45;0.59;0.73;0.86;1" keySplines="0 0 1 1;0 0 1 1;0 0 1 1;0 0 1 1;0 0 1 1;0 0 1 1;0 0 1 1;0 0 1 1" dur="44s" begin="0s" repeatCount="indefinite" additive="sum" accumulate="none" fill="freeze"/></path><path d="M29.673 2.637 53.24 42.505c.985 1.666-.217 3.772-2.152 3.772H3.956c-1.936 0-3.138-2.106-2.153-3.772L25.37 2.637c.968-1.637 3.336-1.637 4.304 0Z" stroke="#98EF09" stroke-opacity=".5" fill="#6B696B" fill-opacity=".25" id="c"><animateTransform attributeName="transform" attributeType="auto" type="translate" values="175.85 504.54;67.5 402.75;54.5 226.83;162.57 164.51;338.99 61.91;392.73 114.94;799.09 146.06;1033.09 58.56;175.85 504.54" calcMode="spline" keyTimes="0;0.11;0.23;0.34;0.45;0.59;0.73;0.86;1" keySplines="0 0 1 1;0 0 1 1;0 0 1 1;0 0 1 1;0 0 1 1;0 0 1 1;0 0 1 1;0 0 1 1" dur="44s" begin="0s" repeatCount="indefinite" additive="sum" accumulate="none" fill="freeze"/><animateTransform attributeName="transform" attributeType="auto" type="rotate" values="45.08 27.43 27.09;-45.99 27.43 27.09;-209.34 27.43 27.09;-299.37 27.43 27.09;-354.28 27.43 27.09;-449.79 27.43 27.09;-630.47 27.43 27.09;-844.95 27.43 27.09;-1034.92 27.43 27.09" calcMode="spline" keyTimes="0;0.11;0.23;0.34;0.45;0.59;0.73;0.86;1" keySplines="0 0 1 1;0 0 1 1;0 0 1 1;0 0 1 1;0 0 1 1;0 0 1 1;0 0 1 1;0 0 1 1" dur="44s" begin="0s" repeatCount="indefinite" additive="sum" accumulate="none" fill="freeze"/></path><path d="m349.687 5.818 331.055 560.07c3.743 6.333-.822 14.334-8.178 14.334H10.454c-7.357 0-11.922-8.001-8.179-14.334L333.33 5.818c3.678-6.221 12.679-6.221 16.357 0Z" stroke="#98EF09" stroke-opacity=".5" fill="#6B696B" fill-opacity=".25" id="d"><animateTransform attributeName="transform" attributeType="auto" type="translate" values="-186.01 652.47;-224.41 585.81;99.59 521.81;-83.78 377.38;-313.78 177.38;-337.78 119.38;-26.89 -232.18;127.94 -412.18;-186.01 652.47" calcMode="spline" keyTimes="0;0.11;0.23;0.34;0.45;0.59;0.73;0.86;1" keySplines="0 0 1 1;0 0 1 1;0 0 1 1;0 0 1 1;0 0 1 1;0 0 1 1;0 0 1 1;0 0 1 1" dur="44s" begin="0s" repeatCount="indefinite" additive="sum" accumulate="none" fill="freeze"/><animateTransform attributeName="transform" attributeType="auto" type="rotate" values="-61.48 341.14 348.11;-112.09 341.14 348.11;-204.61 341.14 348.11;-285.17 341.14 348.11;-427.22 341.14 348.11;-534.09 341.14 348.11;-639.76 341.14 348.11;-769.39 341.14 348.11;-781.48 341.14 348.11" calcMode="spline" keyTimes="0;0.11;0.23;0.34;0.45;0.59;0.73;0.86;1" keySplines="0 0 1 1;0 0 1 1;0 0 1 1;0 0 1 1;0 0 1 1;0 0 1 1;0 0 1 1;0 0 1 1" dur="44s" begin="0s" repeatCount="indefinite" additive="sum" accumulate="none" fill="freeze"/></path><path d="m217.361 3.538 208.165 352.245c1.773 3-.39 6.79-3.874 6.79H5.322c-3.485 0-5.647-3.79-3.875-6.79L209.613 3.538c1.741-2.947 6.006-2.947 7.748 0Z" stroke="#98EF09" stroke-opacity=".5" fill="#6B696B" fill-opacity=".25" id="e"><animateTransform attributeName="transform" attributeType="auto" type="translate" values="1127.17 1144.32;1127.17 1144.32;1127.17 1144.32;395.12 988.28;191.12 826.49;102.4 603.09;39.05 473.34;-99.82 355.62;1127.17 1144.32" calcMode="spline" keyTimes="0;0.11;0.23;0.34;0.45;0.59;0.73;0.86;1" keySplines="0 0 1 1;0 0 1 1;0 0 1 1;0 0 1 1;0 0 1 1;0 0 1 1;0 0 1 1;0 0 1 1" dur="44s" begin="0s" repeatCount="indefinite" additive="sum" accumulate="none" fill="freeze"/><animateTransform attributeName="transform" attributeType="auto" type="rotate" values="96.24 212.89 213.32;96.24 212.89 213.32;96.24 212.89 213.32;126.69 212.89 213.32;197.81 212.89 213.32;337.68 212.89 213.32;412.15 212.89 213.32;502.21 212.89 213.32;816.24 212.89 213.32" calcMode="spline" keyTimes="0;0.11;0.23;0.34;0.45;0.59;0.73;0.86;1" keySplines="0 0 1 1;0 0 1 1;0 0 1 1;0 0 1 1;0 0 1 1;0 0 1 1;0 0 1 1;0 0 1 1" dur="44s" begin="0s" repeatCount="indefinite" additive="sum" accumulate="none" fill="freeze"/></path><path d="m258.297 3.143 248.87 421.031c1.773 2.999-.389 6.789-3.874 6.789H5.553c-3.484 0-5.647-3.79-3.874-6.789L250.55 3.143c1.742-2.947 6.006-2.947 7.748 0Z" stroke="#98EF09" stroke-opacity=".5" fill="#6B696B" fill-opacity=".25" id="f"><animateTransform attributeName="transform" attributeType="auto" type="translate" values="1287.97 -187.68;1123.92 -283.85;1155.03 -46.26;1220.08 -68.89;1438.18 -53.23;1527.71 200.06;1400.79 388.15;1117.2 339.9;1287.97 -187.68" calcMode="spline" keyTimes="0;0.11;0.23;0.34;0.45;0.59;0.73;0.86;1" keySplines="0 0 1 1;0 0 1 1;0 0 1 1;0 0 1 1;0 0 1 1;0 0 1 1;0 0 1 1;0 0 1 1" dur="44s" begin="0s" repeatCount="indefinite" additive="sum" accumulate="none" fill="freeze"/><animateTransform attributeName="transform" attributeType="auto" type="rotate" values="-98.97 255.46 269.85;-161.73 255.46 269.85;-287.25 255.46 269.85;-341.47 255.46 269.85;-437.42 255.46 269.85;-559.6 255.46 269.85;-665.93 255.46 269.85;-817.33 255.46 269.85;-818.97 255.46 269.85" calcMode="spline" keyTimes="0;0.11;0.23;0.34;0.45;0.59;0.73;0.86;1" keySplines="0 0 1 1;0 0 1 1;0 0 1 1;0 0 1 1;0 0 1 1;0 0 1 1;0 0 1 1;0 0 1 1" dur="44s" begin="0s" repeatCount="indefinite" additive="sum" accumulate="none" fill="freeze"/></path><path d="m45.769 1.8 40.354 68.269c.985 1.666-.217 3.772-2.153 3.772H3.263c-1.936 0-3.138-2.106-2.152-3.772l40.353-68.27c.968-1.637 3.337-1.637 4.305 0Z" stroke="#98EF09" stroke-opacity=".5" fill="#6B696B" fill-opacity=".25" id="g"><animateTransform attributeName="transform" attributeType="auto" type="translate" values="1279.54 824.45;1073.94 761.97;904.44 838.3;718.34 847.92;633.95 723.64;550.4 532.02;584.35 278.88;756.49 112;1279.54 824.45" calcMode="spline" keyTimes="0;0.11;0.23;0.34;0.45;0.59;0.73;0.86;1" keySplines="0 0 1 1;0 0 1 1;0 0 1 1;0 0 1 1;0 0 1 1;0 0 1 1;0 0 1 1;0 0 1 1" dur="44s" begin="0s" repeatCount="indefinite" additive="sum" accumulate="none" fill="freeze"/><animateTransform attributeName="transform" attributeType="auto" type="rotate" values="45.08 43.86 46.69;-51.13 43.86 46.69;-201.39 43.86 46.69;-253.9 43.86 46.69;-362.74 43.86 46.69;-499.3 43.86 46.69;-663.74 43.86 46.69;-801.7 43.86 46.69;-1034.92 43.86 46.69" calcMode="spline" keyTimes="0;0.11;0.23;0.34;0.45;0.59;0.73;0.86;1" keySplines="0 0 1 1;0 0 1 1;0 0 1 1;0 0 1 1;0 0 1 1;0 0 1 1;0 0 1 1;0 0 1 1" dur="44s" begin="0s" repeatCount="indefinite" additive="sum" accumulate="none" fill="freeze"/></path></svg>