<svg width="115" height="151" viewBox="0 0 115 151" fill="none" xmlns="http://www.w3.org/2000/svg">
<path fill-rule="evenodd" clip-rule="evenodd" d="M49.1852 148.905C47.2118 147.548 44.676 148.079 36.3283 141.283C33.4868 138.97 29.9124 134.097 28.0657 129.488C23.4984 118.088 28.1691 105.918 34.1978 99.1277C34.983 102.986 35.2373 104.761 37.0725 107.735C38.389 109.868 40.7504 112.581 42.5709 113.661C42.1846 111.932 40.8315 109.36 40.2455 107.244C38.01 99.1708 38.01 92.1654 40.2941 84.2202C42.7243 75.7671 49.355 66.7975 54.826 63.466C54.0474 71.926 54.869 75.9611 58.2211 82.8193C63.1253 92.853 71.7169 101.678 75.507 111.513C78.8635 120.223 78.3253 123.07 76.77 130.739C79.3238 129.157 82.2417 124.011 83.3361 119.856C83.9393 117.565 84.4309 115.053 84.607 112.575C84.8108 109.705 84.41 106.729 84.6066 104.098C87.2205 107.331 89.0073 114.193 88.8758 119.303C88.731 124.934 86.847 130.332 84.3499 134.33C81.73 138.525 78.7211 141.81 74.9446 144.42C67.5798 149.511 63.8497 148.678 60.8835 150.077C64.5168 150.077 73.8757 149.817 77.5061 148.698C82.1305 147.273 89.1091 143.519 92.9458 140.744C100.796 135.067 106.948 127.269 110.352 117.141C113.627 107.397 114.067 101.221 114.914 91.1502C115.212 87.607 114.641 83.8284 114.624 81.2082C114.57 72.9849 111.645 63.9193 107.729 57.515C106.801 55.998 104.584 52.4322 103.319 51.598C103.385 54.5079 104.515 55.9338 103.67 61.616C102.639 68.5519 99.8006 76.0664 96.1165 82.023C95.7265 82.6535 95.5372 83.0224 95.1822 83.7411L94.09 85.5968C94.09 80.1766 91.5532 73.2457 89.3228 68.3081C84.6431 57.9486 75.7728 46.7823 70.911 34.8501C69.2772 30.8407 68.4982 28.0199 67.7588 23.0055C67.1441 18.8363 67.8345 12.7731 68.8125 9.71307C69.2684 8.28634 70.2015 5.8012 70.989 4.52858L74.1434 0.0136719L63.4297 4.41388C55.1952 8.01597 42.6936 16.5695 37.0174 23.2545C32.0292 29.1294 28.1331 34.281 25.5767 41.8866C22.7463 50.3079 21.7957 55.5448 22.6831 64.4513C22.7774 65.3969 23.1501 66.7138 23.235 67.7182C22.3098 67.1082 20.843 64.835 20.1618 63.7095C16.9074 58.3321 15.7923 53.3776 15.7923 46.3223C12.8943 49.6047 9.43946 55.3135 7.55559 59.0231C-0.86134 75.5977 -2.64085 93.0342 4.22389 109.882C6.22215 114.786 9.01367 119.042 11.9197 123.115C13.3385 125.104 14.8621 126.989 16.4562 128.907C19.7794 132.906 22.5585 136.572 26.8083 139.525C31.61 142.862 35.3336 144.712 40.6694 146.689C42.4064 147.332 47.2517 148.865 49.1852 148.905Z" fill="#F3705A" fill-opacity="0.25"/>
<path fill-rule="evenodd" clip-rule="evenodd" d="M49.1867 148.905C50.8313 149.314 52.8644 149.784 54.5705 150.004C54.8116 150.035 55.0708 150.059 55.343 150.077H60.8851C63.8512 148.678 67.5813 149.511 74.9461 144.42C78.7226 141.81 81.7315 138.525 84.3514 134.33C86.8485 130.332 88.7325 124.934 88.8773 119.303C89.0088 114.192 87.222 107.331 84.6082 104.098C84.4115 106.729 84.8124 109.705 84.6085 112.574C84.4324 115.053 83.9408 117.565 83.3376 119.855C82.2432 124.011 79.3253 129.156 76.7716 130.739C78.3268 123.069 78.865 120.222 75.5086 111.513C71.7184 101.678 63.1268 92.8528 58.2226 82.8191C54.8705 75.9609 54.049 71.9258 54.8275 63.4658C49.3566 66.7973 42.7258 75.7669 40.2956 84.22C38.0115 92.1652 38.0115 99.1706 40.247 107.244C40.8331 109.36 42.1862 111.931 42.5724 113.661C40.7519 112.581 38.3905 109.868 37.074 107.735C35.2388 104.761 34.9846 102.986 34.1993 99.1275C28.1706 105.918 23.4999 118.087 28.0672 129.487C29.9139 134.097 33.4884 138.97 36.3298 141.283C44.6775 148.079 47.2133 147.548 49.1867 148.905Z" fill="#FFD05C" fill-opacity="0.25"/>
</svg>
