<svg width="42" height="54" viewBox="0 0 42 54" fill="none" xmlns="http://www.w3.org/2000/svg">
<g>
<path fill-rule="evenodd" clip-rule="evenodd" d="M18.5417 48.7134C17.9583 48.3059 17.2085 48.4655 14.7405 46.4247C13.9005 45.73 12.8437 44.2665 12.2977 42.8822C10.9473 39.4587 12.3283 35.8042 14.1107 33.7649C14.3428 34.9237 14.418 35.4567 14.9606 36.3497C15.3498 36.9904 16.048 37.8051 16.5862 38.1293C16.472 37.61 16.0719 36.8378 15.8987 36.2022C15.2377 33.7778 15.2377 31.6741 15.913 29.288C16.6315 26.7495 18.5919 24.0558 20.2094 23.0553C19.9792 25.596 20.2221 26.8077 21.2132 28.8673C22.6631 31.8805 25.2033 34.5308 26.3238 37.4843C27.3162 40.0999 27.157 40.9548 26.6972 43.2582C27.4523 42.7829 28.3149 41.2375 28.6385 39.9897C28.8168 39.3018 28.9622 38.5475 29.0142 37.8031C29.0745 36.9414 28.956 36.0477 29.0141 35.2576C29.7869 36.2285 30.3152 38.289 30.2763 39.8237C30.2335 41.5148 29.6765 43.1359 28.9382 44.3366C28.1637 45.5963 27.2741 46.5828 26.1575 47.3667C23.9801 48.8955 22.8773 48.6454 22.0004 49.0655C23.0745 49.0655 25.8415 48.9874 26.9148 48.6514C28.2821 48.2234 30.3453 47.096 31.4796 46.2627C33.8007 44.5577 35.6195 42.216 36.6259 39.1744C37.594 36.2483 37.7243 34.3936 37.9746 31.3692C38.0627 30.3051 37.894 29.1704 37.8889 28.3835C37.8729 25.914 37.0081 23.1915 35.8502 21.2682C35.5759 20.8126 34.9206 19.7418 34.5465 19.4913C34.566 20.3651 34.9001 20.7933 34.6504 22.4998C34.3455 24.5827 33.5063 26.8394 32.417 28.6282C32.3017 28.8175 32.2458 28.9283 32.1408 29.1441L31.8179 29.7014C31.8179 28.0737 31.0679 25.9923 30.4085 24.5095C29.0249 21.3984 26.4024 18.0451 24.965 14.4617C24.482 13.2577 24.2517 12.4105 24.0331 10.9047C23.8513 9.65261 24.0554 7.83177 24.3446 6.91282C24.4793 6.48436 24.7552 5.73805 24.9881 5.35587L25.9207 4L22.7531 5.32142C20.3186 6.40317 16.6225 8.97188 14.9443 10.9794C13.4695 12.7437 12.3176 14.2908 11.5618 16.5748C10.725 19.1038 10.4439 20.6765 10.7063 23.3512C10.7342 23.6352 10.8444 24.0307 10.8695 24.3323C10.5959 24.1491 10.1623 23.4665 9.96088 23.1285C8.99872 21.5136 8.66903 20.0257 8.66903 17.9069C7.81223 18.8926 6.7908 20.6071 6.23383 21.7211C3.74534 26.6986 3.21923 31.9349 5.2488 36.9945C5.83959 38.4672 6.66491 39.7452 7.52408 40.9685C7.94355 41.5658 8.394 42.1319 8.86531 42.7079C9.84784 43.9088 10.6695 45.0098 11.9259 45.8966C13.3456 46.8987 14.4465 47.4542 16.024 48.0479C16.5376 48.2412 17.9701 48.7015 18.5417 48.7134Z" fill="#F3705A"/>
<path fill-rule="evenodd" clip-rule="evenodd" d="M18.541 48.7135C19.0272 48.8366 19.6283 48.9775 20.1327 49.0436C20.204 49.0529 20.2806 49.0601 20.3611 49.0656H21.9996C22.8766 48.6455 23.9794 48.8956 26.1568 47.3668C27.2733 46.5829 28.1629 45.5963 28.9375 44.3366C29.6758 43.136 30.2328 41.5149 30.2756 39.8238C30.3145 38.2891 29.7862 36.2286 29.0134 35.2577C28.9553 36.0477 29.0738 36.9414 29.0135 37.8032C28.9614 38.5476 28.8161 39.3018 28.6377 39.9898C28.3142 41.2376 27.4515 42.7829 26.6965 43.2583C27.1563 40.9549 27.3154 40.1 26.3231 37.4843C25.2025 34.5308 22.6624 31.8806 21.2125 28.8674C20.2214 26.8078 19.9785 25.596 20.2087 23.0554C18.5912 24.0559 16.6308 26.7496 15.9123 29.2881C15.237 31.6741 15.237 33.7779 15.8979 36.2023C16.0712 36.8378 16.4712 37.6101 16.5854 38.1294C16.0472 37.8051 15.3491 36.9904 14.9598 36.3498C14.4172 35.4567 14.3421 34.9238 14.1099 33.765C12.3275 35.8043 10.9466 39.4588 12.2969 42.8823C12.8429 44.2666 13.8997 45.7301 14.7398 46.4247C17.2078 48.4656 17.9575 48.306 18.541 48.7135Z" fill="#FFD05C"/>
</g>
</svg>
