<svg width="55" height="53" viewBox="0 0 55 53" fill="none" xmlns="http://www.w3.org/2000/svg">
<g filter="url(#filter0_d_1203_5265)">
<path fill-rule="evenodd" clip-rule="evenodd" d="M19.6727 22.4546C19.6727 16.8749 25.5705 12.8488 30.7022 15.2684C37.5956 18.5187 36.4242 28.4073 29.2432 30.1446C25.5818 31.0303 21.9204 28.9905 20.3893 25.686C20.0467 24.9466 19.6727 23.4886 19.6727 22.4546ZM11.8415 6.13879C11.8415 6.85095 12.0799 7.18492 12.2342 7.71973C13.391 11.728 10.7061 15.1579 7.04945 15.6362C5.9843 15.7755 5.23238 16.2607 4.69551 17.2137C3.90114 18.6237 3.62906 25.7321 4.73503 27.3589C6.19355 29.5042 8.46043 27.8469 10.9321 30.7894C13.7204 34.1089 11.5479 37.6154 11.5479 38.3748C11.5479 40.428 13.3231 41.4886 15.1506 42.6462C16.0665 43.2264 19.2074 45 20.4558 45C21.063 45 21.9189 44.6624 22.3918 44.1868C23.3645 43.2085 23.5794 42.3267 25.4599 41.5509C28.0928 40.4647 30.4627 41.2214 32.3264 43.095C32.6146 43.3848 32.6899 43.5579 32.9578 43.8416C34.4678 45.4402 36.3172 44.504 37.815 43.7475C39.0861 43.1055 42.2637 41.2513 42.9931 40.0787C44.1783 38.1732 42.7747 37.2441 42.7747 34.9139C42.7747 32.169 44.5776 29.964 47.0428 29.1392C48.1464 28.7699 49.3749 28.9741 50.2943 27.3806C51.2241 25.7691 51.2285 19.0349 50.3464 17.377C50.0413 16.8036 49.6907 16.4484 49.1085 16.1553C47.9493 15.5719 46.194 15.9274 44.3099 13.5864C41.8061 10.4754 43.5578 8.03531 43.5578 6.23765C43.5578 4.03926 39.2511 1.84383 37.652 1.02959C36.046 0.211868 34.0042 -0.703632 32.5178 0.82083C31.6266 1.73495 31.4583 2.33793 29.6315 3.04714C27.569 3.84789 25.4415 3.41864 23.7406 2.1285C23.0025 1.56865 22.8928 1.23397 22.49 0.82083C20.5637 -1.15493 17.2476 0.984471 15.1382 2.25039C13.6182 3.1626 11.8415 4.30196 11.8415 6.13879Z" fill="#D2876F"/>
</g>
<defs>
<filter id="filter0_d_1203_5265" x="0" y="0" width="55" height="53" filterUnits="userSpaceOnUse" color-interpolation-filters="sRGB">
<feFlood flood-opacity="0" result="BackgroundImageFix"/>
<feColorMatrix in="SourceAlpha" type="matrix" values="0 0 0 0 0 0 0 0 0 0 0 0 0 0 0 0 0 0 127 0" result="hardAlpha"/>
<feOffset dy="4"/>
<feGaussianBlur stdDeviation="2"/>
<feComposite in2="hardAlpha" operator="out"/>
<feColorMatrix type="matrix" values="0 0 0 0 0.415686 0 0 0 0 0.415686 0 0 0 0 0.415686 0 0 0 0.25 0"/>
<feBlend mode="normal" in2="BackgroundImageFix" result="effect1_dropShadow_1203_5265"/>
<feBlend mode="normal" in="SourceGraphic" in2="effect1_dropShadow_1203_5265" result="shape"/>
</filter>
</defs>
</svg>

