<svg width="30" height="30" viewBox="0 0 30 30" fill="none" xmlns="http://www.w3.org/2000/svg">
<path fill-rule="evenodd" clip-rule="evenodd" d="M19.5184 22.6758C19.8188 23.0015 23.1486 25.6634 23.7828 26.1981C24.0173 26.3958 24.2085 26.5102 24.379 26.7187C25.1286 26.1937 26.3454 24.8967 26.903 24.1491C27.2761 23.6489 27.5947 23.2125 27.9245 22.651C29.1069 20.6382 29.8583 18.2281 30 15.7975V14.1428C29.9835 13.8666 29.9587 13.5911 29.925 13.3172C29.8892 13.0263 29.772 12.4761 29.7656 12.1875H15.293L15.2929 17.4024C15.2896 18.3999 15.2326 18.1641 16.2891 18.164C18.6328 18.1638 20.9766 18.164 23.3203 18.164C23.2154 18.3827 23.1266 18.6414 23.027 18.8668C22.4319 20.2144 21.305 21.3816 20.148 22.2574C19.9278 22.4241 19.7289 22.5236 19.5184 22.6758Z" fill="#508EF8"/>
<path fill-rule="evenodd" clip-rule="evenodd" d="M1.68688 8.08593C1.85317 8.26012 2.04611 8.41492 2.25592 8.58265L5.93628 11.5836C6.12745 11.728 6.37179 11.9843 6.56255 12.0776L6.93868 11.216C7.2096 10.5577 8.04202 9.38517 8.51066 8.92076C8.72138 8.71195 8.90898 8.49822 9.12645 8.30608C9.83461 7.68043 10.619 7.21259 11.5044 6.81682C13.9536 5.72207 17.363 5.88481 19.6875 7.44141L20.8995 6.48544C21.3417 6.12918 24.4257 3.64388 24.5508 3.45701C24.4039 3.23757 23.6384 2.71112 23.3673 2.53117C20.9812 0.947243 18.2221 0.0976967 15.455 0H14.3788C11.709 0.0943523 9.07582 0.893091 6.80851 2.41391C6.57876 2.568 6.4107 2.67631 6.18581 2.84592C5.9637 3.01343 5.75249 3.1515 5.55329 3.32667C5.16479 3.66824 4.80405 3.95518 4.43852 4.32127C3.61532 5.14581 1.99233 7.17213 1.68688 8.08593Z" fill="#F04335"/>
<path fill-rule="evenodd" clip-rule="evenodd" d="M1.75781 22.1072C2.57383 23.3788 2.43934 23.3304 3.46523 24.6012C4.3016 25.6372 5.13762 26.3636 6.18575 27.1541C6.74746 27.5777 7.52095 28.0494 8.14447 28.3594L9.60089 29.0124C10.0816 29.206 10.6472 29.387 11.1909 29.5317C12.1769 29.7943 13.154 29.9448 14.1103 30H15.8036C19.259 29.8027 22.3246 28.4206 24.379 26.7187C24.2085 26.5102 24.0173 26.3958 23.7828 26.1981C23.1486 25.6634 19.8188 23.0015 19.5184 22.6758C18.8948 22.985 18.5903 23.189 17.8208 23.4458C15.2222 24.313 12.0118 23.8636 9.95158 22.3336C9.70554 22.1508 9.48944 21.9767 9.2573 21.7974C9.02314 21.6166 8.84531 21.4135 8.62793 21.1963C7.76389 20.3329 7.15202 19.374 6.67968 18.138C6.42617 18.2768 6.2411 18.4583 6.03552 18.6333L2.97385 21.1381C2.57963 21.4636 2.18034 21.824 1.75781 22.1072Z" fill="#28B346"/>
<path fill-rule="evenodd" clip-rule="evenodd" d="M1.75781 22.1072C2.18034 21.824 2.57963 21.4636 2.97385 21.1381L6.03552 18.6333C6.2411 18.4583 6.42617 18.2768 6.67968 18.138C6.41151 17.722 6.0937 15.9348 6.09171 15.1777C6.08952 14.3361 6.18079 13.5935 6.37474 12.82C6.43264 12.5892 6.54477 12.2802 6.56255 12.0776C6.37179 11.9843 6.12745 11.728 5.93628 11.5836L2.25592 8.58265C2.04611 8.41492 1.85317 8.26012 1.68688 8.08593C1.25829 8.68482 0.695638 10.3369 0.468262 11.1909C0.201108 12.1943 0.0464674 13.2294 0 14.2707V15.6215C0.0753047 17.3188 0.432914 19.0037 1.05458 20.5665C1.27584 21.1227 1.52286 21.5852 1.75781 22.1072Z" fill="#FABA00"/>
</svg>
