<svg width="48" height="68" viewBox="0 0 48 68" fill="none" xmlns="http://www.w3.org/2000/svg">
<g filter="url(#filter0_d_1203_5267)">
<path fill-rule="evenodd" clip-rule="evenodd" d="M22.8155 29.0293C26.3003 28.0097 27.6225 32.2246 24.6601 33.0529C21.1555 34.0328 19.8505 29.8968 22.8155 29.0293ZM16.841 17.9754C16.963 14.95 18.6033 13.2753 21.3622 12.5598C25.2989 11.539 30.9793 12.6267 31.1379 17.4595C31.1902 19.0525 30.6796 19.9676 29.8335 20.9853C27.7945 23.4379 25.9157 23.2169 25.704 26.726L21.6365 26.7012C21.6912 24.9113 21.9788 23.4488 23.0104 22.3309C23.9143 21.3514 25.3077 20.536 26.0721 19.4167C27.0158 18.0348 26.5954 15.994 24.8688 15.6291C23.923 15.4292 22.8951 15.6217 22.3197 16.096C21.1228 17.0823 21.8216 17.8211 21.2121 17.976L16.841 17.9754ZM18.9367 44.7425L18.9208 44.7133L20.4922 44.6887L20.4901 44.0628H30.1529L30.1076 42.3166L30.8814 42.2973V40.8593L30.1459 40.8459C29.9135 38.6125 31.2247 36.3866 32.2931 34.9999C34.644 31.9487 37.061 31.2529 40.0132 26.1234C43.5391 19.9971 43.113 13.335 38.8648 8.0547C36.5932 5.23113 32.2627 2.396 28.2886 1.81494C26.5863 1.8924 25.2355 1.70321 23.381 1.94168C14.0928 3.13601 6.67912 10.3397 7.01279 19.336C7.15825 23.2565 8.74875 26.453 11.2489 29.3238C13.5125 31.9228 16.6832 34.1301 18.1961 36.7741C18.8429 37.9044 19.194 39.0116 19.2639 40.4264L19.2933 43.833C19.3149 44.9795 19.2858 44.7425 18.9367 44.7425Z" fill="#D2876F"/>
<path fill-rule="evenodd" clip-rule="evenodd" d="M21.4505 57.9119C21.9882 57.4969 23.3322 57.4358 24.0009 57.436L26.5483 57.9142C24.1376 58.9513 23.7627 58.8518 21.4505 57.9119ZM24.6549 60H23.1715C22.2369 59.8873 21.325 59.558 20.4978 58.9977L15.3611 55.3391C14.6936 54.6283 15.2099 52.4927 15.5237 51.9141C14.2494 51.3176 13.7177 50.1793 14.1744 48.9657C14.3942 48.3816 14.5865 48.5189 14.729 48.0469C14.2618 47.4296 13.699 46.7625 14.1771 45.5681C14.4475 44.8926 15.3928 44.1307 16.3184 44.0626C16.3184 40.0645 16.5036 38.8001 14.7382 36.2029L12.3785 33.6031C7.64177 29.461 4 24.2159 4 17.9287L4.79473 17.9365L5.5867 17.9481C6.02689 22.2376 6.78162 24.9259 9.42199 28.3685C10.6688 29.9942 11.5482 30.8169 12.9402 32.1699C14.2493 33.4423 15.2135 34.0286 16.4841 36.0656C18.1313 38.706 17.8839 40.8115 17.8839 44.0631L18.928 44.0806L18.9439 44.7427L18.928 44.7136L18.8798 45.3876L17.286 45.4145C14.7686 45.5215 15.7248 46.9828 15.9113 47.1181C16.3576 47.442 15.9155 47.2298 16.3939 47.282C16.7117 47.5635 24.8636 47.4069 25.903 47.4069L25.8759 48.7966C25.1844 48.7966 16.8776 48.6556 16.4525 48.8897C15.364 49.0108 15.1908 50.6195 16.5263 50.6839C16.8158 50.914 28.7919 50.732 30.6262 50.782C31.6507 50.8099 32.4862 50.6735 32.3877 49.6908C32.2605 48.423 29.6145 48.7967 27.5094 48.7967L27.4714 47.4591C28.5402 47.2948 31.164 47.6327 31.8666 47.2732C32.4203 46.9899 32.5647 46.213 32.1423 45.7672C31.7376 45.3401 30.869 45.4263 30.094 45.4291C26.9231 45.4403 23.7496 45.4296 20.5784 45.4296L20.4994 44.6889L20.4973 44.0631H30.1601L30.1148 42.3168L30.8886 42.2976L31.6834 42.3048V44.0626C32.6443 44.1333 33.4264 44.8215 33.7686 45.499C34.335 46.6203 33.7507 47.4156 33.2728 48.0469C33.2757 48.0564 35.2965 50.5947 32.4781 51.9141C32.8015 52.5104 33.3299 54.7458 32.5588 55.3839C32.4231 55.4961 32.0662 55.7271 31.8907 55.8475L28.0156 58.63C26.9915 59.3953 25.8309 59.861 24.6549 60ZM18.4377 52.1479C20.9357 52.1968 23.484 52.1559 25.9877 52.1559C30.8731 52.1559 31.249 51.6926 31.249 54.1387L22.1687 54.1727L22.2193 55.5192L29.7308 55.5295C29.7094 55.5544 29.6765 55.5844 29.6603 55.5995C29.6442 55.6145 29.6093 55.6499 29.5894 55.6679L29.4455 55.7936C27.0099 57.8211 28.4324 56.07 24.0009 56.0693C19.9953 56.0686 20.8087 57.4418 19.3605 56.3752C18.9104 56.0437 18.6765 55.9996 18.2756 55.5258L20.5642 55.5239L20.5885 54.1429L18.1497 54.1396L16.7505 54.1114C16.7505 52.662 16.7106 52.1964 18.4377 52.1479Z" fill="#2C2727" fill-opacity="0.8"/>
<path fill-rule="evenodd" clip-rule="evenodd" d="M16.8574 17.9754L21.2285 17.976C21.838 17.8211 21.1392 17.0823 22.336 16.096C22.9115 15.6217 23.9394 15.4292 24.8852 15.6291C26.6118 15.994 27.0322 18.0348 26.0885 19.4167C25.324 20.536 23.9306 21.3514 23.0267 22.3309C21.9952 23.4488 21.7076 24.9113 21.6529 26.7012L25.7204 26.7261C25.9321 23.2169 27.8108 23.4379 29.8498 20.9854C30.696 19.9676 31.2065 19.0525 31.1543 17.4596C30.9956 12.6267 25.3153 11.539 21.3786 12.5598C18.6197 13.2753 16.9794 14.95 16.8574 17.9754Z" fill="#2C2727" fill-opacity="0.8"/>
<path fill-rule="evenodd" clip-rule="evenodd" d="M24.7949 0.585935L24.8579 1.32204L28.2999 1.81489C32.274 2.39595 36.6045 5.23107 38.8761 8.05464C43.1243 13.3349 43.5504 19.997 40.0245 26.1233C37.0723 31.2528 34.6553 31.9486 32.3044 34.9998C31.236 36.3865 29.9248 38.6124 30.1572 40.8459L30.8927 40.8592L31.6872 40.9052C31.6876 37.2597 34.1966 34.8618 36.7558 32.609C37.0428 32.3564 37.0552 32.329 37.3065 32.0415L38.9933 30.2526C43.9509 24.2812 45.5816 17.6765 42.267 10.4447C42.0476 9.96602 41.7755 9.50214 41.4639 9.04583C40.3595 7.42836 39.8167 6.66463 38.2772 5.30273C36.3297 3.57991 35.2646 2.87759 32.6589 1.71866C30.6269 0.8148 27.7798 0 24.7997 0L24.7949 0.585935Z" fill="#2C2727" fill-opacity="0.8"/>
<path fill-rule="evenodd" clip-rule="evenodd" d="M5.19817 13.8392C5.19817 14.2185 5.06448 14.9919 4.93323 15.2362L5.77786 15.2602L5.64927 16.4756L4.80078 16.5233V17.9362L5.59276 17.9478C6.03295 22.2373 6.78767 24.9256 9.42804 28.3683C10.6748 29.9939 11.5543 30.8166 12.9463 32.1696C14.2553 33.442 15.2196 34.0283 16.4902 36.0653C18.1373 38.7057 17.89 40.8112 17.89 44.0628L18.9341 44.0804L18.9499 44.7425C19.2991 44.7425 19.3281 44.9795 19.3066 43.8329L19.2771 40.4263C19.2072 39.0116 18.8562 37.9043 18.2094 36.774C16.6965 34.1301 13.5257 31.9228 11.2622 29.3237C8.76201 26.453 7.1715 23.2564 7.02604 19.3359C6.69237 10.3397 14.106 3.13596 23.3943 1.94163C25.2487 1.70316 26.5996 1.89234 28.3018 1.81489L24.8598 1.32204L24.7969 0.585938H23.2209L23.1598 1.35991C17.758 1.85656 15.2604 2.9799 11.9945 5.30853C9.64368 6.98468 7.15143 10.0395 6.12124 13.8149L5.19817 13.8392Z" fill="#F0CEC3"/>
<path fill-rule="evenodd" clip-rule="evenodd" d="M17.2925 45.4145C17.0165 46.1878 16.7918 46.4977 17.267 47.304L16.4004 47.2819C16.7181 47.5634 24.8701 47.4068 25.9094 47.4068L25.8824 48.7965C25.1908 48.7966 16.884 48.6555 16.4589 48.8896L17.2711 48.8935C16.9356 49.5341 16.8775 49.9774 17.2504 50.6372L16.5327 50.6839C16.8223 50.9139 28.7983 50.732 30.6326 50.7819C31.6572 50.8098 32.4927 50.6735 32.3941 49.6908C32.2669 48.423 29.621 48.7966 27.5158 48.7966L27.4778 47.4591C28.5467 47.2947 31.1704 47.6327 31.873 47.2732C32.4268 46.9898 32.5712 46.213 32.1487 45.7672C31.7441 45.3401 30.8755 45.4263 30.1004 45.4291C26.9295 45.4403 23.756 45.4296 20.5848 45.4296L20.5058 44.6888L18.9344 44.7135L18.8862 45.3876L17.2925 45.4145Z" fill="#0092DD" fill-opacity="0.25"/>
<path fill-rule="evenodd" clip-rule="evenodd" d="M18.1582 54.1392L20.597 54.1426L20.5728 55.5235L18.2841 55.5255C18.685 55.9993 18.9189 56.0434 19.369 56.3748C20.8172 57.4415 20.0038 56.0683 24.0094 56.0689C28.4409 56.0697 27.0184 57.8207 29.454 55.7933L29.598 55.6676C29.6179 55.6496 29.6527 55.6142 29.6688 55.5992C29.685 55.5841 29.718 55.5541 29.7393 55.5291L22.2279 55.5189L22.1772 54.1724L31.2575 54.1384C31.2575 51.6922 30.8817 52.1556 25.9963 52.1556C23.4926 52.1556 20.9442 52.1965 18.4462 52.1475C18.2055 53.0479 18.1582 53.052 18.1582 54.1392Z" fill="#0092DD" fill-opacity="0.25"/>
<path fill-rule="evenodd" clip-rule="evenodd" d="M5.18182 13.8391L6.10489 13.8149C7.13507 10.0395 9.62733 6.98467 11.9781 5.30853C15.244 2.97989 17.7417 1.85656 23.1435 1.3599L23.2046 0.585935L23.1942 0C16.4594 0 10.0334 3.82352 6.95808 8.36836C6.36006 9.25215 6.0289 9.88286 5.53341 10.8579C5.23633 11.4424 4.5372 13.1261 4.51953 13.8281L5.18182 13.8391Z" fill="#2C2727" fill-opacity="0.8"/>
<path fill-rule="evenodd" clip-rule="evenodd" d="M22.8199 29.0296C19.8548 29.8971 21.1598 34.0331 24.6645 33.0532C27.6268 32.2249 26.3046 28.0101 22.8199 29.0296Z" fill="#2C2727" fill-opacity="0.8"/>
<path fill-rule="evenodd" clip-rule="evenodd" d="M21.4414 57.9122C23.7536 58.8521 24.1285 58.9515 26.5392 57.9145L23.9918 57.4363C23.3231 57.4361 21.9791 57.4971 21.4414 57.9122Z" fill="#D2876F"/>
<path fill-rule="evenodd" clip-rule="evenodd" d="M18.1551 54.1397C18.1551 53.0524 18.2024 53.0483 18.4432 52.1479C16.716 52.1965 16.7559 52.6621 16.7559 54.1115L18.1551 54.1397Z" fill="#C5E2F1" fill-opacity="0.5"/>
<path fill-rule="evenodd" clip-rule="evenodd" d="M16.3996 47.2818L17.2662 47.3038C16.791 46.4976 17.0157 46.1877 17.2917 45.4143C14.7742 45.5213 15.7304 46.9826 15.9169 47.118C16.3632 47.4418 15.9211 47.2296 16.3996 47.2818Z" fill="#C5E2F1" fill-opacity="0.5"/>
<path fill-rule="evenodd" clip-rule="evenodd" d="M16.5303 50.6835L17.248 50.6369C16.8751 49.9771 16.9332 49.5337 17.2687 48.8931L16.4565 48.8893C15.368 49.0104 15.1948 50.6191 16.5303 50.6835Z" fill="#C5E2F1" fill-opacity="0.5"/>
<path fill-rule="evenodd" clip-rule="evenodd" d="M4.79473 16.5234L5.64321 16.4757L5.7718 15.2603L4.92718 15.2363L4.13244 15.234C4.13244 15.7791 4.20783 16.1402 4 16.5234L4.79473 16.5234Z" fill="#2C2727" fill-opacity="0.8"/>
</g>
<defs>
<filter id="filter0_d_1203_5267" x="0" y="0" width="48" height="68" filterUnits="userSpaceOnUse" color-interpolation-filters="sRGB">
<feFlood flood-opacity="0" result="BackgroundImageFix"/>
<feColorMatrix in="SourceAlpha" type="matrix" values="0 0 0 0 0 0 0 0 0 0 0 0 0 0 0 0 0 0 127 0" result="hardAlpha"/>
<feOffset dy="4"/>
<feGaussianBlur stdDeviation="2"/>
<feComposite in2="hardAlpha" operator="out"/>
<feColorMatrix type="matrix" values="0 0 0 0 0.415686 0 0 0 0 0.415686 0 0 0 0 0.415686 0 0 0 0.25 0"/>
<feBlend mode="normal" in2="BackgroundImageFix" result="effect1_dropShadow_1203_5267"/>
<feBlend mode="normal" in="SourceGraphic" in2="effect1_dropShadow_1203_5267" result="shape"/>
</filter>
</defs>
</svg>

