<svg width="94" height="129" viewBox="0 0 94 129" fill="none" xmlns="http://www.w3.org/2000/svg">
<g clip-path="url(#clip0_806_488)">
<g filter="url(#filter0_d_806_488)">
<path d="M21.9497 38.6999L22.0912 39.3057L22.6971 39.4465C23.0733 39.534 23.4371 39.5981 23.7746 39.6111C24.1112 39.6241 24.4861 39.5893 24.8425 39.422C25.646 39.0448 25.8802 38.2506 25.9671 37.6061C26.0561 36.9456 26.0394 36.0615 26.0095 35.009C26.0049 34.8446 25.9998 34.6743 25.9946 34.4979C25.9651 33.5102 25.9299 32.3293 25.9299 30.9089C25.9299 30.406 25.9239 29.8722 25.9177 29.319C25.9074 28.4058 25.8965 27.4401 25.9111 26.4747C25.9346 24.924 26.0248 23.5357 26.2567 22.6092C27.2109 18.7949 30.6288 15.4471 35.1847 15.4471H58.8153C61.7501 15.4471 64.2651 16.9963 65.7036 18.6147C67.3741 20.4938 68.0701 22.8574 68.0701 26.6822V45.9259H23.8152C22.0126 45.9259 20.2894 46.155 18.8316 46.7193C14.8536 48.2592 11 52.2035 11 56.9364V107.212C11 109.022 11.6498 110.314 12.1722 111.353C12.1877 111.384 12.2031 111.415 12.2183 111.445C13.8518 114.698 17.641 118 22.0318 118H71.9681C74.9873 118 77.9214 116.149 79.4215 114.653C81.1347 112.943 83 110.202 83 107.212V56.9364C83 51.5107 78.0791 46.9225 72.3021 46.0379C72.3062 45.2307 72.3144 44.1445 72.3239 42.8787C72.3423 40.4275 72.3658 37.3031 72.3745 34.2291C72.382 31.5631 72.3783 28.9451 72.35 26.8685C72.3359 25.8308 72.3156 24.9226 72.2871 24.2088C72.2598 23.5226 72.223 22.9453 72.1629 22.6174C71.5006 19.0063 69.7789 16.0817 67.2089 14.066C64.6442 12.0544 61.302 11 57.4777 11H36.5223C34.2976 11 32.2553 11.2883 30.5752 11.9561C25.6648 13.9076 21.7006 18.4917 21.7006 24.2352C21.7006 24.8639 21.6869 25.7927 21.6706 26.8934C21.6684 27.0464 21.6661 27.2027 21.6637 27.3619C21.6447 28.662 21.6246 30.1511 21.6206 31.619C21.6165 33.0855 21.6284 34.54 21.6739 35.7701C21.7184 36.9701 21.7969 38.0453 21.9497 38.6999ZM15.2293 105.877V57.8263C15.2293 53.7824 18.9148 50.3729 22.4777 50.3729H71.5222C75.2192 50.3729 78.7707 53.7211 78.7707 58.2712V105.877C78.7707 108.263 77.8798 110.219 76.4232 111.583C74.9609 112.953 72.8736 113.775 70.4076 113.775H23.5924C18.7096 113.775 15.2293 110.482 15.2293 105.877Z" fill="#FDFEFF" stroke="#FDFEFF" stroke-width="2"/>
<path d="M46.3706 73.8804C55.2865 73.8804 52.4157 83.6827 53.6387 86.2798C56.2667 91.8605 51.8942 97.385 47.4623 97.385C44.2172 97.385 41.8993 96.9095 39.9333 93.7189C38.6485 91.6338 38.598 88.5099 39.6484 86.2798C40.7465 83.948 39.4574 80.4714 40.6799 77.7471C41.4796 75.9652 43.7298 73.8804 46.3706 73.8804ZM36 89.1855C36 95.9239 40.4604 100.391 47.1893 100.391C52.5084 100.391 57.2872 95.7636 57.2872 89.1855C57.2872 86.6179 56.1746 86.0282 56.1854 83.1828C56.2019 78.8241 55.8047 75.4816 52.1504 72.7384C49.068 70.4246 44.4704 70.4547 41.2958 72.6246C37.6977 75.0837 37.0614 78.6921 37.0979 82.9058C37.1251 86.0339 36 86.5555 36 89.1855Z" fill="#FDFEFF" stroke="#FDFEFF" stroke-width="2"/>
</g>
</g>
<defs>
<filter id="filter0_d_806_488" x="0" y="0" width="94" height="129" filterUnits="userSpaceOnUse" color-interpolation-filters="sRGB">
<feFlood flood-opacity="0" result="BackgroundImageFix"/>
<feColorMatrix in="SourceAlpha" type="matrix" values="0 0 0 0 0 0 0 0 0 0 0 0 0 0 0 0 0 0 127 0" result="hardAlpha"/>
<feOffset/>
<feGaussianBlur stdDeviation="5"/>
<feComposite in2="hardAlpha" operator="out"/>
<feColorMatrix type="matrix" values="0 0 0 0 0.441667 0 0 0 0 0.441667 0 0 0 0 0.441667 0 0 0 1 0"/>
<feBlend mode="normal" in2="BackgroundImageFix" result="effect1_dropShadow_806_488"/>
<feBlend mode="normal" in="SourceGraphic" in2="effect1_dropShadow_806_488" result="shape"/>
</filter>
<clipPath id="clip0_806_488">
<rect width="94" height="129" fill="white"/>
</clipPath>
</defs>
</svg>
