<svg width="35" height="39" viewBox="0 0 35 39" fill="none" xmlns="http://www.w3.org/2000/svg">
<path fill-rule="evenodd" clip-rule="evenodd" d="M9.62545 10.7916C9.39513 10.7393 6.14342 8.82921 5.63311 8.55105C4.97721 8.1935 2.08382 6.46779 1.65534 6.31764C0.741222 5.99727 -0.101984 6.76574 0.010039 7.68001C0.0543901 8.042 0.214272 8.58448 0.3054 8.97949L2.92804 20.3385C3.13733 21.2342 3.32673 22.0056 3.52449 22.8622C3.73317 23.7662 3.73169 24.5273 4.60482 24.8722C5.1609 25.0918 9.70277 24.9618 10.7249 24.9618L29.4431 24.9618C31.6149 24.9638 31.1071 24.0445 31.9025 21.2133C32.3585 19.5903 32.6916 17.7937 33.0618 16.1883L34.8279 8.54649C35.0412 7.59249 35.2096 6.81004 34.3493 6.38174C33.4859 5.95176 32.6871 6.7291 32.1501 7.08451C31.6129 7.43998 26.8508 10.7008 26.5326 10.7558L22.3047 5.35873C21.2842 4.09778 20.1702 2.56123 19.1352 1.2986C18.6934 0.75968 18.0617 -0.434886 16.9277 0.163908C16.5995 0.337217 16.5411 0.471926 16.3397 0.774042L9.62545 10.7916Z" fill="#D5D5D5"/>
<path fill-rule="evenodd" clip-rule="evenodd" d="M9.62545 10.7916C9.39513 10.7393 6.14342 8.82921 5.63311 8.55105C4.97721 8.1935 2.08382 6.46779 1.65534 6.31764C0.741222 5.99727 -0.101984 6.76574 0.010039 7.68001C0.0543901 8.042 0.214272 8.58448 0.3054 8.97949L2.92804 20.3385C3.13733 21.2342 3.32673 22.0056 3.52449 22.8622C3.73317 23.7662 3.73169 24.5273 4.60482 24.8722C5.1609 25.0918 9.70277 24.9618 10.7249 24.9618L29.4431 24.9618C31.6149 24.9638 31.1071 24.0445 31.9025 21.2133C32.3585 19.5903 32.6916 17.7937 33.0618 16.1883L34.8279 8.54649C35.0412 7.59249 35.2096 6.81004 34.3493 6.38174C33.4859 5.95176 32.6871 6.7291 32.1501 7.08451C31.6129 7.43998 26.8508 10.7008 26.5326 10.7558L22.3047 5.35873C21.2842 4.09778 20.1702 2.56123 19.1352 1.2986C18.6934 0.75968 18.0617 -0.434886 16.9277 0.163908C16.5995 0.337217 16.5411 0.471926 16.3397 0.774042L9.62545 10.7916Z" fill="url(#paint0_linear_478_4028)" fill-opacity="0.5"/>
<path fill-rule="evenodd" clip-rule="evenodd" d="M9.62545 10.7916C9.39513 10.7393 6.14342 8.82921 5.63311 8.55105C4.97721 8.1935 2.08382 6.46779 1.65534 6.31764C0.741222 5.99727 -0.101984 6.76574 0.010039 7.68001C0.0543901 8.042 0.214272 8.58448 0.3054 8.97949L2.92804 20.3385C3.13733 21.2342 3.32673 22.0056 3.52449 22.8622C3.73317 23.7662 3.73169 24.5273 4.60482 24.8722C5.1609 25.0918 9.70277 24.9618 10.7249 24.9618L29.4431 24.9618C31.6149 24.9638 31.1071 24.0445 31.9025 21.2133C32.3585 19.5903 32.6916 17.7937 33.0618 16.1883L34.8279 8.54649C35.0412 7.59249 35.2096 6.81004 34.3493 6.38174C33.4859 5.95176 32.6871 6.7291 32.1501 7.08451C31.6129 7.43998 26.8508 10.7008 26.5326 10.7558L22.3047 5.35873C21.2842 4.09778 20.1702 2.56123 19.1352 1.2986C18.6934 0.75968 18.0617 -0.434886 16.9277 0.163908C16.5995 0.337217 16.5411 0.471926 16.3397 0.774042L9.62545 10.7916Z" fill="url(#paint1_linear_478_4028)" fill-opacity="0.2"/>
<path d="M0.949 39V29.718H8.086V39H5.72V31.551H3.315V39H0.949Z" fill="#D5D5D5"/>
<path d="M0.949 39V29.718H8.086V39H5.72V31.551H3.315V39H0.949Z" fill="url(#paint2_linear_478_4028)" fill-opacity="0.2"/>
<path d="M13.1341 29.718C14.2347 29.718 15.0624 29.978 15.6171 30.498C16.1717 31.0093 16.4491 31.7243 16.4491 32.643C16.4491 33.059 16.3927 33.462 16.2801 33.852C16.1674 34.2333 15.9811 34.567 15.7211 34.853C15.4611 35.139 15.1187 35.3687 14.6941 35.542C14.2694 35.7153 13.7494 35.802 13.1341 35.802H12.4711V39H10.1181V29.718H13.1341ZM13.0951 31.525H12.4711V33.995H12.9391C13.2511 33.995 13.5197 33.8997 13.7451 33.709C13.9791 33.5097 14.0961 33.176 14.0961 32.708C14.1047 31.928 13.7711 31.5337 13.0951 31.525Z" fill="#D5D5D5"/>
<path d="M13.1341 29.718C14.2347 29.718 15.0624 29.978 15.6171 30.498C16.1717 31.0093 16.4491 31.7243 16.4491 32.643C16.4491 33.059 16.3927 33.462 16.2801 33.852C16.1674 34.2333 15.9811 34.567 15.7211 34.853C15.4611 35.139 15.1187 35.3687 14.6941 35.542C14.2694 35.7153 13.7494 35.802 13.1341 35.802H12.4711V39H10.1181V29.718H13.1341ZM13.0951 31.525H12.4711V33.995H12.9391C13.2511 33.995 13.5197 33.8997 13.7451 33.709C13.9791 33.5097 14.0961 33.176 14.0961 32.708C14.1047 31.928 13.7711 31.5337 13.0951 31.525Z" fill="url(#paint3_linear_478_4028)" fill-opacity="0.2"/>
<path d="M23.1535 39H17.9795V29.718H23.1535V31.512H20.3325V33.293H22.9455V35.087H20.3325V37.18H23.1535V39Z" fill="#D5D5D5"/>
<path d="M23.1535 39H17.9795V29.718H23.1535V31.512H20.3325V33.293H22.9455V35.087H20.3325V37.18H23.1535V39Z" fill="url(#paint4_linear_478_4028)" fill-opacity="0.2"/>
<path d="M28.6476 39L26.8276 31.941H26.7756C26.793 32.201 26.819 32.6213 26.8536 33.202C26.8883 33.774 26.9056 34.294 26.9056 34.762V39H24.8126V29.718H28.1016L29.7656 36.179H29.8046L31.4556 29.718H34.7446V39H32.5736V34.697C32.5736 34.489 32.5736 34.255 32.5736 33.995C32.5823 33.7263 32.5866 33.462 32.5866 33.202C32.5953 32.942 32.604 32.7037 32.6126 32.487C32.63 32.2617 32.6473 32.084 32.6646 31.954H32.6126L30.8316 39H28.6476Z" fill="#D5D5D5"/>
<path d="M28.6476 39L26.8276 31.941H26.7756C26.793 32.201 26.819 32.6213 26.8536 33.202C26.8883 33.774 26.9056 34.294 26.9056 34.762V39H24.8126V29.718H28.1016L29.7656 36.179H29.8046L31.4556 29.718H34.7446V39H32.5736V34.697C32.5736 34.489 32.5736 34.255 32.5736 33.995C32.5823 33.7263 32.5866 33.462 32.5866 33.202C32.5953 32.942 32.604 32.7037 32.6126 32.487C32.63 32.2617 32.6473 32.084 32.6646 31.954H32.6126L30.8316 39H28.6476Z" fill="url(#paint5_linear_478_4028)" fill-opacity="0.2"/>
<defs>
<linearGradient id="paint0_linear_478_4028" x1="-1.95757e-07" y1="2.88889" x2="27.7355" y2="27.4342" gradientUnits="userSpaceOnUse">
<stop stop-color="white"/>
<stop offset="1" stop-color="#D2876F" stop-opacity="0"/>
</linearGradient>
<linearGradient id="paint1_linear_478_4028" x1="35" y1="65.7222" x2="13.3176" y2="40.6001" gradientUnits="userSpaceOnUse">
<stop stop-color="white"/>
<stop offset="1" stop-color="#D2876F" stop-opacity="0"/>
</linearGradient>
<linearGradient id="paint2_linear_478_4028" x1="36" y1="43" x2="20.8027" y2="27.7174" gradientUnits="userSpaceOnUse">
<stop stop-color="white"/>
<stop offset="1" stop-color="#D2876F" stop-opacity="0"/>
</linearGradient>
<linearGradient id="paint3_linear_478_4028" x1="36" y1="43" x2="20.8027" y2="27.7174" gradientUnits="userSpaceOnUse">
<stop stop-color="white"/>
<stop offset="1" stop-color="#D2876F" stop-opacity="0"/>
</linearGradient>
<linearGradient id="paint4_linear_478_4028" x1="36" y1="43" x2="20.8027" y2="27.7174" gradientUnits="userSpaceOnUse">
<stop stop-color="white"/>
<stop offset="1" stop-color="#D2876F" stop-opacity="0"/>
</linearGradient>
<linearGradient id="paint5_linear_478_4028" x1="36" y1="43" x2="20.8027" y2="27.7174" gradientUnits="userSpaceOnUse">
<stop stop-color="white"/>
<stop offset="1" stop-color="#D2876F" stop-opacity="0"/>
</linearGradient>
</defs>
</svg>
