<svg width="50" height="51" viewBox="0 0 50 51" fill="none" xmlns="http://www.w3.org/2000/svg">
<g>
<path fill-rule="evenodd" clip-rule="evenodd" d="M15.9442 23.4208C15.7773 25.239 16.4213 28.0791 14.896 27.4083C14.2922 27.1428 14.5017 25.9486 14.5017 25.2578C14.5017 24.4101 14.5018 23.5625 14.5016 22.7149C14.5015 21.9611 14.3176 20.7987 15.3036 20.9231C15.9553 21.0053 18.0176 24.2197 18.834 25.0117C18.896 23.0691 18.4179 20.4331 19.8551 20.9652C20.4809 21.1969 20.2681 22.4341 20.2681 23.125C20.2681 23.9727 20.2679 24.8203 20.2681 25.668C20.2682 26.4317 20.4593 27.6314 19.443 27.4577C18.9952 27.3811 18.4187 26.507 18.1676 26.1836C17.7934 25.7017 17.4129 25.2313 17.0405 24.7681L15.9442 23.4208ZM33.2039 25.3611C33.6509 24.5758 33.7703 21.4675 34.3317 21.0521C34.6542 20.8134 35.1356 20.9119 35.3377 21.1567C35.6879 21.5808 35.022 23.5621 34.8319 24.3454C34.5904 25.3402 34.3692 27.0911 33.7644 27.3766C31.962 28.2276 31.9151 24.3776 31.2353 23.3706C30.8736 24.3755 30.2778 26.9597 29.7609 27.3132C29.2878 27.6368 28.473 27.6429 28.1935 26.4964L27.1485 22.2086C27.0494 21.8337 26.9278 21.3885 27.1686 21.1095C27.3643 20.8826 27.8876 20.8562 28.1582 21.0325C28.5273 21.2728 29.0931 24.5665 29.2249 25.2965C29.5062 24.9755 29.8446 23.6113 30.0677 22.8618C30.4049 21.7285 30.4839 20.8706 31.3118 20.915C32.0766 20.9561 32.2646 22.3026 32.4644 22.9632C32.7035 23.7535 32.9946 24.5879 33.2039 25.3611ZM22.0166 21.9765C22.0166 21.2105 22.1711 20.9582 22.9492 20.9582C24.0692 20.9582 26.338 20.6621 25.6783 21.9025C25.4271 22.3749 24.3442 22.2125 23.4414 22.2125V23.5397C24.1683 23.5397 25.3798 23.3974 25.6068 23.8379C26.2448 25.0761 23.8652 24.7939 23.462 24.7934L23.4312 26.1703C24.5675 26.1703 25.8035 25.9508 25.8571 26.7349C25.8947 27.2844 25.5097 27.4246 25.0205 27.4246C22.7635 27.4246 22.0166 27.7172 22.0166 26.4883V21.9765ZM20.8984 8.19529C20.6395 8.05829 20.3941 7.98598 20.1051 7.84021C18.7934 7.17857 17.3959 6.69648 16.0856 6.03555C15.9522 5.9683 14.6065 5.30056 14.5 5.40623C14.3371 5.56804 14.0152 9.79096 13.9396 10.506L13.7617 12.2969C12.7168 12.3202 11.435 12.5096 10.3398 12.6484C9.8669 12.7083 7.09568 12.9274 6.87107 13.0352C6.80692 13.1714 6.83352 12.9833 6.86497 13.1559C6.8906 13.2961 6.88587 13.2483 6.93337 13.3709C7.00601 13.5585 7.04127 13.6244 7.11625 13.7743C7.89858 15.3394 8.53861 17.0042 9.27758 18.5857C9.41436 18.8785 9.52482 19.1778 9.66014 19.4336C8.69521 20.0798 7.81723 20.7773 6.83815 21.4514C6.4564 21.7142 4.42539 23.3395 4 23.4531V23.6172C4.27086 23.6895 4.46957 23.8932 4.70365 24.062C6.34878 25.2476 7.98568 26.5154 9.66014 27.6367L8.94882 29.2223C8.66888 29.7773 8.49095 30.3071 8.21057 30.8629C7.94064 31.398 7.76168 31.9041 7.4999 32.4491C7.4339 32.5865 6.7641 33.9274 6.87107 34.0352C6.8789 34.043 12.7902 34.7518 13.7617 34.7734L13.9329 36.489C13.9925 37.2007 14.352 41.5171 14.5 41.6641C14.6073 41.7707 15.8742 41.1423 16.0316 41.0629C16.5875 40.7825 17.1172 40.6046 17.6723 40.3246C18.7337 39.7892 19.8518 39.4288 20.8984 38.875C21.5446 39.8399 22.2422 40.7179 22.9163 41.697L24.4385 43.7842C24.622 44.0336 24.8405 44.2449 24.9179 44.5352H25.0821C25.2013 44.0884 25.7895 43.5073 26.0502 43.1244C27.027 41.6897 28.1444 40.3043 29.1016 38.875L35.3316 41.6606C35.5315 41.7072 35.3605 41.7298 35.5 41.6641C35.6642 41.501 36.0741 36.5666 36.1492 35.6687C36.179 35.312 36.2321 35.0507 36.2383 34.7734C37.2695 34.7505 43.034 34.1307 43.1289 34.0352C43.2388 33.9245 42.6045 32.6696 42.5271 32.5041C41.8508 31.0565 41.0504 28.9796 40.3399 27.6367C41.9929 26.5298 43.6363 25.2826 45.249 24.0966C45.4985 23.9132 45.7098 23.6947 46 23.6172V23.4531C45.7227 23.379 45.8605 23.4056 45.6345 23.2444C45.4886 23.1405 45.4412 23.1128 45.2963 23.0083C45.0291 22.8158 44.8559 22.6665 44.5892 22.485C43.1545 21.5082 41.7691 20.3907 40.3399 19.4336C40.4725 19.1828 40.5583 18.9261 40.6954 18.6407C41.0086 17.9886 43.0207 13.6536 43.1255 13.2036C43.172 13.0036 43.1947 13.1747 43.1289 13.0352C42.9553 12.8604 38.7583 12.5519 38.0291 12.4748C37.6865 12.4386 37.4037 12.4086 37.1335 12.386C36.7768 12.3562 36.5156 12.303 36.2383 12.2969C36.2315 11.9927 36.1786 11.8551 36.1534 11.4795C36.1313 11.1504 36.0994 10.9672 36.0671 10.5813C36.0075 9.86959 35.648 5.55319 35.5 5.40623C35.4351 5.3418 35.2779 5.42451 35.1643 5.46853L29.1016 8.19529C28.1558 6.78294 27.0484 5.41286 26.0827 3.99545C25.8995 3.72666 25.7492 3.54139 25.5615 3.28614C25.4706 3.16246 25.4088 3.06436 25.3257 2.94776C25.1729 2.73343 25.1537 2.80368 25.0821 2.53516H24.9179C24.8019 2.96979 23.1834 4.9853 22.9163 5.37331C22.2422 6.35239 21.5446 7.23036 20.8984 8.19529Z" fill="#34B5D1"/>
<path fill-rule="evenodd" clip-rule="evenodd" d="M31.2342 23.3703C31.9141 24.3773 31.9609 28.2273 33.7633 27.3764C34.3681 27.0908 34.5894 25.3399 34.8308 24.3452C35.021 23.5618 35.6868 21.5805 35.3367 21.1564C35.1345 20.9116 34.6531 20.8132 34.3306 21.0518C33.7693 21.4672 33.6498 24.5755 33.2028 25.3608C32.9935 24.5876 32.7024 23.7532 32.4634 22.9629C32.2635 22.3023 32.0756 20.9558 31.3108 20.9147C30.4828 20.8703 30.4038 21.7282 30.0666 22.8615C29.8436 23.611 29.5051 24.9752 29.2238 25.2962C29.092 24.5662 28.5262 21.2725 28.1571 21.0322C27.8865 20.8559 27.3633 20.8823 27.1675 21.1092C26.9268 21.3882 27.0483 21.8334 27.1475 22.2083L28.1924 26.4961C28.4719 27.6426 29.2867 27.6365 29.7598 27.3129C30.2767 26.9594 30.8725 24.3752 31.2342 23.3703Z" fill="#FDFEFE"/>
<path fill-rule="evenodd" clip-rule="evenodd" d="M15.9445 23.4206L17.0408 24.7679C17.4132 25.2311 17.7937 25.7015 18.1679 26.1834C18.419 26.5068 18.9955 27.3809 19.4433 27.4575C20.4596 27.6312 20.2685 26.4316 20.2683 25.6678C20.2682 24.8201 20.2683 23.9725 20.2683 23.1248C20.2683 22.4339 20.4812 21.1967 19.8554 20.965C18.4182 20.4329 18.8963 23.0689 18.8343 25.0115C18.0178 24.2195 15.9555 21.0051 15.3039 20.9229C14.3179 20.7985 14.5018 21.961 14.5019 22.7147C14.5021 23.5623 14.5019 24.41 14.5019 25.2576C14.5019 25.9484 14.2925 27.1426 14.8963 27.4081C16.4216 28.0789 15.7776 25.2388 15.9445 23.4206Z" fill="#FDFEFE"/>
<path fill-rule="evenodd" clip-rule="evenodd" d="M22.0156 21.977V26.4887C22.0156 27.7176 22.7625 27.425 25.0196 27.425C25.5087 27.425 25.8938 27.2848 25.8562 26.7353C25.8026 25.9512 24.5665 26.1707 23.4302 26.1707L23.4611 24.7938C23.8643 24.7943 26.2438 25.0765 25.6058 23.8383C25.3789 23.3979 24.1674 23.5402 23.4404 23.5402V22.2129C24.3432 22.2129 25.4261 22.3754 25.6773 21.9029C26.337 20.6625 24.0682 20.9587 22.9483 20.9587C22.1702 20.9587 22.0156 21.2109 22.0156 21.977Z" fill="#FDFEFE"/>
</g>
</svg>
