<svg width="329" height="160" viewBox="0 0 329 160" fill="none" xmlns="http://www.w3.org/2000/svg">
<path fill-rule="evenodd" clip-rule="evenodd" d="M1.25 152.063C1.25 150.929 1.45633 150.166 1.85691 149.201C2.1269 148.55 2.55314 147.97 3.02383 147.461C3.10569 147.373 3.13469 147.317 3.22601 147.226C4.05849 146.394 5.29172 145.671 6.43489 145.435C8.07213 145.097 9.24354 145.211 10.7993 145.857C11.679 146.222 12.5313 146.937 13.1639 147.649L13.8545 148.645C13.9578 148.836 14.056 148.991 14.1431 149.201C14.7735 150.719 14.9102 151.933 14.5703 153.539C14.3289 154.68 13.7534 155.699 12.9762 156.539C12.8943 156.627 12.8653 156.683 12.774 156.774L11.3545 157.855C10.785 158.164 10.2306 158.428 9.56511 158.565C7.78755 158.932 6.26854 158.759 4.66588 157.865C4.48582 157.765 4.3059 157.661 4.14711 157.54C3.6916 157.196 3.85271 157.338 3.46133 156.976C3.02684 156.574 2.61918 156.143 2.31101 155.626C1.92095 154.973 1.59609 154.346 1.43489 153.565C1.33881 153.1 1.25 152.636 1.25 152.063ZM7.65383 144H8.23415C8.92004 144.026 9.61317 144.144 10.3438 144.344C10.4711 144.379 10.5682 144.411 10.6996 144.457C11.4976 144.735 12.2237 145.167 12.8926 145.67C13.484 146.115 14.1492 146.803 14.556 147.413L14.7562 147.713C14.931 147.985 15.1461 148.343 15.2681 148.638C15.3679 148.88 15.4643 149.068 15.5511 149.324C15.8252 150.13 15.9707 150.893 16 151.654V152.234C15.9739 152.92 15.8565 153.613 15.6563 154.344C15.4511 155.093 15.1251 155.682 14.7322 156.326C14.5524 156.621 14.3337 156.888 14.1206 157.152C14.0271 157.268 13.9805 157.308 13.8824 157.414C13.796 157.507 13.7614 157.567 13.6643 157.664C13.5635 157.765 13.4935 157.805 13.3978 157.898C13.0205 158.262 12.4664 158.668 11.9984 158.936C11.6036 159.162 11.1136 159.402 10.6761 159.551C10.4425 159.631 10.1569 159.726 9.92985 159.774C8.95982 159.975 8.79611 160 7.78125 160C5.8841 160 3.9726 159.167 2.58633 157.882C2.493 157.796 2.43268 157.761 2.33566 157.664C1.9197 157.248 1.36865 156.531 1.06406 155.998C0.720337 155.398 0.368362 154.612 0.226398 153.93C0.0246017 152.96 0 152.796 0 151.781C0 151.123 0.112844 150.596 0.231712 150.044C0.413413 149.201 0.824313 148.401 1.26783 147.674C1.34117 147.554 1.38174 147.507 1.45636 147.394C1.53885 147.269 1.58353 147.222 1.66993 147.107C1.74939 147.002 1.80327 146.942 1.87937 146.848L2.33566 146.336C3.12227 145.549 4.27292 144.806 5.32389 144.449C6.12983 144.175 6.89261 144.029 7.65383 144Z" fill="#6A6A6A"/>
<path fill-rule="evenodd" clip-rule="evenodd" d="M7.375 148.313V152.063C7.375 152.438 7.75237 152.65 7.98662 152.826C8.26012 153.031 8.5006 153.211 8.77235 153.415L9.95086 154.299C10.1531 154.451 10.2111 154.531 10.5 154.531C10.7988 154.531 11.0937 154.266 11.0937 153.969C11.0937 153.541 10.982 153.502 10.5804 153.201L9.29462 152.237C9.17693 152.148 9.08636 152.08 8.97325 151.995C8.8562 151.908 8.75252 151.817 8.62499 151.75C8.62499 150.99 8.62499 150.229 8.62499 149.469C8.62499 148.569 8.82636 147.719 7.9375 147.719C7.63982 147.719 7.375 148.014 7.375 148.313Z" fill="#6A6A6A"/>
<path d="M304.074 148L310 153.385M310 153.385L304.074 158M310 153.385H290" stroke="#9E9E9E" stroke-opacity="0.2" stroke-width="2" stroke-linecap="round" stroke-linejoin="round"/>
<path fill-rule="evenodd" clip-rule="evenodd" d="M63 159.281V159.594C63 159.785 63.2137 160 63.4044 160H76.5955C76.7863 160 77 159.785 77 159.594C77 157.841 76.3779 156.385 75.2352 155.179L74.4433 154.506C72.462 153.16 71.1959 153.375 68.8489 153.375C67.7348 153.375 66.8518 153.751 66.0283 154.198C65.6286 154.415 65.3074 154.691 64.9837 154.993C64.9029 155.068 64.857 155.08 64.7801 155.163C64.2943 155.685 63.9026 156.254 63.5805 156.896C63.2998 157.455 63 158.456 63 159.281Z" fill="#6A6A6A" fill-opacity="0.75"/>
<path fill-rule="evenodd" clip-rule="evenodd" d="M65.8008 148C65.8008 148.918 65.9165 149.603 66.3734 150.362C66.6276 150.785 66.6879 150.792 66.9076 151.076C67.1198 151.35 67.5686 151.681 67.8668 151.862C69.3032 152.734 71.0394 152.6 72.434 151.663C72.5352 151.595 72.6286 151.529 72.7152 151.445C72.8139 151.351 72.8822 151.31 72.9802 151.212C73.0782 151.113 73.1188 151.044 73.213 150.945C73.7417 150.39 74.2008 149.213 74.2008 148.438C74.2008 147.281 74.0236 146.667 73.4295 145.775C73.3618 145.673 73.2959 145.579 73.213 145.492C72.8279 145.087 72.664 144.889 72.1345 144.576C71.5544 144.232 70.8794 144.035 70.1973 144H69.759C69.2158 144.028 68.6801 144.161 68.1962 144.406C68.0889 144.461 67.9759 144.509 67.8668 144.575C67.6151 144.728 67.2213 145.02 67.021 145.226C66.6637 145.593 66.4344 145.95 66.2051 146.406C66.0175 146.779 65.8008 147.442 65.8008 148Z" fill="#6A6A6A" fill-opacity="0.75"/>
<rect x="245" y="6" width="65" height="65" fill="#F0CEC3"/>
<path d="M298.018 10.5419C297.2 9.04082 297 8.08343 297 6.36088C297 5.9039 297.104 5.38004 297.19 4.97533C297.283 4.53498 297.416 4.19262 297.565 3.8226C297.948 2.86532 298.206 2.64597 298.737 1.94867C299.048 1.53958 299.967 0.87607 300.452 0.628617C301.424 0.132485 302.216 0 303.359 0C304.522 0 305.907 0.595854 306.655 1.24124C306.941 1.48773 307.874 2.35959 307.957 2.67595H308.043C308.086 2.51234 308.314 2.28187 308.423 2.143C308.547 1.98571 308.724 1.82809 308.87 1.67794C309.031 1.51344 309.169 1.39252 309.345 1.24124C310.096 0.592652 311.482 0 312.641 0C313.815 0 314.577 0.135111 315.577 0.643196C315.788 0.750268 315.874 0.820847 316.064 0.935193C317.103 1.55877 317.988 2.71001 318.448 3.85408C318.943 5.08888 319 5.80368 319 7.10664C319 9.14259 317.762 11.092 316.538 12.5772C316.172 13.0214 315.692 13.4886 315.294 13.8953L314.541 14.6182C314.468 14.6919 314.424 14.7465 314.349 14.817C314.256 14.9047 314.226 14.9097 314.134 14.9923L313.167 15.8909C313.081 15.9685 313.06 15.9675 312.974 16.0452L309.792 18.8502C309.514 19.0904 309.281 19.295 309.002 19.5349C308.852 19.6638 308.777 19.7594 308.578 19.8487C308.13 20.0503 307.83 20.0567 307.397 19.8299C307.131 19.69 306.051 18.7089 305.776 18.4583C305.684 18.3753 305.655 18.3706 305.562 18.282C304.894 17.6483 303.883 16.8384 303.177 16.1979C303.107 16.1338 303.077 16.0885 303.003 16.0249C302.908 15.9437 302.885 15.9428 302.789 15.8482C302.721 15.7809 302.689 15.7363 302.616 15.6739L302.23 15.3229C301.952 15.0853 301.714 14.8762 301.459 14.6182C301.317 14.4743 301.2 14.4015 301.05 14.2463C299.925 13.0871 298.815 12.0042 298.018 10.5419Z" fill="#D2876F"/>
<rect x="1" y="4" width="202" height="15" rx="2" fill="#6A6A6A" fill-opacity="0.75"/>
<rect x="1" y="29" width="136" height="15" rx="2" fill="#6A6A6A" fill-opacity="0.75"/>
<rect y="90" width="69" height="10" rx="2" fill="#B6B6B6"/>
<rect x="265" y="90" width="45" height="10" rx="2" fill="#B6B6B6"/>
<rect y="114" width="85" height="12" rx="2" fill="#F0CEC3"/>
<path fill-rule="evenodd" clip-rule="evenodd" d="M298.944 64.8856C298.777 66.7038 299.421 69.5439 297.896 68.8732C297.292 68.6076 297.502 67.4135 297.502 66.7227C297.502 65.875 297.502 65.0274 297.502 64.1797C297.501 63.426 297.318 62.2635 298.304 62.3879C298.955 62.4701 301.018 65.6845 301.834 66.4766C301.896 64.534 301.418 61.898 302.855 62.43C303.481 62.6617 303.268 63.8989 303.268 64.5898C303.268 65.4375 303.268 66.2851 303.268 67.1328C303.268 67.8966 303.459 69.0962 302.443 68.9225C301.995 68.846 301.419 67.9718 301.168 67.6484C300.793 67.1665 300.413 66.6962 300.04 66.233L298.944 64.8856ZM316.204 66.826C316.651 66.0406 316.77 62.9323 317.332 62.5169C317.654 62.2783 318.136 62.3768 318.338 62.6216C318.688 63.0457 318.022 65.0269 317.832 65.8103C317.59 66.805 317.369 68.5559 316.764 68.8415C314.962 69.6924 314.915 65.8424 314.235 64.8355C313.874 65.8404 313.278 68.4245 312.761 68.778C312.288 69.1016 311.473 69.1078 311.194 67.9612L310.149 63.6734C310.049 63.2985 309.928 62.8533 310.169 62.5743C310.364 62.3474 310.888 62.3211 311.158 62.4973C311.527 62.7376 312.093 66.0313 312.225 66.7613C312.506 66.4403 312.845 65.0761 313.068 64.3267C313.405 63.1934 313.484 62.3355 314.312 62.3799C315.077 62.4209 315.265 63.7675 315.464 64.4281C315.704 65.2184 315.995 66.0527 316.204 66.826ZM305.017 63.4414C305.017 62.6753 305.171 62.4231 305.949 62.4231C307.069 62.4231 309.338 62.1269 308.678 63.3673C308.427 63.8398 307.344 63.6773 306.441 63.6773V65.0046C307.168 65.0046 308.38 64.8623 308.607 65.3027C309.245 66.5409 306.865 66.2588 306.462 66.2583L306.431 67.6351C307.567 67.6351 308.804 67.4156 308.857 68.1997C308.895 68.7492 308.51 68.8894 308.021 68.8894C305.763 68.8894 305.017 69.1821 305.017 67.9531V63.4414ZM303.898 49.6601C303.639 49.5231 303.394 49.4508 303.105 49.3051C301.793 48.6434 300.396 48.1613 299.086 47.5004C298.952 47.4331 297.606 46.7654 297.5 46.8711C297.337 47.0329 297.015 51.2558 296.94 51.9709L296.762 53.7617C295.717 53.785 294.435 53.9744 293.34 54.1132C292.867 54.1732 290.096 54.3922 289.871 54.5C289.807 54.6362 289.834 54.4482 289.865 54.6207C289.891 54.761 289.886 54.7132 289.933 54.8357C290.006 55.0234 290.041 55.0892 290.116 55.2392C290.899 56.8042 291.539 58.469 292.278 60.0506C292.414 60.3434 292.525 60.6426 292.66 60.8984C291.695 61.5446 290.817 62.2422 289.838 62.9163C289.456 63.1791 287.425 64.8044 287 64.9179V65.0821C287.271 65.1544 287.47 65.3581 287.704 65.5268C289.349 66.7125 290.986 67.9803 292.66 69.1016L291.949 70.6871C291.669 71.2422 291.491 71.7719 291.211 72.3277C290.941 72.8629 290.762 73.369 290.5 73.914C290.434 74.0514 289.764 75.3923 289.871 75.5C289.879 75.5079 295.79 76.2166 296.762 76.2383L296.933 77.9538C296.992 78.6656 297.352 82.982 297.5 83.1289C297.607 83.2355 298.874 82.6071 299.032 82.5277C299.587 82.2474 300.117 82.0694 300.672 81.7894C301.734 81.254 302.852 80.8937 303.898 80.3399C304.545 81.3048 305.242 82.1828 305.916 83.1618L307.439 85.249C307.622 85.4985 307.84 85.7098 307.918 86H308.082C308.201 85.5532 308.789 84.9722 309.05 84.5892C310.027 83.1545 311.144 81.7691 312.102 80.3399L318.332 83.1254C318.532 83.172 318.36 83.1947 318.5 83.1289C318.664 82.9659 319.074 78.0314 319.149 77.1335C319.179 76.7768 319.232 76.5156 319.238 76.2383C320.27 76.2153 326.034 75.5956 326.129 75.5C326.239 75.3893 325.604 74.1345 325.527 73.9689C324.851 72.5214 324.05 70.4444 323.34 69.1016C324.993 67.9946 326.636 66.7474 328.249 65.5615C328.498 65.3781 328.71 65.1595 329 65.0821V64.9179C328.723 64.8439 328.86 64.8704 328.634 64.7093C328.489 64.6053 328.441 64.5776 328.296 64.4732C328.029 64.2806 327.856 64.1314 327.589 63.9498C326.155 62.973 324.769 61.8556 323.34 60.8984C323.473 60.6477 323.558 60.391 323.695 60.1055C324.009 59.4534 326.021 55.1184 326.125 54.6684C326.172 54.4685 326.195 54.6395 326.129 54.5C325.955 54.3252 321.758 54.0167 321.029 53.9396C320.686 53.9034 320.404 53.8734 320.134 53.8508C319.777 53.821 319.516 53.7679 319.238 53.7617C319.232 53.4576 319.179 53.32 319.153 52.9443C319.131 52.6152 319.099 52.432 319.067 52.0462C319.008 51.3344 318.648 47.018 318.5 46.8711C318.435 46.8066 318.278 46.8894 318.164 46.9334L312.102 49.6601C311.156 48.2478 310.048 46.8777 309.083 45.4603C308.899 45.1915 308.749 45.0062 308.561 44.751C308.471 44.6273 308.409 44.5292 308.326 44.4126C308.173 44.1983 308.154 44.2685 308.082 44H307.918C307.802 44.4346 306.183 46.4501 305.916 46.8382C305.242 47.8172 304.545 48.6952 303.898 49.6601Z" fill="#34B5D1"/>
<path fill-rule="evenodd" clip-rule="evenodd" d="M314.234 64.8352C314.914 65.8421 314.961 69.6921 316.763 68.8412C317.368 68.5556 317.589 66.8047 317.831 65.81C318.021 65.0266 318.687 63.0454 318.337 62.6213C318.135 62.3765 317.653 62.278 317.331 62.5166C316.769 62.932 316.65 66.0403 316.203 66.8257C315.994 66.0525 315.702 65.2181 315.463 64.4278C315.264 63.7672 315.076 62.4206 314.311 62.3796C313.483 62.3352 313.404 63.1931 313.067 64.3264C312.844 65.0758 312.505 66.44 312.224 66.761C312.092 66.031 311.526 62.7373 311.157 62.497C310.886 62.3208 310.363 62.3471 310.168 62.574C309.927 62.853 310.048 63.2982 310.147 63.6731L311.192 67.9609C311.472 69.1075 312.287 69.1013 312.76 68.7777C313.277 68.4242 313.873 65.8401 314.234 64.8352Z" fill="#FDFEFE"/>
<path fill-rule="evenodd" clip-rule="evenodd" d="M298.945 64.8854L300.041 66.2328C300.413 66.696 300.794 67.1663 301.168 67.6482C301.419 67.9717 301.996 68.8458 302.443 68.9223C303.46 69.0961 303.269 67.8964 303.268 67.1326C303.268 66.285 303.268 65.4373 303.268 64.5897C303.268 63.8987 303.481 62.6615 302.855 62.4299C301.418 61.8978 301.896 64.5338 301.834 66.4764C301.018 65.6843 298.956 62.47 298.304 62.3877C297.318 62.2634 297.502 63.4258 297.502 64.1795C297.502 65.0272 297.502 65.8748 297.502 66.7225C297.502 67.4133 297.292 68.6075 297.896 68.873C299.422 69.5438 298.778 66.7036 298.945 64.8854Z" fill="#FDFEFE"/>
<path fill-rule="evenodd" clip-rule="evenodd" d="M305.016 63.4418V67.9536C305.016 69.1825 305.763 68.8899 308.02 68.8899C308.509 68.8899 308.894 68.7496 308.856 68.2001C308.803 67.4161 307.567 67.6356 306.43 67.6356L306.461 66.2587C306.864 66.2592 309.244 66.5414 308.606 65.3032C308.379 64.8627 307.167 65.005 306.44 65.005V63.6777C307.343 63.6777 308.426 63.8402 308.677 63.3678C309.337 62.1274 307.068 62.4235 305.948 62.4235C305.17 62.4235 305.016 62.6758 305.016 63.4418Z" fill="#FDFEFE"/>
</svg>
