<svg width="22" height="20" viewBox="0 0 22 20" fill="none" xmlns="http://www.w3.org/2000/svg">
<path d="M1.01797 10.5419C0.199935 9.04082 0 8.08343 0 6.36088C0 5.9039 0.103857 5.38004 0.18972 4.97533C0.283133 4.53498 0.416372 4.19262 0.564531 3.8226C0.947821 2.86532 1.20638 2.64597 1.73684 1.94867C2.04805 1.53958 2.96678 0.87607 3.45165 0.628617C4.42385 0.132485 5.21621 0 6.35938 0C7.52172 0 8.90727 0.595854 9.65529 1.24124C9.94098 1.48773 10.8743 2.35959 10.957 2.67595H11.043C11.0858 2.51234 11.3144 2.28187 11.4233 2.143C11.5466 1.98571 11.7235 1.82809 11.8701 1.67794C12.0307 1.51344 12.1694 1.39252 12.3447 1.24124C13.0964 0.592652 14.4824 0 15.6406 0C16.8147 0 17.5767 0.135111 18.577 0.643196C18.7878 0.750268 18.874 0.820847 19.0644 0.935193C20.1029 1.55877 20.9883 2.71001 21.4476 3.85408C21.9434 5.08888 22 5.80368 22 7.10664C22 9.14259 20.7616 11.092 19.5381 12.5772C19.1721 13.0214 18.6923 13.4886 18.2939 13.8953L17.5412 14.6182C17.4683 14.6919 17.4239 14.7465 17.3492 14.817C17.2563 14.9047 17.2257 14.9097 17.1341 14.9923L16.1667 15.8909C16.0806 15.9685 16.0598 15.9675 15.9741 16.0452L12.7918 18.8502C12.5136 19.0904 12.2809 19.295 12.0016 19.5349C11.8515 19.6638 11.777 19.7594 11.5784 19.8487C11.1299 20.0503 10.8295 20.0567 10.397 19.8299C10.1305 19.69 9.05124 18.7089 8.77566 18.4583C8.68445 18.3753 8.65497 18.3706 8.56161 18.282C7.89393 17.6483 6.88309 16.8384 6.17718 16.1979C6.10656 16.1338 6.07702 16.0885 6.00291 16.0249C5.9083 15.9437 5.8847 15.9428 5.78926 15.8482C5.72136 15.7809 5.68922 15.7363 5.61623 15.6739L5.22951 15.3229C4.95157 15.0853 4.71383 14.8762 4.45885 14.6182C4.31658 14.4743 4.2004 14.4015 4.04971 14.2463C2.92452 13.0871 1.81482 12.0042 1.01797 10.5419Z" fill="#F0CEC3" fill-opacity="0.27"/>
</svg>
