<svg width="50" height="50" viewBox="0 0 50 50" fill="none" xmlns="http://www.w3.org/2000/svg">
<g filter="url(#filter0_d_1203_5254)">
<path fill-rule="evenodd" clip-rule="evenodd" d="M26.9689 5.66019L31.1728 9.8235C30.4688 9.8438 29.7842 9.84055 29.1006 9.84489C26.5251 9.86123 26.9689 8.00812 26.9689 5.66019ZM4 4.51174V37.4885C4 38.8544 4.92962 40.2501 6.00191 41.0647C6.61893 41.5334 7.69335 42.0002 8.51174 42.0002H16.3868C18.3012 42.0002 18.737 38.6992 16.0607 38.7169C14.3038 38.7286 10.5594 38.7903 9.00235 38.7205C7.98313 38.6748 7.28127 37.9767 7.28127 36.9143V5.08595C7.28127 4.01032 8.01032 3.28127 9.08595 3.28127H23.6876V8.61333C23.6876 9.97921 24.6172 11.375 25.6895 12.1896C25.8916 12.3431 26.1847 12.5359 26.3943 12.6332C26.7924 12.8179 27.6347 13.1251 28.1993 13.1251H33.5314V14.3555C33.5314 16.3933 36.8127 16.3933 36.8127 14.3555C36.8127 10.0703 37.2911 11.2656 34.2902 8.2647L27.2355 1.20995C26.8709 0.845334 26.1963 0 25.5743 0H8.51174C7.14254 0 5.76166 0.909225 4.93632 2.00274C4.45046 2.64652 4 3.68256 4 4.51174Z" fill="#D2876F"/>
<path fill-rule="evenodd" clip-rule="evenodd" d="M25.082 38.2266C25.341 37.1151 25.4491 36.0776 26.0154 35.2224C26.3593 34.7033 26.4838 34.5686 26.9073 34.1455C28.0923 32.9613 39.3856 21.7732 39.6837 21.328L42.0007 23.6048C41.6747 24.0819 30.4589 35.1737 29.2045 36.4427C28.912 36.7387 28.4623 37.1231 28.1149 37.3219C27.2901 37.7941 26.0324 38.1475 25.082 38.2266ZM21.3086 40.3594C21.3086 41.2485 21.9866 42 22.9492 42C23.5195 42 26.5583 41.3432 27.3056 41.1883C30.092 40.6108 31.5027 38.8196 33.3878 36.9345L44.9952 25.3271C45.7427 24.5796 46.0001 24.5292 46.0001 23.3788C46.0001 22.7265 45.0918 22.0193 44.7081 21.6356L41.6319 18.5595C41.0753 18.0028 40.6514 17.3085 39.6837 17.3085C38.891 17.3085 38.5217 17.8552 38.1046 18.2723L23.8754 32.5081C23.0797 33.4488 22.5084 34.5658 22.1607 35.9614C22.0103 36.5648 21.3086 39.9163 21.3086 40.3594Z" fill="#D2876F"/>
<path fill-rule="evenodd" clip-rule="evenodd" d="M10.5625 17.1444V17.6366C10.5625 18.2379 11.3557 19.0311 11.957 19.0311H28.8555C29.4569 19.0311 30.2501 18.2379 30.2501 17.6366V17.1444C30.2501 16.5431 29.4569 15.7499 28.8555 15.7499H11.957C11.3557 15.7499 10.5625 16.5431 10.5625 17.1444Z" fill="#D2876F"/>
<path fill-rule="evenodd" clip-rule="evenodd" d="M10.5625 23.7069V24.1991C10.5625 24.8004 11.3557 25.5936 11.957 25.5936H25.5743C27.612 25.5936 27.612 22.3124 25.5743 22.3124H11.957C11.3557 22.3124 10.5625 23.1056 10.5625 23.7069Z" fill="#D2876F"/>
<path fill-rule="evenodd" clip-rule="evenodd" d="M10.5625 30.2694V30.7616C10.5625 31.3629 11.3557 32.1561 11.957 32.1561H19.504C20.5407 32.1561 21.4947 30.4705 20.4723 29.3831C20.2869 29.1859 19.8512 28.8749 19.504 28.8749H11.957C11.3557 28.8749 10.5625 29.6681 10.5625 30.2694Z" fill="#D2876F"/>
</g>
<defs>
<filter id="filter0_d_1203_5254" x="0" y="0" width="50" height="50.0002" filterUnits="userSpaceOnUse" color-interpolation-filters="sRGB">
<feFlood flood-opacity="0" result="BackgroundImageFix"/>
<feColorMatrix in="SourceAlpha" type="matrix" values="0 0 0 0 0 0 0 0 0 0 0 0 0 0 0 0 0 0 127 0" result="hardAlpha"/>
<feOffset dy="4"/>
<feGaussianBlur stdDeviation="2"/>
<feComposite in2="hardAlpha" operator="out"/>
<feColorMatrix type="matrix" values="0 0 0 0 0.415686 0 0 0 0 0.415686 0 0 0 0 0.415686 0 0 0 0.25 0"/>
<feBlend mode="normal" in2="BackgroundImageFix" result="effect1_dropShadow_1203_5254"/>
<feBlend mode="normal" in="SourceGraphic" in2="effect1_dropShadow_1203_5254" result="shape"/>
</filter>
</defs>
</svg>

