<svg width="227" height="142" viewBox="0 0 227 142" fill="none" xmlns="http://www.w3.org/2000/svg">
<path d="M207.074 128L213 133.385M213 133.385L207.074 138M213 133.385H193" stroke="#9E9E9E" stroke-width="2" stroke-linecap="round" stroke-linejoin="round"/>
<path fill-rule="evenodd" clip-rule="evenodd" d="M4.25 134.063C4.25 132.929 4.45633 132.166 4.85691 131.201C5.1269 130.55 5.55314 129.97 6.02383 129.461C6.10569 129.373 6.13469 129.317 6.22601 129.226C7.05849 128.394 8.29172 127.671 9.43489 127.435C11.0721 127.097 12.2435 127.211 13.7993 127.857C14.679 128.222 15.5313 128.937 16.1639 129.649L16.8545 130.645C16.9578 130.836 17.056 130.991 17.1431 131.201C17.7735 132.719 17.9102 133.933 17.5703 135.539C17.3289 136.68 16.7534 137.699 15.9762 138.539C15.8943 138.627 15.8653 138.683 15.774 138.774L14.3545 139.855C13.785 140.164 13.2306 140.428 12.5651 140.565C10.7876 140.932 9.26854 140.759 7.66588 139.865C7.48582 139.765 7.3059 139.661 7.14711 139.54C6.6916 139.196 6.85271 139.338 6.46133 138.976C6.02684 138.574 5.61918 138.143 5.31101 137.626C4.92095 136.973 4.59609 136.346 4.43489 135.565C4.33881 135.1 4.25 134.636 4.25 134.063ZM10.6538 126H11.2341C11.92 126.026 12.6132 126.144 13.3438 126.344C13.4711 126.379 13.5682 126.411 13.6996 126.457C14.4976 126.735 15.2237 127.167 15.8926 127.67C16.484 128.115 17.1492 128.803 17.556 129.413L17.7562 129.713C17.931 129.985 18.1461 130.343 18.2681 130.638C18.3679 130.88 18.4643 131.068 18.5511 131.324C18.8252 132.13 18.9707 132.893 19 133.654V134.234C18.9739 134.92 18.8565 135.613 18.6563 136.344C18.4511 137.093 18.1251 137.682 17.7322 138.326C17.5524 138.621 17.3337 138.888 17.1206 139.152C17.0271 139.268 16.9805 139.308 16.8824 139.414C16.796 139.507 16.7614 139.567 16.6643 139.664C16.5635 139.765 16.4935 139.805 16.3978 139.898C16.0205 140.262 15.4664 140.668 14.9984 140.936C14.6036 141.162 14.1136 141.402 13.6761 141.551C13.4425 141.631 13.1569 141.726 12.9299 141.774C11.9598 141.975 11.7961 142 10.7813 142C8.8841 142 6.9726 141.167 5.58633 139.882C5.493 139.796 5.43268 139.761 5.33566 139.664C4.9197 139.248 4.36865 138.531 4.06406 137.998C3.72034 137.398 3.36836 136.612 3.2264 135.93C3.0246 134.96 3 134.796 3 133.781C3 133.123 3.11284 132.596 3.23171 132.044C3.41341 131.201 3.82431 130.401 4.26783 129.674C4.34117 129.554 4.38174 129.507 4.45636 129.394C4.53885 129.269 4.58353 129.222 4.66993 129.107C4.74939 129.002 4.80327 128.942 4.87937 128.848L5.33566 128.336C6.12227 127.549 7.27292 126.806 8.32389 126.449C9.12983 126.175 9.89261 126.029 10.6538 126Z" fill="#6A6A6A"/>
<path fill-rule="evenodd" clip-rule="evenodd" d="M10.375 130.313V134.063C10.375 134.438 10.7524 134.65 10.9866 134.826C11.2601 135.031 11.5006 135.211 11.7723 135.415L12.9509 136.299C13.1531 136.451 13.2111 136.531 13.5 136.531C13.7988 136.531 14.0937 136.266 14.0937 135.969C14.0937 135.541 13.982 135.502 13.5804 135.201L12.2946 134.237C12.1769 134.148 12.0864 134.08 11.9732 133.995C11.8562 133.908 11.7525 133.817 11.625 133.75C11.625 132.99 11.625 132.229 11.625 131.469C11.625 130.569 11.8264 129.719 10.9375 129.719C10.6398 129.719 10.375 130.014 10.375 130.313Z" fill="#6A6A6A"/>
<path d="M0 2C0 0.89543 0.895431 0 2 0H134C135.105 0 136 0.895431 136 2V13C136 14.1046 135.105 15 134 15H2C0.895432 15 0 14.1046 0 13V2Z" fill="#6A6A6A" fill-opacity="0.75"/>
<rect x="182" y="5" width="45" height="10" rx="2" fill="#B6B6B6"/>
<rect y="63" width="171" height="12" rx="2" fill="#0092DD"/>
<rect y="81" width="74" height="12" rx="2" fill="#0092DD"/>
</svg>
