<svg width="319" height="160" viewBox="0 0 319 160" fill="none" xmlns="http://www.w3.org/2000/svg">
<path fill-rule="evenodd" clip-rule="evenodd" d="M1.25 152.063C1.25 150.929 1.45633 150.166 1.85691 149.201C2.1269 148.55 2.55314 147.97 3.02383 147.461C3.10569 147.373 3.13469 147.317 3.22601 147.226C4.05849 146.394 5.29172 145.671 6.43489 145.435C8.07213 145.097 9.24354 145.211 10.7993 145.857C11.679 146.222 12.5313 146.937 13.1639 147.649L13.8545 148.645C13.9578 148.836 14.056 148.991 14.1431 149.201C14.7735 150.719 14.9102 151.933 14.5703 153.539C14.3289 154.68 13.7534 155.699 12.9762 156.539C12.8943 156.627 12.8653 156.683 12.774 156.774L11.3545 157.855C10.785 158.164 10.2306 158.428 9.56511 158.565C7.78755 158.932 6.26854 158.759 4.66588 157.865C4.48582 157.765 4.3059 157.661 4.14711 157.54C3.6916 157.196 3.85271 157.338 3.46133 156.976C3.02684 156.574 2.61918 156.143 2.31101 155.626C1.92095 154.973 1.59609 154.346 1.43489 153.565C1.33881 153.1 1.25 152.636 1.25 152.063ZM7.65383 144H8.23415C8.92004 144.026 9.61317 144.144 10.3438 144.344C10.4711 144.379 10.5682 144.411 10.6996 144.457C11.4976 144.735 12.2237 145.167 12.8926 145.67C13.484 146.115 14.1492 146.803 14.556 147.413L14.7562 147.713C14.931 147.985 15.1461 148.343 15.2681 148.638C15.3679 148.88 15.4643 149.068 15.5511 149.324C15.8252 150.13 15.9707 150.893 16 151.654V152.234C15.9739 152.92 15.8565 153.613 15.6563 154.344C15.4511 155.093 15.1251 155.682 14.7322 156.326C14.5524 156.621 14.3337 156.888 14.1206 157.152C14.0271 157.268 13.9805 157.308 13.8824 157.414C13.796 157.507 13.7614 157.567 13.6643 157.664C13.5635 157.765 13.4935 157.805 13.3978 157.898C13.0205 158.262 12.4664 158.668 11.9984 158.936C11.6036 159.162 11.1136 159.402 10.6761 159.551C10.4425 159.631 10.1569 159.726 9.92985 159.774C8.95982 159.975 8.79611 160 7.78125 160C5.8841 160 3.9726 159.167 2.58633 157.882C2.493 157.796 2.43268 157.761 2.33566 157.664C1.9197 157.248 1.36865 156.531 1.06406 155.998C0.720337 155.398 0.368362 154.612 0.226398 153.93C0.0246017 152.96 0 152.796 0 151.781C0 151.123 0.112844 150.596 0.231712 150.044C0.413413 149.201 0.824313 148.401 1.26783 147.674C1.34117 147.554 1.38174 147.507 1.45636 147.394C1.53885 147.269 1.58353 147.222 1.66993 147.107C1.74939 147.002 1.80327 146.942 1.87937 146.848L2.33566 146.336C3.12227 145.549 4.27292 144.806 5.32389 144.449C6.12983 144.175 6.89261 144.029 7.65383 144Z" fill="#6A6A6A"/>
<path fill-rule="evenodd" clip-rule="evenodd" d="M7.375 148.313V152.063C7.375 152.438 7.75237 152.65 7.98662 152.826C8.26012 153.031 8.5006 153.211 8.77235 153.415L9.95086 154.299C10.1531 154.451 10.2111 154.531 10.5 154.531C10.7988 154.531 11.0937 154.266 11.0937 153.969C11.0937 153.541 10.982 153.502 10.5804 153.201L9.29462 152.237C9.17693 152.148 9.08636 152.08 8.97325 151.995C8.8562 151.908 8.75252 151.817 8.62499 151.75C8.62499 150.99 8.62499 150.229 8.62499 149.469C8.62499 148.569 8.82636 147.719 7.9375 147.719C7.63982 147.719 7.375 148.014 7.375 148.313Z" fill="#6A6A6A"/>
<path d="M304.074 148L310 153.385M310 153.385L304.074 158M310 153.385H290" stroke="#9E9E9E" stroke-opacity="0.2" stroke-width="2" stroke-linecap="round" stroke-linejoin="round"/>
<path fill-rule="evenodd" clip-rule="evenodd" d="M63 159.281V159.594C63 159.785 63.2137 160 63.4044 160H76.5955C76.7863 160 77 159.785 77 159.594C77 157.841 76.3779 156.385 75.2352 155.179L74.4433 154.506C72.462 153.16 71.1959 153.375 68.8489 153.375C67.7348 153.375 66.8518 153.751 66.0283 154.198C65.6286 154.415 65.3074 154.691 64.9837 154.993C64.9029 155.068 64.857 155.08 64.7801 155.163C64.2943 155.685 63.9026 156.254 63.5805 156.896C63.2998 157.455 63 158.456 63 159.281Z" fill="#6A6A6A" fill-opacity="0.75"/>
<path fill-rule="evenodd" clip-rule="evenodd" d="M65.8008 148C65.8008 148.918 65.9165 149.603 66.3734 150.362C66.6276 150.785 66.6879 150.792 66.9076 151.076C67.1198 151.35 67.5686 151.681 67.8668 151.862C69.3032 152.734 71.0394 152.6 72.434 151.663C72.5352 151.595 72.6286 151.529 72.7152 151.445C72.8139 151.351 72.8822 151.31 72.9802 151.212C73.0782 151.113 73.1188 151.044 73.213 150.945C73.7417 150.39 74.2008 149.213 74.2008 148.438C74.2008 147.281 74.0236 146.667 73.4295 145.775C73.3618 145.673 73.2959 145.579 73.213 145.492C72.8279 145.087 72.664 144.889 72.1345 144.576C71.5544 144.232 70.8794 144.035 70.1973 144H69.759C69.2158 144.028 68.6801 144.161 68.1962 144.406C68.0889 144.461 67.9759 144.509 67.8668 144.575C67.6151 144.728 67.2213 145.02 67.021 145.226C66.6637 145.593 66.4344 145.95 66.2051 146.406C66.0175 146.779 65.8008 147.442 65.8008 148Z" fill="#6A6A6A" fill-opacity="0.75"/>
<rect x="245" y="6" width="65" height="65" fill="#F0CEC3"/>
<path d="M298.018 10.5419C297.2 9.04082 297 8.08343 297 6.36088C297 5.9039 297.104 5.38004 297.19 4.97533C297.283 4.53498 297.416 4.19262 297.565 3.8226C297.948 2.86532 298.206 2.64597 298.737 1.94867C299.048 1.53958 299.967 0.87607 300.452 0.628617C301.424 0.132485 302.216 0 303.359 0C304.522 0 305.907 0.595854 306.655 1.24124C306.941 1.48773 307.874 2.35959 307.957 2.67595H308.043C308.086 2.51234 308.314 2.28187 308.423 2.143C308.547 1.98571 308.724 1.82809 308.87 1.67794C309.031 1.51344 309.169 1.39252 309.345 1.24124C310.096 0.592652 311.482 0 312.641 0C313.815 0 314.577 0.135111 315.577 0.643196C315.788 0.750268 315.874 0.820847 316.064 0.935193C317.103 1.55877 317.988 2.71001 318.448 3.85408C318.943 5.08888 319 5.80368 319 7.10664C319 9.14259 317.762 11.092 316.538 12.5772C316.172 13.0214 315.692 13.4886 315.294 13.8953L314.541 14.6182C314.468 14.6919 314.424 14.7465 314.349 14.817C314.256 14.9047 314.226 14.9097 314.134 14.9923L313.167 15.8909C313.081 15.9685 313.06 15.9675 312.974 16.0452L309.792 18.8502C309.514 19.0904 309.281 19.295 309.002 19.5349C308.852 19.6638 308.777 19.7594 308.578 19.8487C308.13 20.0503 307.83 20.0567 307.397 19.8299C307.131 19.69 306.051 18.7089 305.776 18.4583C305.684 18.3753 305.655 18.3706 305.562 18.282C304.894 17.6483 303.883 16.8384 303.177 16.1979C303.107 16.1338 303.077 16.0885 303.003 16.0249C302.908 15.9437 302.885 15.9428 302.789 15.8482C302.721 15.7809 302.689 15.7363 302.616 15.6739L302.23 15.3229C301.952 15.0853 301.714 14.8762 301.459 14.6182C301.317 14.4743 301.2 14.4015 301.05 14.2463C299.925 13.0871 298.815 12.0042 298.018 10.5419Z" fill="#D2876F"/>
<path fill-rule="evenodd" clip-rule="evenodd" d="M299.542 80.7134C298.958 80.3059 298.209 80.4656 295.741 78.4247C294.9 77.73 293.844 76.2665 293.298 74.8822C291.947 71.4587 293.328 67.8042 295.111 65.7649C295.343 66.9237 295.418 67.4567 295.961 68.3497C296.35 68.9904 297.048 69.8051 297.586 70.1293C297.472 69.61 297.072 68.8378 296.899 68.2022C296.238 65.7778 296.238 63.6741 296.913 61.288C297.632 58.7495 299.592 56.0558 301.209 55.0553C300.979 57.596 301.222 58.8077 302.213 60.8673C303.663 63.8805 306.203 66.5308 307.324 69.4843C308.316 72.0999 308.157 72.9548 307.697 75.2582C308.452 74.7829 309.315 73.2375 309.638 71.9897C309.817 71.3018 309.962 70.5475 310.014 69.8031C310.075 68.9414 309.956 68.0477 310.014 67.2576C310.787 68.2285 311.315 70.289 311.276 71.8237C311.234 73.5148 310.677 75.1359 309.938 76.3366C309.164 77.5963 308.274 78.5828 307.158 79.3667C304.98 80.8955 303.877 80.6454 303 81.0655C304.075 81.0655 306.842 80.9874 307.915 80.6514C309.282 80.2234 311.345 79.096 312.48 78.2627C314.801 76.5577 316.62 74.216 317.626 71.1744C318.594 68.2483 318.724 66.3936 318.975 63.3692C319.063 62.3051 318.894 61.1704 318.889 60.3835C318.873 57.914 318.008 55.1915 316.85 53.2682C316.576 52.8126 315.921 51.7418 315.546 51.4913C315.566 52.3651 315.9 52.7933 315.65 54.4998C315.345 56.5827 314.506 58.8394 313.417 60.6282C313.302 60.8175 313.246 60.9283 313.141 61.1441L312.818 61.7014C312.818 60.0737 312.068 57.9923 311.408 56.5095C310.025 53.3984 307.402 50.0451 305.965 46.4617C305.482 45.2577 305.252 44.4105 305.033 42.9047C304.851 41.6526 305.055 39.8318 305.345 38.9128C305.479 38.4844 305.755 37.7381 305.988 37.3559L306.921 36L303.753 37.3214C301.319 38.4032 297.622 40.9719 295.944 42.9794C294.469 44.7437 293.318 46.2908 292.562 48.5748C291.725 51.1038 291.444 52.6765 291.706 55.3512C291.734 55.6352 291.844 56.0307 291.869 56.3323C291.596 56.1491 291.162 55.4665 290.961 55.1285C289.999 53.5136 289.669 52.0257 289.669 49.9069C288.812 50.8926 287.791 52.6071 287.234 53.7211C284.745 58.6986 284.219 63.9349 286.249 68.9945C286.84 70.4672 287.665 71.7452 288.524 72.9685C288.944 73.5657 289.394 74.1319 289.865 74.7079C290.848 75.9088 291.669 77.0097 292.926 77.8966C294.346 78.8987 295.446 79.4542 297.024 80.0479C297.538 80.2412 298.97 80.7015 299.542 80.7134Z" fill="#F3705A"/>
<path fill-rule="evenodd" clip-rule="evenodd" d="M299.541 80.7138C300.027 80.8368 300.628 80.9778 301.133 81.0439C301.204 81.0532 301.281 81.0604 301.361 81.0658H303C303.877 80.6457 304.979 80.8959 307.157 79.367C308.273 78.5831 309.163 77.5966 309.937 76.3369C310.676 75.1362 311.233 73.5151 311.276 71.824C311.314 70.2893 310.786 68.2288 310.013 67.2579C309.955 68.048 310.074 68.9417 310.013 69.8034C309.961 70.5478 309.816 71.3021 309.638 71.99C309.314 73.2378 308.452 74.7832 307.696 75.2585C308.156 72.9552 308.315 72.1002 307.323 69.4846C306.203 66.5311 303.662 63.8809 302.212 60.8676C301.221 58.808 300.979 57.5963 301.209 55.0557C299.591 56.0561 297.631 58.7498 296.912 61.2883C296.237 63.6744 296.237 65.7781 296.898 68.2025C297.071 68.8381 297.471 69.6103 297.585 70.1296C297.047 69.8054 296.349 68.9907 295.96 68.35C295.417 67.457 295.342 66.924 295.11 65.7652C293.328 67.8045 291.947 71.459 293.297 74.8826C293.843 76.2668 294.9 77.7303 295.74 78.425C298.208 80.4659 298.958 80.3062 299.541 80.7138Z" fill="#FFD05C"/>
<rect x="1" y="4" width="202" height="15" rx="2" fill="#6A6A6A" fill-opacity="0.75"/>
<rect x="1" y="29" width="136" height="15" rx="2" fill="#6A6A6A" fill-opacity="0.75"/>
<rect y="90" width="69" height="10" rx="2" fill="#B6B6B6"/>
<rect x="265" y="90" width="45" height="10" rx="2" fill="#B6B6B6"/>
<rect y="114" width="85" height="12" rx="2" fill="#F0CEC3"/>
</svg>
