<svg width="319" height="160" viewBox="0 0 319 160" fill="none" xmlns="http://www.w3.org/2000/svg">
<g clip-path="url(#clip0_837_611)">
<path fill-rule="evenodd" clip-rule="evenodd" d="M1.25 152.063C1.25 150.929 1.45633 150.166 1.85691 149.201C2.1269 148.55 2.55314 147.97 3.02383 147.461C3.10569 147.373 3.13469 147.317 3.22601 147.226C4.05849 146.394 5.29172 145.671 6.43489 145.435C8.07213 145.097 9.24354 145.211 10.7993 145.857C11.679 146.222 12.5313 146.937 13.1639 147.649L13.8545 148.645C13.9578 148.836 14.056 148.991 14.1431 149.201C14.7735 150.719 14.9102 151.933 14.5703 153.539C14.3289 154.68 13.7534 155.699 12.9762 156.539C12.8943 156.627 12.8653 156.683 12.774 156.774L11.3545 157.855C10.785 158.164 10.2306 158.428 9.56511 158.565C7.78755 158.932 6.26854 158.759 4.66588 157.865C4.48582 157.765 4.3059 157.661 4.14711 157.54C3.6916 157.196 3.85271 157.338 3.46133 156.976C3.02684 156.574 2.61918 156.143 2.31101 155.626C1.92095 154.973 1.59609 154.346 1.43489 153.565C1.33881 153.1 1.25 152.636 1.25 152.063ZM7.65383 144H8.23415C8.92004 144.026 9.61317 144.144 10.3438 144.344C10.4711 144.379 10.5682 144.411 10.6996 144.457C11.4976 144.735 12.2237 145.167 12.8926 145.67C13.484 146.115 14.1492 146.803 14.556 147.413L14.7562 147.713C14.931 147.985 15.1461 148.343 15.2681 148.638C15.3679 148.88 15.4643 149.068 15.5511 149.324C15.8252 150.13 15.9707 150.893 16 151.654V152.234C15.9739 152.92 15.8565 153.613 15.6563 154.344C15.4511 155.093 15.1251 155.682 14.7322 156.326C14.5524 156.621 14.3337 156.888 14.1206 157.152C14.0271 157.268 13.9805 157.308 13.8824 157.414C13.796 157.507 13.7614 157.567 13.6643 157.664C13.5635 157.765 13.4935 157.805 13.3978 157.898C13.0205 158.262 12.4664 158.668 11.9984 158.936C11.6036 159.162 11.1136 159.402 10.6761 159.551C10.4425 159.631 10.1569 159.726 9.92985 159.774C8.95982 159.975 8.79611 160 7.78125 160C5.8841 160 3.9726 159.167 2.58633 157.882C2.493 157.796 2.43268 157.761 2.33566 157.664C1.9197 157.248 1.36865 156.531 1.06406 155.998C0.720337 155.398 0.368362 154.612 0.226398 153.93C0.0246017 152.96 0 152.796 0 151.781C0 151.123 0.112844 150.596 0.231712 150.044C0.413413 149.201 0.824313 148.401 1.26783 147.674C1.34117 147.554 1.38174 147.507 1.45636 147.394C1.53885 147.269 1.58353 147.222 1.66993 147.107C1.74939 147.002 1.80327 146.942 1.87937 146.848L2.33566 146.336C3.12227 145.549 4.27292 144.806 5.32389 144.449C6.12983 144.175 6.89261 144.029 7.65383 144Z" fill="#6A6A6A"/>
<path fill-rule="evenodd" clip-rule="evenodd" d="M7.375 148.313V152.063C7.375 152.438 7.75237 152.65 7.98662 152.826C8.26012 153.031 8.5006 153.211 8.77235 153.415L9.95086 154.299C10.1531 154.451 10.2111 154.531 10.5 154.531C10.7988 154.531 11.0937 154.266 11.0937 153.969C11.0937 153.541 10.982 153.502 10.5804 153.201L9.29462 152.237C9.17693 152.148 9.08636 152.08 8.97325 151.995C8.8562 151.908 8.75252 151.817 8.62499 151.75C8.62499 150.99 8.62499 150.229 8.62499 149.469C8.62499 148.569 8.82636 147.719 7.9375 147.719C7.63982 147.719 7.375 148.014 7.375 148.313Z" fill="#6A6A6A"/>
<path d="M304.074 148L310 153.385M310 153.385L304.074 158M310 153.385H290" stroke="#9E9E9E" stroke-opacity="0.2" stroke-width="2" stroke-linecap="round" stroke-linejoin="round"/>
<path fill-rule="evenodd" clip-rule="evenodd" d="M63 159.281V159.594C63 159.785 63.2137 160 63.4044 160H76.5955C76.7863 160 77 159.785 77 159.594C77 157.841 76.3779 156.385 75.2352 155.179L74.4433 154.506C72.462 153.16 71.1959 153.375 68.8489 153.375C67.7348 153.375 66.8518 153.751 66.0283 154.198C65.6286 154.415 65.3074 154.691 64.9837 154.993C64.9029 155.068 64.857 155.08 64.7801 155.163C64.2943 155.685 63.9026 156.254 63.5805 156.896C63.2998 157.455 63 158.456 63 159.281Z" fill="#6A6A6A" fill-opacity="0.75"/>
<path fill-rule="evenodd" clip-rule="evenodd" d="M65.8008 148C65.8008 148.918 65.9165 149.603 66.3734 150.362C66.6276 150.785 66.6879 150.792 66.9076 151.076C67.1198 151.35 67.5686 151.681 67.8668 151.862C69.3032 152.734 71.0394 152.6 72.434 151.663C72.5352 151.595 72.6286 151.529 72.7152 151.445C72.8139 151.351 72.8822 151.31 72.9802 151.212C73.0782 151.113 73.1188 151.044 73.213 150.945C73.7417 150.39 74.2008 149.213 74.2008 148.438C74.2008 147.281 74.0236 146.667 73.4295 145.775C73.3618 145.673 73.2959 145.579 73.213 145.492C72.8279 145.087 72.664 144.889 72.1345 144.576C71.5544 144.232 70.8794 144.035 70.1973 144H69.759C69.2158 144.028 68.6801 144.161 68.1962 144.406C68.0889 144.461 67.9759 144.509 67.8668 144.575C67.6151 144.728 67.2213 145.02 67.021 145.226C66.6637 145.593 66.4344 145.95 66.2051 146.406C66.0175 146.779 65.8008 147.442 65.8008 148Z" fill="#6A6A6A" fill-opacity="0.75"/>
<path d="M310 6H245V71H310V6Z" fill="#F0CEC3"/>
<path d="M298.018 10.5419C297.2 9.04082 297 8.08343 297 6.36088C297 5.9039 297.104 5.38004 297.19 4.97533C297.283 4.53498 297.416 4.19262 297.565 3.8226C297.948 2.86532 298.206 2.64597 298.737 1.94867C299.048 1.53958 299.967 0.87607 300.452 0.628617C301.424 0.132485 302.216 0 303.359 0C304.522 0 305.907 0.595854 306.655 1.24124C306.941 1.48773 307.874 2.35959 307.957 2.67595H308.043C308.086 2.51234 308.314 2.28187 308.423 2.143C308.547 1.98571 308.724 1.82809 308.87 1.67794C309.031 1.51344 309.169 1.39252 309.345 1.24124C310.096 0.592652 311.482 0 312.641 0C313.815 0 314.577 0.135111 315.577 0.643196C315.788 0.750268 315.874 0.820847 316.064 0.935193C317.103 1.55877 317.988 2.71001 318.448 3.85408C318.943 5.08888 319 5.80368 319 7.10664C319 9.14259 317.762 11.092 316.538 12.5772C316.172 13.0214 315.692 13.4886 315.294 13.8953L314.541 14.6182C314.468 14.6919 314.424 14.7465 314.349 14.817C314.256 14.9047 314.226 14.9097 314.134 14.9923L313.167 15.8909C313.081 15.9685 313.06 15.9675 312.974 16.0452L309.792 18.8502C309.514 19.0904 309.281 19.295 309.002 19.5349C308.852 19.6638 308.777 19.7594 308.578 19.8487C308.13 20.0503 307.83 20.0567 307.397 19.8299C307.131 19.69 306.051 18.7089 305.776 18.4583C305.684 18.3753 305.655 18.3706 305.562 18.282C304.894 17.6483 303.883 16.8384 303.177 16.1979C303.107 16.1338 303.077 16.0885 303.003 16.0249C302.908 15.9437 302.885 15.9428 302.789 15.8482C302.721 15.7809 302.689 15.7363 302.616 15.6739L302.23 15.3229C301.952 15.0853 301.714 14.8762 301.459 14.6182C301.317 14.4743 301.2 14.4015 301.05 14.2463C299.925 13.0871 298.815 12.0042 298.018 10.5419Z" fill="#D2876F"/>
<path d="M201 4H3C1.89543 4 1 4.89543 1 6V17C1 18.1046 1.89543 19 3 19H201C202.105 19 203 18.1046 203 17V6C203 4.89543 202.105 4 201 4Z" fill="#6A6A6A" fill-opacity="0.75"/>
<path d="M135 29H3C1.89543 29 1 29.8954 1 31V42C1 43.1046 1.89543 44 3 44H135C136.105 44 137 43.1046 137 42V31C137 29.8954 136.105 29 135 29Z" fill="#6A6A6A" fill-opacity="0.75"/>
<path d="M67 90H2C0.89543 90 0 90.8954 0 92V98C0 99.1046 0.89543 100 2 100H67C68.1046 100 69 99.1046 69 98V92C69 90.8954 68.1046 90 67 90Z" fill="#B6B6B6"/>
<path d="M308 90H267C265.895 90 265 90.8954 265 92V98C265 99.1046 265.895 100 267 100H308C309.105 100 310 99.1046 310 98V92C310 90.8954 309.105 90 308 90Z" fill="#B6B6B6"/>
<path d="M83 114H2C0.89543 114 0 114.895 0 116V124C0 125.105 0.89543 126 2 126H83C84.1046 126 85 125.105 85 124V116C85 114.895 84.1046 114 83 114Z" fill="#F0CEC3"/>
</g>
<defs>
<clipPath id="clip0_837_611">
<rect width="319" height="160" fill="white"/>
</clipPath>
</defs>
</svg>
