<svg width="1920" height="2590" viewBox="0 0 1920 2590" fill="none" xmlns="http://www.w3.org/2000/svg">
<g clip-path="url(#clip0_882_1166)">
<rect width="1920" height="2590" fill="#FDFEFF"/>
<g filter="url(#filter0_f_882_1166)">
<path d="M2307 493C2083.5 281 2108 640.5 1529 191.5C1165.99 136.218 767.501 187 513.001 -119.5C535.447 -234.813 1275.57 -189.454 1638.59 -134.172C2307 -119.5 2329.45 377.687 2307 493Z" fill="#C5E2F1" fill-opacity="0.9"/>
<path d="M642.002 581C625.081 667.931 621.501 590.5 304.002 689.501C-405.999 518 -129.421 220.931 -112.499 134C-95.5781 47.0695 29.3375 195.856 224.001 225.5C418.665 255.145 287.002 403 642.002 581Z" fill="#F0CEC3" fill-opacity="0.3"/>
</g>
<g filter="url(#filter1_bd_882_1166)">
<path d="M-128.527 -45.2287C-128.076 -49.0054 -123.74 -50.9153 -120.649 -48.699L230.327 202.939C233.474 205.195 232.973 210.017 229.43 211.578L-172.783 388.754C-176.326 390.315 -180.222 387.429 -179.763 383.585L-128.527 -45.2287Z" fill="#EAEFF1" fill-opacity="0.25"/>
<path d="M-120.941 -48.2927L230.036 203.345C232.868 205.375 232.417 209.715 229.228 211.12L-172.984 388.296C-176.173 389.701 -179.68 387.104 -179.267 383.644L-128.031 -45.1694C-127.625 -48.5684 -123.723 -50.2873 -120.941 -48.2927Z" stroke="#0092DD" stroke-opacity="0.5"/>
<path d="M136.095 1117.32C139.657 1115.99 143.344 1118.96 142.795 1122.73L72.2824 1605.48C71.7228 1609.31 67.2086 1611.08 64.1952 1608.65L-322.226 1296.88C-325.24 1294.45 -324.465 1289.66 -320.839 1288.3L136.095 1117.32Z" fill="#EAEFF1" fill-opacity="0.25"/>
<path d="M142.3 1122.65L71.7876 1605.41C71.284 1608.86 67.2212 1610.45 64.5092 1608.26L-321.912 1296.49C-324.624 1294.3 -323.927 1289.99 -320.664 1288.77L136.27 1117.79C139.476 1116.59 142.795 1119.27 142.3 1122.65Z" stroke="#0092DD" stroke-opacity="0.5"/>
<path d="M1224.72 11.4648C1221.29 9.83809 1220.85 5.12043 1223.93 2.89261L1620.34 -283.571C1623.48 -285.839 1627.9 -283.833 1628.25 -279.977L1673.94 215.661C1674.29 219.517 1670.32 222.296 1666.82 220.64L1224.72 11.4648Z" fill="#EAEFF1" fill-opacity="0.25"/>
<path d="M1224.23 3.29788L1620.64 -283.166C1623.46 -285.207 1627.43 -283.401 1627.75 -279.932L1673.44 215.707C1673.76 219.177 1670.18 221.678 1667.03 220.188L1224.94 11.0129C1221.84 9.54881 1221.45 5.30289 1224.23 3.29788Z" stroke="#0092DD" stroke-opacity="0.5"/>
<path d="M191.625 401.825C193.836 401.26 195.843 403.273 195.272 405.483L183.678 450.32C183.097 452.569 180.29 453.332 178.649 451.687L145.372 418.311C143.732 416.666 144.503 413.861 146.754 413.286L191.625 401.825Z" fill="#EAEFF1" fill-opacity="0.25"/>
<path d="M194.788 405.358L183.194 450.194C182.71 452.069 180.37 452.705 179.004 451.334L145.726 417.958C144.359 416.587 145.002 414.25 146.878 413.77L191.749 402.31C193.591 401.839 195.264 403.517 194.788 405.358Z" stroke="#0092DD" stroke-opacity="0.5"/>
<path d="M206.228 1671.47C208.44 1670.91 210.447 1672.92 209.875 1675.13L194.284 1735.43C193.702 1737.67 190.895 1738.44 189.255 1736.79L144.503 1691.91C142.863 1690.26 143.635 1687.46 145.885 1686.88L206.228 1671.47Z" fill="#EAEFF1" fill-opacity="0.25"/>
<path d="M209.391 1675L193.8 1735.3C193.315 1737.17 190.976 1737.81 189.609 1736.44L144.857 1691.56C143.491 1690.18 144.133 1687.85 146.009 1687.37L206.352 1671.96C208.195 1671.48 209.867 1673.16 209.391 1675Z" stroke="#0092DD" stroke-opacity="0.5"/>
<path d="M1808.86 1140.6C1811.12 1140.27 1812.91 1142.48 1812.11 1144.62L1781.39 1226.91C1780.58 1229.08 1777.71 1229.55 1776.25 1227.74L1720.06 1158.22C1718.6 1156.41 1719.66 1153.7 1721.96 1153.37L1808.86 1140.6Z" fill="#EAEFF1" fill-opacity="0.25"/>
<path d="M1811.64 1144.44L1780.92 1226.73C1780.25 1228.55 1777.85 1228.94 1776.64 1227.43L1720.45 1157.91C1719.23 1156.4 1720.11 1154.14 1722.03 1153.86L1808.93 1141.09C1810.81 1140.82 1812.3 1142.66 1811.64 1144.44Z" stroke="#D2876F" stroke-opacity="0.5"/>
<path d="M1839.57 143.825C1841.78 143.26 1843.79 145.273 1843.22 147.483L1831.63 192.32C1831.04 194.569 1828.24 195.332 1826.6 193.687L1793.32 160.311C1791.68 158.666 1792.45 155.861 1794.7 155.286L1839.57 143.825Z" fill="#EAEFF1" fill-opacity="0.25"/>
<path d="M1842.74 147.358L1831.14 192.194C1830.66 194.069 1828.32 194.705 1826.95 193.334L1793.67 159.958C1792.31 158.587 1792.95 156.25 1794.83 155.77L1839.7 144.31C1841.54 143.839 1843.21 145.517 1842.74 147.358Z" stroke="#0092DD" stroke-opacity="0.5"/>
<path d="M1642.78 1063.04C1644.99 1062.47 1646.99 1064.48 1646.42 1066.69L1641.32 1086.42C1640.74 1088.67 1637.93 1089.44 1636.29 1087.79L1621.65 1073.1C1620.01 1071.46 1620.78 1068.65 1623.03 1068.08L1642.78 1063.04Z" fill="#EAEFF1" fill-opacity="0.25"/>
<path d="M1645.94 1066.57L1640.84 1086.3C1640.35 1088.17 1638.01 1088.81 1636.65 1087.44L1622 1072.75C1620.64 1071.38 1621.28 1069.04 1623.15 1068.56L1642.9 1063.52C1644.74 1063.05 1646.41 1064.73 1645.94 1066.57Z" stroke="#0092DD" stroke-opacity="0.5"/>
<path d="M1885.12 433.553C1887.33 432.988 1889.33 435.001 1888.76 437.211L1868.91 513.99C1868.33 516.239 1865.52 517.002 1863.88 515.357L1806.9 458.204C1805.26 456.559 1806.03 453.754 1808.28 453.179L1885.12 433.553Z" fill="#EAEFF1" fill-opacity="0.25"/>
<path d="M1888.28 437.086L1868.43 513.865C1867.94 515.739 1865.6 516.375 1864.24 515.004L1807.25 457.851C1805.88 456.48 1806.53 454.142 1808.4 453.663L1885.24 434.038C1887.08 433.567 1888.76 435.244 1888.28 437.086Z" stroke="#D2876F" stroke-opacity="0.5"/>
<path d="M11.0557 754.12C8.8856 754.826 6.75287 752.947 7.18046 750.705L18.0921 693.497C18.5273 691.215 21.2794 690.273 23.0223 691.808L67.4911 730.993C69.234 732.529 68.6451 735.378 66.4361 736.097L11.0557 754.12Z" fill="#EAEFF1" fill-opacity="0.25"/>
<path d="M7.6716 750.799L18.5832 693.591C18.9459 691.689 21.2393 690.904 22.6918 692.184L67.1605 731.369C68.613 732.648 68.1222 735.022 66.2813 735.622L10.901 753.644C9.09255 754.233 7.31528 752.667 7.6716 750.799Z" stroke="#D2876F" stroke-opacity="0.5"/>
</g>
</g>
<defs>
<filter id="filter0_f_882_1166" x="-512.529" y="-524.313" width="3157.69" height="1546.81" filterUnits="userSpaceOnUse" color-interpolation-filters="sRGB">
<feFlood flood-opacity="0" result="BackgroundImageFix"/>
<feBlend mode="normal" in="SourceGraphic" in2="BackgroundImageFix" result="shape"/>
<feGaussianBlur stdDeviation="166.5" result="effect1_foregroundBlur_882_1166"/>
</filter>
<filter id="filter1_bd_882_1166" x="-384.088" y="-344.525" width="2332.95" height="2142.2" filterUnits="userSpaceOnUse" color-interpolation-filters="sRGB">
<feFlood flood-opacity="0" result="BackgroundImageFix"/>
<feGaussianBlur in="BackgroundImageFix" stdDeviation="30"/>
<feComposite in2="SourceAlpha" operator="in" result="effect1_backgroundBlur_882_1166"/>
<feColorMatrix in="SourceAlpha" type="matrix" values="0 0 0 0 0 0 0 0 0 0 0 0 0 0 0 0 0 0 127 0" result="hardAlpha"/>
<feOffset/>
<feGaussianBlur stdDeviation="10"/>
<feComposite in2="hardAlpha" operator="out"/>
<feColorMatrix type="matrix" values="0 0 0 0 0.415686 0 0 0 0 0.415686 0 0 0 0 0.415686 0 0 0 0.25 0"/>
<feBlend mode="normal" in2="effect1_backgroundBlur_882_1166" result="effect2_dropShadow_882_1166"/>
<feBlend mode="normal" in="SourceGraphic" in2="effect2_dropShadow_882_1166" result="shape"/>
</filter>
<clipPath id="clip0_882_1166">
<rect width="1920" height="2590" fill="white"/>
</clipPath>
</defs>
</svg>
