<svg width="30" height="19" viewBox="0 0 30 19" fill="none" xmlns="http://www.w3.org/2000/svg">
<path fill-rule="evenodd" clip-rule="evenodd" d="M8.21678 8.14577C7.74429 8.03467 1.62465 4.72218 1.1791 4.72218C-0.378127 4.72218 -0.0227698 5.84043 0.200361 6.70566C0.417462 7.54755 2.10935 13.8459 2.11745 14.1665H27.8552C27.8639 13.8223 29.3315 8.4313 29.4904 7.81505C29.6338 7.25903 30 6.04928 30 5.54857C30 5.12048 29.5351 4.72218 28.7935 4.72218C28.4038 4.72218 26.1855 6.11561 25.7237 6.3867L22.6942 8.14577L16.2881 0.860498C15.7286 0.229371 15.6571 0 14.8523 0C14.1912 0 13.4442 1.24014 12.9889 1.84162L8.21678 8.14577Z" fill="#5fb4de"/>
<path fill-rule="evenodd" clip-rule="evenodd" d="M4.1269 18.889H25.8431C26.7702 18.889 26.9382 17.603 27.0999 16.9264C27.1701 16.6328 27.293 16.3172 27.3177 16.0557H2.65234C2.68452 16.3962 3.17552 18.2514 3.37659 18.4873C3.52049 18.656 3.81517 18.889 4.1269 18.889Z" fill="#5fb4de"/>
</svg>
