<svg width="75" height="54" viewBox="0 0 75 54" fill="none" xmlns="http://www.w3.org/2000/svg">
<path fill-rule="evenodd" clip-rule="evenodd" d="M20.626 23.2434C20.1324 23.1308 13.1645 19.0167 12.0709 18.4176C10.6654 17.6475 4.46532 13.9306 3.54715 13.6072C1.58833 12.9172 -0.218538 14.5723 0.0215122 16.5415C0.11655 17.3212 0.459151 18.4896 0.654431 19.3404L6.27437 43.806C6.72284 45.7352 7.12871 47.3966 7.55248 49.2417C7.99965 51.1888 7.99648 52.8281 9.86751 53.5709C11.0591 54.0439 20.7916 53.7637 22.9818 53.7637L63.0925 53.7639C67.7461 53.7682 66.6581 51.788 68.3626 45.6902C69.3397 42.1945 70.0535 38.325 70.8467 34.8671L74.6312 18.4078C75.0882 16.353 75.4491 14.6678 73.6057 13.7453C71.7555 12.8191 70.0437 14.4934 68.893 15.2589C67.742 16.0246 57.5375 23.0479 56.8557 23.1663L47.7957 11.5419C45.609 8.82599 43.2219 5.51649 41.004 2.79698C40.0572 1.63623 38.7037 -0.936679 36.2737 0.353034C35.5703 0.726314 35.4452 1.01645 35.0135 1.66716L20.626 23.2434Z" fill="#0092DD"/>
<path fill-rule="evenodd" clip-rule="evenodd" d="M20.626 23.2434C20.1324 23.1308 13.1645 19.0167 12.0709 18.4176C10.6654 17.6475 4.46532 13.9306 3.54715 13.6072C1.58833 12.9172 -0.218538 14.5723 0.0215122 16.5415C0.11655 17.3212 0.459151 18.4896 0.654431 19.3404L6.27437 43.806C6.72284 45.7352 7.12871 47.3966 7.55248 49.2417C7.99965 51.1888 7.99648 52.8281 9.86751 53.5709C11.0591 54.0439 20.7916 53.7637 22.9818 53.7637L63.0925 53.7639C67.7461 53.7682 66.6581 51.788 68.3626 45.6902C69.3397 42.1945 70.0535 38.325 70.8467 34.8671L74.6312 18.4078C75.0882 16.353 75.4491 14.6678 73.6057 13.7453C71.7555 12.8191 70.0437 14.4934 68.893 15.2589C67.742 16.0246 57.5375 23.0479 56.8557 23.1663L47.7957 11.5419C45.609 8.82599 43.2219 5.51649 41.004 2.79698C40.0572 1.63623 38.7037 -0.936679 36.2737 0.353034C35.5703 0.726314 35.4452 1.01645 35.0135 1.66716L20.626 23.2434Z" fill="url(#paint0_linear_0_1)"/>
<defs>
<linearGradient id="paint0_linear_0_1" x1="1.31331e-07" y1="6.37583" x2="60.9675" y2="58.7623" gradientUnits="userSpaceOnUse">
<stop stop-color="white"/>
<stop offset="1" stop-color="#0092DD" stop-opacity="0"/>
</linearGradient>
</defs>
</svg>
