<svg width="35" height="26" viewBox="0 0 35 26" fill="none" xmlns="http://www.w3.org/2000/svg">
                        <path fill-rule="evenodd" clip-rule="evenodd" d="M9.58624 10.8508C9.03501 10.7037 1.89543 6.31759 1.37562 6.31759C-0.441148 6.31759 -0.0265647 7.79827 0.233754 8.94392C0.487039 10.0587 2.46091 18.3983 2.47036 18.8229H32.4977C32.5079 18.3671 34.2201 11.2288 34.4055 10.4129C34.5728 9.67663 35 8.0748 35 7.4118C35 6.84498 34.4576 6.31759 33.5925 6.31759C33.1378 6.31759 30.5498 8.16263 30.011 8.52159L26.4766 10.8508L19.0028 1.20433C18.35 0.368652 18.2666 0.0649414 17.3277 0.0649414C16.5564 0.0649414 15.6849 1.70701 15.1537 2.50343L9.58624 10.8508Z" fill="#C5E2F1" />
                        <path fill-rule="evenodd" clip-rule="evenodd" d="M4.81602 25.0758H30.1516C31.2332 25.0758 31.4293 23.373 31.6179 22.4772C31.6998 22.0884 31.8431 21.6705 31.8719 21.3242H3.0957C3.13324 21.7751 3.70608 24.2317 3.94065 24.5439C4.10854 24.7674 4.45234 25.0758 4.81602 25.0758Z" fill="#C5E2F1" />
                    </svg>