<svg width="75" height="84" viewBox="0 0 75 84" fill="none" xmlns="http://www.w3.org/2000/svg">
<path fill-rule="evenodd" clip-rule="evenodd" d="M20.626 23.2434C20.1324 23.1308 13.1645 19.0168 12.071 18.4177C10.6655 17.6475 4.46532 13.9306 3.54715 13.6072C1.58833 12.9172 -0.218538 14.5724 0.0215122 16.5416C0.11655 17.3212 0.459154 18.4897 0.654429 19.3405L6.27437 43.8061C6.72284 45.7352 7.12871 47.3966 7.55248 49.2418C7.99965 51.1888 7.99647 52.8281 9.86748 53.5709C11.0591 54.044 20.7916 53.7638 22.9819 53.7638L63.0925 53.7639C67.7461 53.7683 66.6581 51.7881 68.3626 45.6902C69.3397 42.1945 70.0535 38.325 70.8467 34.8671L74.6312 18.4078C75.0882 16.3531 75.4491 14.6678 73.6057 13.7453C71.7555 12.8192 70.0437 14.4934 68.893 15.2589C67.742 16.0246 57.5375 23.0479 56.8557 23.1664L47.7957 11.5419C45.609 8.82599 43.2219 5.5165 41.004 2.79699C40.0572 1.63623 38.7037 -0.936678 36.2737 0.353033C35.5703 0.726313 35.4453 1.01646 35.0135 1.66717L20.626 23.2434Z" fill="#F0CEC3"/>
<path fill-rule="evenodd" clip-rule="evenodd" d="M20.626 23.2434C20.1324 23.1308 13.1645 19.0168 12.071 18.4177C10.6655 17.6475 4.46532 13.9306 3.54715 13.6072C1.58833 12.9172 -0.218538 14.5724 0.0215122 16.5416C0.11655 17.3212 0.459154 18.4897 0.654429 19.3405L6.27437 43.8061C6.72284 45.7352 7.12871 47.3966 7.55248 49.2418C7.99965 51.1888 7.99647 52.8281 9.86748 53.5709C11.0591 54.044 20.7916 53.7638 22.9819 53.7638L63.0925 53.7639C67.7461 53.7683 66.6581 51.7881 68.3626 45.6902C69.3397 42.1945 70.0535 38.325 70.8467 34.8671L74.6312 18.4078C75.0882 16.3531 75.4491 14.6678 73.6057 13.7453C71.7555 12.8192 70.0437 14.4934 68.893 15.2589C67.742 16.0246 57.5375 23.0479 56.8557 23.1664L47.7957 11.5419C45.609 8.82599 43.2219 5.5165 41.004 2.79699C40.0572 1.63623 38.7037 -0.936678 36.2737 0.353033C35.5703 0.726313 35.4453 1.01646 35.0135 1.66717L20.626 23.2434Z" fill="url(#paint0_linear_1191_5119)"/>
<path fill-rule="evenodd" clip-rule="evenodd" d="M20.626 23.2434C20.1324 23.1308 13.1645 19.0168 12.071 18.4177C10.6655 17.6475 4.46532 13.9306 3.54715 13.6072C1.58833 12.9172 -0.218538 14.5724 0.0215122 16.5416C0.11655 17.3212 0.459154 18.4897 0.654429 19.3405L6.27437 43.8061C6.72284 45.7352 7.12871 47.3966 7.55248 49.2418C7.99965 51.1888 7.99647 52.8281 9.86748 53.5709C11.0591 54.044 20.7916 53.7638 22.9819 53.7638L63.0925 53.7639C67.7461 53.7683 66.6581 51.7881 68.3626 45.6902C69.3397 42.1945 70.0535 38.325 70.8467 34.8671L74.6312 18.4078C75.0882 16.3531 75.4491 14.6678 73.6057 13.7453C71.7555 12.8192 70.0437 14.4934 68.893 15.2589C67.742 16.0246 57.5375 23.0479 56.8557 23.1664L47.7957 11.5419C45.609 8.82599 43.2219 5.5165 41.004 2.79699C40.0572 1.63623 38.7037 -0.936678 36.2737 0.353033C35.5703 0.726313 35.4453 1.01646 35.0135 1.66717L20.626 23.2434Z" fill="url(#paint1_linear_1191_5119)" fill-opacity="0.2"/>
<path d="M2.03357 84V64.008H17.3271V84H12.2571V67.956H7.10357V84H2.03357Z" fill="#F0CEC3"/>
<path d="M2.03357 84V64.008H17.3271V84H12.2571V67.956H7.10357V84H2.03357Z" fill="url(#paint2_linear_1191_5119)" fill-opacity="0.2"/>
<path d="M28.1444 64.008C30.503 64.008 32.2766 64.568 33.4651 65.688C34.6537 66.7893 35.248 68.3293 35.248 70.308C35.248 71.204 35.1273 72.072 34.8858 72.912C34.6444 73.7333 34.2451 74.452 33.688 75.068C33.1308 75.684 32.3973 76.1787 31.4873 76.552C30.5773 76.9253 29.463 77.112 28.1444 77.112H26.7237V84H21.6816V64.008H28.1444ZM28.0608 67.9H26.7237V73.22H27.7266C28.3951 73.22 28.9708 73.0147 29.4537 72.604C29.9551 72.1747 30.2058 71.456 30.2058 70.448C30.2244 68.768 29.5094 67.9187 28.0608 67.9Z" fill="#F0CEC3"/>
<path d="M28.1444 64.008C30.503 64.008 32.2766 64.568 33.4651 65.688C34.6537 66.7893 35.248 68.3293 35.248 70.308C35.248 71.204 35.1273 72.072 34.8858 72.912C34.6444 73.7333 34.2451 74.452 33.688 75.068C33.1308 75.684 32.3973 76.1787 31.4873 76.552C30.5773 76.9253 29.463 77.112 28.1444 77.112H26.7237V84H21.6816V64.008H28.1444ZM28.0608 67.9H26.7237V73.22H27.7266C28.3951 73.22 28.9708 73.0147 29.4537 72.604C29.9551 72.1747 30.2058 71.456 30.2058 70.448C30.2244 68.768 29.5094 67.9187 28.0608 67.9Z" fill="url(#paint3_linear_1191_5119)" fill-opacity="0.2"/>
<path d="M49.6147 84H38.5275V64.008H49.6147V67.872H43.5697V71.708H49.1689V75.572H43.5697V80.08H49.6147V84Z" fill="#F0CEC3"/>
<path d="M49.6147 84H38.5275V64.008H49.6147V67.872H43.5697V71.708H49.1689V75.572H43.5697V80.08H49.6147V84Z" fill="url(#paint4_linear_1191_5119)" fill-opacity="0.2"/>
<path d="M61.3878 84L57.4878 68.796H57.3764C57.4135 69.356 57.4692 70.2613 57.5435 71.512C57.6178 72.744 57.6549 73.864 57.6549 74.872V84H53.1699V64.008H60.2178L63.7835 77.924H63.8671L67.4049 64.008H74.4528V84H69.8006V74.732C69.8006 74.284 69.8006 73.78 69.8006 73.22C69.8192 72.6413 69.8285 72.072 69.8285 71.512C69.8471 70.952 69.8656 70.4387 69.8842 69.972C69.9214 69.4867 69.9585 69.104 69.9956 68.824H69.8842L66.0678 84H61.3878Z" fill="#F0CEC3"/>
<path d="M61.3878 84L57.4878 68.796H57.3764C57.4135 69.356 57.4692 70.2613 57.5435 71.512C57.6178 72.744 57.6549 73.864 57.6549 74.872V84H53.1699V64.008H60.2178L63.7835 77.924H63.8671L67.4049 64.008H74.4528V84H69.8006V74.732C69.8006 74.284 69.8006 73.78 69.8006 73.22C69.8192 72.6413 69.8285 72.072 69.8285 71.512C69.8471 70.952 69.8656 70.4387 69.8842 69.972C69.9214 69.4867 69.9585 69.104 69.9956 68.824H69.8842L66.0678 84H61.3878Z" fill="url(#paint5_linear_1191_5119)" fill-opacity="0.2"/>
<defs>
<linearGradient id="paint0_linear_1191_5119" x1="-4.19478e-07" y1="6.22222" x2="59.7" y2="58.786" gradientUnits="userSpaceOnUse">
<stop stop-color="white"/>
<stop offset="1" stop-color="#D2876F" stop-opacity="0"/>
</linearGradient>
<linearGradient id="paint1_linear_1191_5119" x1="75" y1="141.556" x2="28.2652" y2="87.6828" gradientUnits="userSpaceOnUse">
<stop stop-color="white"/>
<stop offset="1" stop-color="#D2876F" stop-opacity="0"/>
</linearGradient>
<linearGradient id="paint2_linear_1191_5119" x1="77.1429" y1="92.6154" x2="44.4097" y2="59.8665" gradientUnits="userSpaceOnUse">
<stop stop-color="white"/>
<stop offset="1" stop-color="#D2876F" stop-opacity="0"/>
</linearGradient>
<linearGradient id="paint3_linear_1191_5119" x1="77.1429" y1="92.6154" x2="44.4097" y2="59.8665" gradientUnits="userSpaceOnUse">
<stop stop-color="white"/>
<stop offset="1" stop-color="#D2876F" stop-opacity="0"/>
</linearGradient>
<linearGradient id="paint4_linear_1191_5119" x1="77.1429" y1="92.6154" x2="44.4097" y2="59.8665" gradientUnits="userSpaceOnUse">
<stop stop-color="white"/>
<stop offset="1" stop-color="#D2876F" stop-opacity="0"/>
</linearGradient>
<linearGradient id="paint5_linear_1191_5119" x1="77.1429" y1="92.6154" x2="44.4097" y2="59.8665" gradientUnits="userSpaceOnUse">
<stop stop-color="white"/>
<stop offset="1" stop-color="#D2876F" stop-opacity="0"/>
</linearGradient>
</defs>
</svg>
