<svg width="56" height="56" viewBox="0 0 56 56" fill="none" xmlns="http://www.w3.org/2000/svg">
<g filter="url(#filter0_d_954_3137)">
<circle cx="28" cy="28" r="24" fill="#C5E2F1"/>
</g>
<mask id="mask0_954_3137" style="mask-type:alpha" maskUnits="userSpaceOnUse" x="4" y="4" width="48" height="48">
<circle cx="28" cy="28" r="24" fill="#C5E2F1"/>
</mask>
<g mask="url(#mask0_954_3137)">
<path fill-rule="evenodd" clip-rule="evenodd" d="M10 49.914V50.6952C10 51.1743 10.5342 51.7109 11.0111 51.7109H43.9889C44.4658 51.7109 45 51.1743 45 50.6952C45 46.3125 43.4446 42.6741 40.588 39.6581L38.6081 37.9749C33.6549 34.6106 30.4898 35.1482 24.6222 35.1482C21.8371 35.1482 19.6294 36.0875 17.5708 37.206C16.5716 37.7489 15.7685 38.4392 14.9593 39.1922C14.7571 39.3803 14.6425 39.4118 14.4503 39.6184C13.2359 40.9233 12.2565 42.3453 11.4512 43.9498C10.7495 45.3482 10 47.8511 10 49.914Z" fill="#0092DD"/>
<path fill-rule="evenodd" clip-rule="evenodd" d="M20 24.577C20 26.3162 20.2204 27.6129 21.0907 29.0518C21.575 29.8524 21.6898 29.865 22.1083 30.4032C22.5123 30.9229 23.3673 31.5505 23.9352 31.8932C26.6713 33.5445 29.9783 33.2902 32.6346 31.5153C32.8274 31.3865 33.0053 31.261 33.1704 31.1034C33.3583 30.9241 33.4885 30.8468 33.6751 30.6604C33.8617 30.474 33.939 30.344 34.1186 30.1563C35.1256 29.1035 36 26.8751 36 25.4058C36 23.2149 35.6626 22.0517 34.5309 20.3617C34.402 20.1692 34.2763 19.9915 34.1186 19.8265C33.385 19.0597 33.0727 18.6848 32.0642 18.0902C30.9593 17.4389 29.6736 17.0662 28.3743 17H27.5395C26.5049 17.0529 25.4843 17.3045 24.5627 17.7693C24.3583 17.8724 24.143 17.9642 23.9352 18.0896C23.4558 18.3789 22.7058 18.9321 22.3242 19.3217C21.6436 20.0168 21.2069 20.6938 20.7701 21.5578C20.4128 22.2648 20 23.5198 20 24.577Z" fill="#0092DD"/>
</g>
<defs>
<filter id="filter0_d_954_3137" x="0" y="0" width="56" height="56" filterUnits="userSpaceOnUse" color-interpolation-filters="sRGB">
<feFlood flood-opacity="0" result="BackgroundImageFix"/>
<feColorMatrix in="SourceAlpha" type="matrix" values="0 0 0 0 0 0 0 0 0 0 0 0 0 0 0 0 0 0 127 0" result="hardAlpha"/>
<feOffset/>
<feGaussianBlur stdDeviation="2"/>
<feComposite in2="hardAlpha" operator="out"/>
<feColorMatrix type="matrix" values="0 0 0 0 0 0 0 0 0 0 0 0 0 0 0 0 0 0 0.25 0"/>
<feBlend mode="normal" in2="BackgroundImageFix" result="effect1_dropShadow_954_3137"/>
<feBlend mode="normal" in="SourceGraphic" in2="effect1_dropShadow_954_3137" result="shape"/>
</filter>
</defs>
</svg>
