<svg width="3388" height="2816" viewBox="0 0 3388 2816" fill="none" xmlns="http://www.w3.org/2000/svg">
<g clip-path="url(#clip0_900_1188)">
<rect width="3388" height="2816" fill="#FDFEFF"/>
<g filter="url(#filter0_f_900_1188)">
<path d="M2856.53 513.314C2633.03 301.314 2657.53 660.814 2078.53 211.814C1715.51 156.532 1317.03 207.314 1062.53 -99.1863C1084.98 -214.499 1825.1 -169.14 2188.12 -113.858C2856.53 -99.1863 2878.97 398 2856.53 513.314Z" fill="#C5E2F1" fill-opacity="0.9"/>
<path d="M1191.53 601.314C1174.61 688.245 1171.03 610.814 853.531 709.814C143.53 538.314 420.109 241.245 437.03 154.314C453.951 67.383 578.867 216.169 773.531 245.814C968.194 275.458 836.531 423.314 1191.53 601.314Z" fill="#F0CEC3" fill-opacity="0.5"/>
</g>
<g filter="url(#filter1_bd_900_1188)">
<path d="M575.806 -74.0139C576.257 -77.7906 580.593 -79.7005 583.684 -77.4842L934.66 174.153C937.807 176.409 937.306 181.232 933.763 182.793L531.55 359.969C528.007 361.529 524.111 358.644 524.57 354.8L575.806 -74.0139Z" fill="#EAEFF1" fill-opacity="0.25"/>
<path d="M576.302 -73.9545C576.708 -77.3536 580.61 -79.0725 583.392 -77.0778L934.369 174.56C937.201 176.59 936.75 180.93 933.561 182.335L531.349 359.511C528.16 360.916 524.653 358.319 525.066 354.859L576.302 -73.9545Z" stroke="#0092DD" stroke-opacity="0.5"/>
<path d="M-92.5542 -186.363C-96.0328 -187.901 -96.5883 -192.606 -93.5634 -194.912L385.808 -560.359C388.887 -562.706 393.351 -560.814 393.805 -556.969L465.725 52.2527C466.179 56.0978 462.278 58.9776 458.737 57.4118L-92.5542 -186.363Z" fill="#EAEFF1" fill-opacity="0.25"/>
<path d="M-92.352 -186.82C-95.4828 -188.205 -95.9827 -192.439 -93.2603 -194.515L386.111 -559.961C388.882 -562.074 392.9 -560.371 393.308 -556.91L465.228 52.3113C465.637 55.7719 462.127 58.3637 458.94 56.9545L-92.352 -186.82Z" stroke="#0092DD" stroke-opacity="0.5"/>
<path d="M154.655 1081.98C150.901 1081.37 149.183 1076.95 151.532 1073.96L297.335 888.32C299.727 885.275 304.522 885.987 305.927 889.595L393.061 1113.47C394.466 1117.07 391.413 1120.84 387.592 1120.21L154.655 1081.98Z" fill="#EAEFF1" fill-opacity="0.25"/>
<path d="M154.736 1081.49C151.358 1080.94 149.811 1076.96 151.926 1074.27L297.728 888.629C299.881 885.888 304.197 886.529 305.461 889.776L392.595 1113.65C393.859 1116.9 391.111 1120.29 387.673 1119.72L154.736 1081.49Z" stroke="#0092DD" stroke-opacity="0.5"/>
<path d="M3111.15 649.099C3107.5 650.169 3104.04 646.934 3104.86 643.22L3155.9 412.749C3156.73 408.969 3161.36 407.533 3164.19 410.177L3339.68 574.237C3342.51 576.881 3341.39 581.598 3337.67 582.687L3111.15 649.099Z" fill="#EAEFF1" fill-opacity="0.25"/>
<path d="M3111.01 648.619C3107.73 649.582 3104.61 646.67 3105.35 643.328L3156.38 412.857C3157.14 409.455 3161.31 408.163 3163.85 410.543L3339.34 574.602C3341.88 576.982 3340.87 581.227 3337.53 582.208L3111.01 648.619Z" stroke="#0092DD" stroke-opacity="0.5"/>
<path d="M840.429 1088.53C843.991 1087.2 847.678 1090.18 847.129 1093.94L776.616 1576.69C776.057 1580.53 771.543 1582.29 768.529 1579.86L382.108 1268.09C379.094 1265.66 379.869 1260.87 383.495 1259.52L840.429 1088.53Z" fill="#EAEFF1" fill-opacity="0.25"/>
<path d="M840.604 1089C843.81 1087.8 847.129 1090.48 846.634 1093.87L776.122 1576.62C775.618 1580.07 771.555 1581.66 768.843 1579.47L382.422 1267.7C379.71 1265.51 380.407 1261.21 383.67 1259.99L840.604 1089Z" stroke="#0092DD" stroke-opacity="0.5"/>
<path d="M1929.06 -17.3213C1925.62 -18.948 1925.19 -23.6657 1928.27 -25.8935L2324.68 -312.357C2327.82 -314.625 2332.23 -312.619 2332.59 -308.764L2378.27 186.875C2378.63 190.731 2374.65 193.51 2371.15 191.854L1929.06 -17.3213Z" fill="#EAEFF1" fill-opacity="0.25"/>
<path d="M1929.27 -17.7732C1926.18 -19.2373 1925.79 -23.4832 1928.56 -25.4883L2324.97 -311.952C2327.8 -313.993 2331.77 -312.188 2332.09 -308.718L2377.77 186.921C2378.09 190.391 2374.52 192.892 2371.37 191.402L1929.27 -17.7732Z" stroke="#0092DD" stroke-opacity="0.5"/>
<path d="M2694.29 676.949C2692.98 673.379 2695.98 669.708 2699.74 670.278L3183.3 743.561C3187.13 744.141 3188.87 748.665 3186.42 751.665L2871.81 1137.36C2869.36 1140.36 2864.58 1139.56 2863.24 1135.93L2694.29 676.949Z" fill="#EAEFF1" fill-opacity="0.25"/>
<path d="M2694.76 676.776C2693.58 673.563 2696.28 670.259 2699.66 670.772L3183.22 744.055C3186.67 744.577 3188.24 748.649 3186.04 751.349L2871.42 1137.04C2869.22 1139.74 2864.91 1139.02 2863.71 1135.75L2694.76 676.776Z" stroke="#0092DD" stroke-opacity="0.5"/>
<path d="M895.958 373.04C898.169 372.475 900.176 374.488 899.605 376.698L888.011 421.535C887.43 423.784 884.623 424.547 882.982 422.902L849.705 389.526C848.065 387.881 848.836 385.076 851.087 384.501L895.958 373.04Z" fill="#EAEFF1" fill-opacity="0.25"/>
<path d="M896.082 373.525C897.924 373.054 899.597 374.731 899.121 376.573L887.527 421.409C887.043 423.284 884.703 423.92 883.337 422.549L850.059 389.173C848.692 387.802 849.335 385.464 851.211 384.985L896.082 373.525Z" stroke="#0092DD" stroke-opacity="0.5"/>
<path d="M910.562 1642.68C912.774 1642.12 914.781 1644.13 914.209 1646.34L898.618 1706.64C898.036 1708.89 895.229 1709.65 893.589 1708L848.837 1663.12C847.197 1661.47 847.969 1658.67 850.219 1658.1L910.562 1642.68Z" fill="#EAEFF1" fill-opacity="0.25"/>
<path d="M910.686 1643.17C912.529 1642.7 914.201 1644.37 913.725 1646.22L898.134 1706.51C897.649 1708.39 895.31 1709.02 893.943 1707.65L849.191 1662.77C847.825 1661.4 848.467 1659.06 850.343 1658.58L910.686 1643.17Z" stroke="#0092DD" stroke-opacity="0.5"/>
<path d="M2513.2 1111.81C2515.45 1111.48 2517.24 1113.69 2516.44 1115.83L2485.73 1198.12C2484.91 1200.3 2482.04 1200.77 2480.58 1198.96L2424.39 1129.43C2422.93 1127.63 2423.99 1124.92 2426.29 1124.58L2513.2 1111.81Z" fill="#EAEFF1" fill-opacity="0.25"/>
<path d="M2513.27 1112.31C2515.15 1112.03 2516.64 1113.88 2515.97 1115.66L2485.26 1197.95C2484.58 1199.76 2482.19 1200.15 2480.97 1198.65L2424.78 1129.12C2423.57 1127.61 2424.45 1125.36 2426.36 1125.08L2513.27 1112.31Z" stroke="#D2876F" stroke-opacity="0.5"/>
<path d="M138.2 119.086C140.458 118.755 142.244 120.966 141.446 123.104L110.73 205.394C109.918 207.571 107.046 208.038 105.586 206.231L49.3986 136.706C47.9384 134.899 48.9975 132.19 51.2959 131.852L138.2 119.086Z" fill="#EAEFF1" fill-opacity="0.25"/>
<path d="M138.272 119.581C140.154 119.305 141.643 121.147 140.978 122.929L110.262 205.219C109.585 207.033 107.192 207.422 105.975 205.917L49.7875 136.392C48.5707 134.886 49.4532 132.628 51.3686 132.347L138.272 119.581Z" stroke="#D2876F" stroke-opacity="0.5"/>
<path d="M2543.91 115.04C2546.12 114.475 2548.13 116.488 2547.56 118.698L2535.96 163.535C2535.38 165.784 2532.57 166.547 2530.93 164.902L2497.66 131.526C2496.02 129.881 2496.79 127.076 2499.04 126.501L2543.91 115.04Z" fill="#EAEFF1" fill-opacity="0.25"/>
<path d="M2544.03 115.525C2545.88 115.054 2547.55 116.731 2547.07 118.573L2535.48 163.409C2534.99 165.284 2532.65 165.92 2531.29 164.549L2498.01 131.173C2496.64 129.802 2497.29 127.464 2499.16 126.985L2544.03 115.525Z" stroke="#0092DD" stroke-opacity="0.5"/>
<path d="M2347.11 1034.25C2349.32 1033.69 2351.33 1035.7 2350.76 1037.91L2345.66 1057.64C2345.07 1059.89 2342.27 1060.65 2340.63 1059.01L2325.98 1044.32C2324.34 1042.67 2325.11 1039.87 2327.37 1039.29L2347.11 1034.25Z" fill="#EAEFF1" fill-opacity="0.25"/>
<path d="M2347.23 1034.73C2349.08 1034.26 2350.75 1035.94 2350.27 1037.78L2345.17 1057.51C2344.69 1059.39 2342.35 1060.02 2340.98 1058.65L2326.34 1043.97C2324.97 1042.59 2325.61 1040.26 2327.49 1039.78L2347.23 1034.73Z" stroke="#0092DD" stroke-opacity="0.5"/>
<path d="M2589.45 404.768C2591.66 404.203 2593.67 406.216 2593.1 408.426L2573.24 485.205C2572.66 487.454 2569.86 488.217 2568.22 486.572L2511.23 429.418C2509.59 427.773 2510.36 424.968 2512.61 424.394L2589.45 404.768Z" fill="#EAEFF1" fill-opacity="0.25"/>
<path d="M2589.57 405.252C2591.42 404.782 2593.09 406.459 2592.61 408.301L2572.76 485.08C2572.28 486.954 2569.94 487.59 2568.57 486.219L2511.59 429.065C2510.22 427.695 2510.86 425.357 2512.74 424.878L2589.57 405.252Z" stroke="#D2876F" stroke-opacity="0.5"/>
<path d="M2947.03 512.906C2945.15 511.616 2945.34 508.78 2947.38 507.753L3018.19 472.051C3020.27 471.005 3022.69 472.612 3022.53 474.93L3017.14 555.457C3016.99 557.775 3014.37 559.045 3012.45 557.732L2947.03 512.906Z" fill="#EAEFF1" fill-opacity="0.25"/>
<path d="M2947.32 512.494C2945.75 511.419 2945.9 509.055 2947.6 508.199L3018.42 472.497C3020.14 471.626 3022.17 472.965 3022.04 474.897L3016.64 555.424C3016.51 557.356 3014.33 558.414 3012.74 557.319L2947.32 512.494Z" stroke="#D2876F" stroke-opacity="0.5"/>
<path d="M715.39 725.333C713.22 726.039 711.087 724.16 711.514 721.918L722.426 664.71C722.861 662.428 725.613 661.485 727.356 663.021L771.825 702.206C773.568 703.742 772.979 706.591 770.77 707.31L715.39 725.333Z" fill="#EAEFF1" fill-opacity="0.25"/>
<path d="M715.235 724.857C713.427 725.446 711.649 723.88 712.006 722.012L722.917 664.804C723.28 662.902 725.573 662.117 727.026 663.396L771.494 702.581C772.947 703.861 772.456 706.235 770.615 706.834L715.235 724.857Z" stroke="#D2876F" stroke-opacity="0.5"/>
<path d="M127.382 883.606C125.212 884.312 123.079 882.433 123.507 880.191L134.418 822.984C134.853 820.702 137.606 819.759 139.348 821.295L183.817 860.48C185.56 862.016 184.971 864.864 182.762 865.583L127.382 883.606Z" fill="#EAEFF1" fill-opacity="0.25"/>
<path d="M127.227 883.131C125.419 883.719 123.641 882.153 123.998 880.285L134.909 823.077C135.272 821.176 137.565 820.39 139.018 821.67L183.487 860.855C184.939 862.135 184.448 864.509 182.608 865.108L127.227 883.131Z" stroke="#D2876F" stroke-opacity="0.5"/>
</g>
</g>
<defs>
<filter id="filter0_f_900_1188" x="37" y="-504" width="3157.69" height="1546.81" filterUnits="userSpaceOnUse" color-interpolation-filters="sRGB">
<feFlood flood-opacity="0" result="BackgroundImageFix"/>
<feBlend mode="normal" in="SourceGraphic" in2="BackgroundImageFix" result="shape"/>
<feGaussianBlur stdDeviation="166.5" result="effect1_foregroundBlur_900_1188"/>
</filter>
<filter id="filter1_bd_900_1188" x="-155.533" y="-621.389" width="3556.8" height="2390.28" filterUnits="userSpaceOnUse" color-interpolation-filters="sRGB">
<feFlood flood-opacity="0" result="BackgroundImageFix"/>
<feGaussianBlur in="BackgroundImageFix" stdDeviation="30"/>
<feComposite in2="SourceAlpha" operator="in" result="effect1_backgroundBlur_900_1188"/>
<feColorMatrix in="SourceAlpha" type="matrix" values="0 0 0 0 0 0 0 0 0 0 0 0 0 0 0 0 0 0 127 0" result="hardAlpha"/>
<feOffset/>
<feGaussianBlur stdDeviation="10"/>
<feComposite in2="hardAlpha" operator="out"/>
<feColorMatrix type="matrix" values="0 0 0 0 0.415686 0 0 0 0 0.415686 0 0 0 0 0.415686 0 0 0 0.25 0"/>
<feBlend mode="normal" in2="effect1_backgroundBlur_900_1188" result="effect2_dropShadow_900_1188"/>
<feBlend mode="normal" in="SourceGraphic" in2="effect2_dropShadow_900_1188" result="shape"/>
</filter>
<clipPath id="clip0_900_1188">
<rect width="3388" height="2816" fill="white"/>
</clipPath>
</defs>
</svg>
