<svg width="1920" height="2991" viewBox="0 0 1920 2991" fill="none" xmlns="http://www.w3.org/2000/svg">
<g clip-path="url(#clip0_740_1744)">
<rect width="1920" height="2991" fill="#FDFEFF"/>
<g filter="url(#filter0_bd_740_1744)">
<path d="M300.056 310.097C303.01 307.7 307.452 309.347 308.127 313.09L384.872 738.08C385.56 741.891 381.842 745.003 378.212 743.657L-33.86 590.809C-37.4901 589.462 -38.2782 584.678 -35.2719 582.238L300.056 310.097Z" fill="#EAEFF1" fill-opacity="0.25"/>
<path d="M307.635 313.179L384.38 738.169C384.999 741.598 381.653 744.4 378.386 743.188L-33.6861 590.34C-36.9532 589.128 -37.6625 584.822 -34.9568 582.627L300.371 310.485C303.029 308.328 307.027 309.811 307.635 313.179Z" stroke="#0092DD" stroke-opacity="0.5"/>
<path d="M945.799 576.081C948.197 573.129 952.883 573.83 954.313 577.355L1116.63 977.554C1118.08 981.142 1115.09 984.951 1111.26 984.378L676.588 919.337C672.759 918.764 671.006 914.244 673.448 911.239L945.799 576.081Z" fill="#EAEFF1" fill-opacity="0.25"/>
<path d="M953.849 577.543L1116.17 977.742C1117.48 980.971 1114.78 984.399 1111.33 983.884L676.662 918.843C673.216 918.327 671.639 914.259 673.836 911.555L946.187 576.396C948.346 573.739 952.563 574.37 953.849 577.543Z" stroke="#0092DD" stroke-opacity="0.5"/>
<path d="M1654.37 1987.76C1654.34 1991.56 1650.24 1993.94 1646.93 1992.08L1290.05 1791.97C1286.67 1790.07 1286.63 1785.23 1289.98 1783.28L1650.03 1574.25C1653.38 1572.31 1657.57 1574.75 1657.54 1578.62L1654.37 1987.76Z" fill="#EAEFF1" fill-opacity="0.25"/>
<path d="M1647.17 1991.65L1290.29 1791.53C1287.25 1789.83 1287.22 1785.47 1290.23 1783.72L1650.28 1574.69C1653.3 1572.94 1657.07 1575.13 1657.04 1578.61L1653.87 1987.76C1653.84 1991.18 1650.16 1993.32 1647.17 1991.65Z" stroke="#D2876F" stroke-opacity="0.5"/>
<path d="M504.328 2889.43C504.298 2893.24 500.201 2895.62 496.883 2893.76L-31.28 2597.6C-34.657 2595.7 -34.6932 2590.86 -31.345 2588.91L501.513 2279.56C504.861 2277.62 509.053 2280.05 509.023 2283.92L504.328 2889.43Z" fill="#EAEFF1" fill-opacity="0.25"/>
<path d="M497.127 2893.32L-31.0355 2597.16C-34.0747 2595.46 -34.1073 2591.09 -31.0939 2589.34L501.764 2279.99C504.777 2278.24 508.55 2280.43 508.523 2283.92L503.828 2889.43C503.801 2892.85 500.113 2894.99 497.127 2893.32Z" stroke="#D2876F" stroke-opacity="0.5"/>
<path d="M275.662 1983.75C279.317 1982.7 282.764 1985.95 281.924 1989.66L221.98 2254.47C221.125 2258.25 216.488 2259.66 213.672 2257.01L12.7289 2067.41C9.91298 2064.75 11.0552 2060.04 14.7753 2058.96L275.662 1983.75Z" fill="#EAEFF1" fill-opacity="0.25"/>
<path d="M281.436 1989.55L221.492 2254.36C220.723 2257.76 216.55 2259.03 214.015 2256.64L13.0721 2067.04C10.5377 2064.65 11.5657 2060.41 14.9138 2059.44L275.801 1984.23C279.09 1983.28 282.192 1986.21 281.436 1989.55Z" stroke="#D2876F" stroke-opacity="0.5"/>
<path d="M-309.131 1225.42C-314.598 1220.13 -312.392 1210.91 -305.122 1208.67L316.632 1017.11C324.032 1014.83 331.105 1021.46 329.302 1028.99L175.152 1672.91C173.35 1680.44 164.04 1683.15 158.474 1677.77L-309.131 1225.42Z" fill="#EAEFF1" fill-opacity="0.25"/>
<path d="M-304.975 1209.15L316.779 1017.59C323.81 1015.42 330.528 1021.72 328.815 1028.88L174.666 1672.79C172.953 1679.95 164.109 1682.52 158.822 1677.41L-308.783 1225.06C-313.977 1220.03 -311.881 1211.28 -304.975 1209.15Z" stroke="#0092DD" stroke-opacity="0.5"/>
<path d="M1632.81 642.786C1633.38 639.025 1637.77 637.246 1640.79 639.554L2244.97 1100.77C2248.05 1103.12 2247.4 1107.93 2243.81 1109.38L1526.87 1399.85C1523.28 1401.31 1519.47 1398.31 1520.05 1394.48L1632.81 642.786Z" fill="#EAEFF1" fill-opacity="0.25"/>
<path d="M1640.49 639.951L2244.67 1101.17C2247.44 1103.29 2246.86 1107.61 2243.63 1108.92L1526.68 1399.39C1523.45 1400.7 1520.02 1398 1520.54 1394.55L1633.31 642.861C1633.82 639.475 1637.77 637.874 1640.49 639.951Z" stroke="#0092DD" stroke-opacity="0.5"/>
<path d="M937.423 2118.05C936.057 2114.5 938.997 2110.78 942.765 2111.3L1695.89 2214.04C1699.73 2214.57 1701.54 2219.06 1699.14 2222.1L1219.11 2828.7C1216.71 2831.74 1211.92 2831.01 1210.53 2827.39L937.423 2118.05Z" fill="#EAEFF1" fill-opacity="0.25"/>
<path d="M942.698 2111.79L1695.82 2214.54C1699.28 2215.01 1700.91 2219.06 1698.74 2221.79L1218.72 2828.39C1216.56 2831.12 1212.24 2830.47 1210.99 2827.21L937.89 2117.87C936.66 2114.67 939.306 2111.33 942.698 2111.79Z" stroke="#D2876F" stroke-opacity="0.5"/>
<path d="M1140.24 387.623C1136.7 386.222 1135.96 381.542 1138.89 379.119L1515.95 67.6148C1518.93 65.1488 1523.46 66.865 1524.07 70.6895L1601.72 562.335C1602.32 566.16 1598.54 569.19 1594.94 567.764L1140.24 387.623Z" fill="#EAEFF1" fill-opacity="0.25"/>
<path d="M1139.21 379.505L1516.26 68.0003C1518.95 65.7808 1523.03 67.3255 1523.57 70.7675L1601.22 562.413C1601.77 565.855 1598.36 568.583 1595.12 567.299L1140.42 387.158C1137.24 385.897 1136.57 381.685 1139.21 379.505Z" stroke="#0092DD" stroke-opacity="0.5"/>
<path d="M215.588 743.824C217.799 743.259 219.806 745.272 219.235 747.481L207.641 792.318C207.06 794.567 204.253 795.33 202.612 793.685L169.335 760.309C167.695 758.664 168.466 755.859 170.717 755.285L215.588 743.824Z" fill="#EAEFF1" fill-opacity="0.25"/>
<path d="M218.751 747.356L207.157 792.193C206.673 794.067 204.333 794.703 202.966 793.332L169.689 759.956C168.322 758.585 168.965 756.248 170.841 755.769L215.712 744.308C217.554 743.838 219.227 745.515 218.751 747.356Z" stroke="#0092DD" stroke-opacity="0.5"/>
<path d="M1838.43 2008.62C1840.69 2008.29 1842.47 2010.5 1841.68 2012.64L1825.48 2056.03C1824.67 2058.2 1821.8 2058.67 1820.34 2056.86L1790.71 2020.21C1789.25 2018.4 1790.31 2015.69 1792.61 2015.35L1838.43 2008.62Z" fill="#EAEFF1" fill-opacity="0.25"/>
<path d="M1841.21 2012.47L1825.01 2055.85C1824.34 2057.67 1821.94 2058.06 1820.73 2056.55L1791.1 2019.89C1789.89 2018.39 1790.77 2016.13 1792.68 2015.85L1838.5 2009.12C1840.38 2008.84 1841.87 2010.68 1841.21 2012.47Z" stroke="#D2876F" stroke-opacity="0.5"/>
<path d="M1778.59 322.825C1780.8 322.26 1782.81 324.273 1782.23 326.483L1770.64 371.32C1770.06 373.569 1767.25 374.332 1765.61 372.687L1732.33 339.311C1730.69 337.666 1731.47 334.861 1733.72 334.286L1778.59 322.825Z" fill="#EAEFF1" fill-opacity="0.25"/>
<path d="M1781.75 326.358L1770.16 371.194C1769.67 373.069 1767.33 373.705 1765.97 372.334L1732.69 338.958C1731.32 337.587 1731.96 335.25 1733.84 334.77L1778.71 323.31C1780.55 322.839 1782.23 324.517 1781.75 326.358Z" stroke="#0092DD" stroke-opacity="0.5"/>
<path d="M1334.09 1043.55C1336.3 1042.99 1338.31 1045 1337.74 1047.21L1317.89 1123.99C1317.3 1126.24 1314.5 1127 1312.86 1125.36L1255.87 1068.2C1254.23 1066.56 1255 1063.75 1257.25 1063.18L1334.09 1043.55Z" fill="#EAEFF1" fill-opacity="0.25"/>
<path d="M1337.25 1047.09L1317.4 1123.86C1316.92 1125.74 1314.58 1126.37 1313.21 1125L1256.23 1067.85C1254.86 1066.48 1255.5 1064.14 1257.38 1063.66L1334.22 1044.04C1336.06 1043.57 1337.73 1045.24 1337.25 1047.09Z" stroke="#D2876F" stroke-opacity="0.5"/>
<path d="M305.305 1727.44C303.135 1728.15 301.002 1726.27 301.429 1724.03L316.288 1646.13C316.723 1643.85 319.475 1642.9 321.218 1644.44L381.771 1697.8C383.514 1699.33 382.925 1702.18 380.716 1702.9L305.305 1727.44Z" fill="#EAEFF1" fill-opacity="0.25"/>
<path d="M301.921 1724.12L316.779 1646.22C317.142 1644.32 319.435 1643.53 320.887 1644.81L381.44 1698.17C382.893 1699.45 382.402 1701.83 380.561 1702.42L305.15 1726.97C303.341 1727.56 301.564 1725.99 301.921 1724.12Z" stroke="#D2876F" stroke-opacity="0.5"/>
</g>
</g>
<defs>
<filter id="filter0_bd_740_1744" x="-372.183" y="6.46436" width="2679.12" height="2947.94" filterUnits="userSpaceOnUse" color-interpolation-filters="sRGB">
<feFlood flood-opacity="0" result="BackgroundImageFix"/>
<feGaussianBlur in="BackgroundImageFix" stdDeviation="30"/>
<feComposite in2="SourceAlpha" operator="in" result="effect1_backgroundBlur_740_1744"/>
<feColorMatrix in="SourceAlpha" type="matrix" values="0 0 0 0 0 0 0 0 0 0 0 0 0 0 0 0 0 0 127 0" result="hardAlpha"/>
<feOffset/>
<feGaussianBlur stdDeviation="10"/>
<feComposite in2="hardAlpha" operator="out"/>
<feColorMatrix type="matrix" values="0 0 0 0 0.415686 0 0 0 0 0.415686 0 0 0 0 0.415686 0 0 0 0.25 0"/>
<feBlend mode="normal" in2="effect1_backgroundBlur_740_1744" result="effect2_dropShadow_740_1744"/>
<feBlend mode="normal" in="SourceGraphic" in2="effect2_dropShadow_740_1744" result="shape"/>
</filter>
<clipPath id="clip0_740_1744">
<rect width="1920" height="2991" fill="white"/>
</clipPath>
</defs>
</svg>
