<svg width="4770" height="3183" viewBox="0 0 4770 3183" fill="none" xmlns="http://www.w3.org/2000/svg">
<g clip-path="url(#clip0_909_345)">
<rect width="4770" height="3183" fill="#FDFEFF"/>
<g filter="url(#filter0_bd_909_345)">
<path d="M1805.68 269.101C1808.63 266.704 1813.08 268.351 1813.75 272.094L1890.5 697.084C1891.18 700.894 1887.47 704.007 1883.84 702.661L1471.77 549.812C1468.13 548.466 1467.35 543.682 1470.35 541.242L1805.68 269.101Z" fill="#EAEFF1" fill-opacity="0.25"/>
<path d="M1813.26 272.183L1890 697.173C1890.62 700.602 1887.28 703.404 1884.01 702.192L1471.94 549.344C1468.67 548.132 1467.96 543.826 1470.67 541.63L1806 269.489C1808.65 267.332 1812.65 268.814 1813.26 272.183Z" stroke="#0092DD" stroke-opacity="0.5"/>
<path d="M4735.16 1057.5C4738.81 1056.43 4742.27 1059.67 4741.45 1063.38L4648.27 1485.07C4647.43 1488.85 4642.8 1490.29 4639.97 1487.65L4318.79 1187.63C4315.96 1184.99 4317.08 1180.27 4320.79 1179.18L4735.16 1057.5Z" fill="#EAEFF1" fill-opacity="0.25"/>
<path d="M4740.96 1063.27L4647.78 1484.96C4647.03 1488.36 4642.86 1489.66 4640.31 1487.28L4319.13 1187.27C4316.58 1184.89 4317.59 1180.64 4320.93 1179.66L4735.3 1057.98C4738.59 1057.02 4741.7 1059.93 4740.96 1063.27Z" stroke="#0092DD" stroke-opacity="0.5"/>
<path d="M790.854 471.7C790.508 467.912 794.35 465.14 797.835 466.663L1193.56 639.596C1197.11 641.146 1197.63 645.967 1194.49 648.233L838.052 905.372C834.912 907.637 830.499 905.628 830.147 901.772L790.854 471.7Z" fill="#EAEFF1" fill-opacity="0.25"/>
<path d="M797.635 467.122L1193.36 640.054C1196.56 641.45 1197.02 645.788 1194.19 647.827L837.759 904.967C834.933 907.005 830.962 905.197 830.645 901.727L791.352 471.654C791.04 468.245 794.498 465.751 797.635 467.122Z" stroke="#0092DD" stroke-opacity="0.5"/>
<path d="M462.278 724.525C466.07 724.238 468.782 728.123 467.205 731.584L288.118 1124.57C286.512 1128.09 281.684 1128.53 279.468 1125.35L27.9218 764.95C25.7058 761.775 27.7839 757.395 31.6447 757.103L462.278 724.525Z" fill="#EAEFF1" fill-opacity="0.25"/>
<path d="M466.75 731.377L287.663 1124.36C286.218 1127.53 281.873 1127.92 279.878 1125.07L28.3318 764.664C26.3374 761.806 28.2077 757.864 31.6824 757.601L462.315 725.023C465.729 724.765 468.169 728.262 466.75 731.377Z" stroke="#0092DD" stroke-opacity="0.5"/>
<path d="M2451.42 535.08C2453.82 532.128 2458.51 532.83 2459.94 536.354L2622.25 936.553C2623.71 940.141 2620.71 943.951 2616.88 943.378L2182.21 878.337C2178.38 877.764 2176.63 873.244 2179.07 870.239L2451.42 535.08Z" fill="#EAEFF1" fill-opacity="0.25"/>
<path d="M2459.47 536.542L2621.79 936.741C2623.1 939.971 2620.4 943.399 2616.95 942.883L2182.29 877.842C2178.84 877.327 2177.26 873.258 2179.46 870.554L2451.81 535.396C2453.97 532.739 2458.19 533.37 2459.47 536.542Z" stroke="#0092DD" stroke-opacity="0.5"/>
<path d="M3159.99 1946.76C3159.96 1950.57 3155.86 1952.95 3152.54 1951.09L2795.66 1750.97C2792.28 1749.08 2792.25 1744.23 2795.6 1742.29L3155.65 1533.26C3159 1531.31 3163.19 1533.75 3163.16 1537.62L3159.99 1946.76Z" fill="#EAEFF1" fill-opacity="0.25"/>
<path d="M3152.79 1950.65L2795.91 1750.54C2792.87 1748.83 2792.83 1744.47 2795.85 1742.72L3155.9 1533.69C3158.91 1531.94 3162.69 1534.13 3162.66 1537.62L3159.49 1946.76C3159.46 1950.18 3155.77 1952.32 3152.79 1950.65Z" stroke="#D2876F" stroke-opacity="0.5"/>
<path d="M2009.96 2848.43C2009.93 2852.24 2005.83 2854.61 2002.52 2852.75L1474.35 2556.59C1470.98 2554.7 1470.94 2549.85 1474.29 2547.91L2007.15 2238.56C2010.49 2236.61 2014.69 2239.05 2014.66 2242.92L2009.96 2848.43Z" fill="#EAEFF1" fill-opacity="0.25"/>
<path d="M2002.76 2852.32L1474.6 2556.16C1471.56 2554.45 1471.53 2550.09 1474.54 2548.34L2007.4 2238.99C2010.41 2237.24 2014.18 2239.43 2014.16 2242.92L2009.46 2848.43C2009.43 2851.85 2005.75 2853.99 2002.76 2852.32Z" stroke="#D2876F" stroke-opacity="0.5"/>
<path d="M3802.3 2963.88C3801.3 2967.55 3796.73 2968.8 3794 2966.15L3359.34 2544.56C3356.56 2541.87 3357.76 2537.17 3361.5 2536.15L3955.83 2373.64C3959.56 2372.62 3962.99 2376.05 3961.97 2379.78L3802.3 2963.88Z" fill="#EAEFF1" fill-opacity="0.25"/>
<path d="M3794.34 2965.79L3359.68 2544.2C3357.18 2541.78 3358.27 2537.55 3361.63 2536.63L3955.96 2374.12C3959.32 2373.2 3962.41 2376.29 3961.49 2379.65L3801.82 2963.75C3800.91 2967.05 3796.8 2968.18 3794.34 2965.79Z" stroke="#D2876F" stroke-opacity="0.5"/>
<path d="M1117.22 2901.57C1119.53 2904.59 1117.76 2908.99 1114 2909.56L515.375 3000.72C511.548 3001.3 508.538 2997.5 509.984 2993.91L740.03 2422.32C741.476 2418.73 746.279 2418.07 748.636 2421.14L1117.22 2901.57Z" fill="#EAEFF1" fill-opacity="0.25"/>
<path d="M1113.93 2909.06L515.3 3000.22C511.855 3000.75 509.147 2997.33 510.448 2994.09L740.494 2422.5C741.795 2419.27 746.118 2418.68 748.239 2421.45L1116.82 2901.88C1118.91 2904.59 1117.31 2908.55 1113.93 2909.06Z" stroke="#D2876F" stroke-opacity="0.5"/>
<path d="M1781.29 1942.76C1784.94 1941.7 1788.39 1944.95 1787.55 1948.66L1727.6 2213.48C1726.75 2217.25 1722.11 2218.67 1719.3 2216.01L1518.35 2026.41C1515.54 2023.75 1516.68 2019.04 1520.4 2017.97L1781.29 1942.76Z" fill="#EAEFF1" fill-opacity="0.25"/>
<path d="M1787.06 1948.55L1727.12 2213.37C1726.35 2216.76 1722.17 2218.04 1719.64 2215.65L1518.7 2026.04C1516.16 2023.65 1517.19 2019.41 1520.54 2018.45L1781.42 1943.24C1784.71 1942.29 1787.82 1945.21 1787.06 1948.55Z" stroke="#D2876F" stroke-opacity="0.5"/>
<path d="M1096.33 77.7731C1099.99 76.7194 1103.43 79.9712 1102.59 83.6813L1042.65 348.494C1041.79 352.27 1037.16 353.683 1034.34 351.026L833.397 161.426C830.581 158.769 831.723 154.057 835.443 152.985L1096.33 77.7731Z" fill="#EAEFF1" fill-opacity="0.25"/>
<path d="M1102.1 83.5709L1042.16 348.383C1041.39 351.782 1037.22 353.054 1034.68 350.663L833.74 161.062C831.206 158.671 832.234 154.431 835.582 153.465L1096.47 78.2535C1099.76 77.3052 1102.86 80.2318 1102.1 83.5709Z" stroke="#D2876F" stroke-opacity="0.5"/>
<path d="M1196.49 1184.42C1191.02 1179.13 1193.23 1169.91 1200.5 1167.67L1822.26 976.108C1829.66 973.828 1836.73 980.462 1834.92 987.993L1680.78 1631.91C1678.97 1639.44 1669.66 1642.15 1664.1 1636.77L1196.49 1184.42Z" fill="#EAEFF1" fill-opacity="0.25"/>
<path d="M1200.65 1168.15L1822.4 976.586C1829.43 974.42 1836.15 980.723 1834.44 987.877L1680.29 1631.79C1678.58 1638.95 1669.73 1641.52 1664.45 1636.41L1196.84 1184.06C1191.65 1179.03 1193.74 1170.28 1200.65 1168.15Z" stroke="#0092DD" stroke-opacity="0.5"/>
<path d="M3887 78.9339C3889.06 71.6094 3898.21 69.17 3903.64 74.5014L4367.72 530.463C4373.25 535.89 4370.77 545.266 4363.29 547.259L3723.5 717.718C3716.02 719.712 3709.2 712.81 3711.29 705.354L3887 78.9339Z" fill="#EAEFF1" fill-opacity="0.25"/>
<path d="M3903.29 74.8581L4367.37 530.82C4372.62 535.976 4370.27 544.882 4363.16 546.776L3723.37 717.235C3716.26 719.129 3709.79 712.572 3711.78 705.489L3887.48 79.069C3889.44 72.1107 3898.13 69.7932 3903.29 74.8581Z" stroke="#0092DD" stroke-opacity="0.5"/>
<path d="M3648.7 1553.22C3644.5 1546.88 3648.63 1538.36 3656.21 1537.73L4304.62 1484.42C4312.34 1483.78 4317.82 1491.78 4314.44 1498.75L4025.37 2094.42C4021.99 2101.39 4012.31 2102.04 4008.04 2095.58L3648.7 1553.22Z" fill="#EAEFF1" fill-opacity="0.25"/>
<path d="M3656.26 1538.23L4304.66 1484.91C4312 1484.31 4317.2 1491.91 4313.99 1498.53L4024.92 2094.21C4021.71 2100.82 4012.52 2101.44 4008.45 2095.3L3649.11 1552.95C3645.12 1546.92 3649.05 1538.82 3656.26 1538.23Z" stroke="#0092DD" stroke-opacity="0.5"/>
<path d="M610.457 1430.32C608.789 1422.9 615.69 1416.4 622.997 1418.52L1247.89 1599.58C1255.33 1601.74 1257.6 1611.16 1251.96 1616.47L769.732 2070.17C764.092 2075.48 754.821 2072.64 753.123 2065.08L610.457 1430.32Z" fill="#EAEFF1" fill-opacity="0.25"/>
<path d="M622.857 1419L1247.75 1600.06C1254.82 1602.11 1256.98 1611.06 1251.62 1616.11L769.389 2069.81C764.031 2074.85 755.224 2072.15 753.61 2064.97L610.945 1430.21C609.36 1423.16 615.916 1416.99 622.857 1419Z" stroke="#0092DD" stroke-opacity="0.5"/>
<path d="M3138.43 601.785C3138.99 598.024 3143.38 596.245 3146.41 598.553L3750.59 1059.77C3753.66 1062.12 3753.02 1066.93 3749.43 1068.38L3032.48 1358.85C3028.89 1360.31 3025.09 1357.31 3025.66 1353.48L3138.43 601.785Z" fill="#EAEFF1" fill-opacity="0.25"/>
<path d="M3146.1 598.95L3750.28 1060.17C3753.05 1062.28 3752.47 1066.61 3749.24 1067.92L3032.29 1358.39C3029.07 1359.7 3025.64 1357 3026.15 1353.55L3138.92 601.86C3139.43 598.474 3143.38 596.873 3146.1 598.95Z" stroke="#0092DD" stroke-opacity="0.5"/>
<path d="M2443.05 2077.05C2441.68 2073.5 2444.62 2069.78 2448.39 2070.3L3201.52 2173.04C3205.35 2173.56 3207.16 2178.06 3204.76 2181.1L2724.74 2787.7C2722.34 2790.73 2717.54 2790 2716.15 2786.39L2443.05 2077.05Z" fill="#EAEFF1" fill-opacity="0.25"/>
<path d="M2448.32 2070.79L3201.45 2173.54C3204.9 2174.01 3206.53 2178.05 3204.37 2180.79L2724.35 2787.39C2722.18 2790.12 2717.87 2789.46 2716.62 2786.21L2443.51 2076.87C2442.29 2073.67 2444.93 2070.33 2448.32 2070.79Z" stroke="#D2876F" stroke-opacity="0.5"/>
<path d="M2645.85 346.622C2642.32 345.221 2641.58 340.541 2644.51 338.118L3021.56 26.6138C3024.55 24.1478 3029.08 25.8641 3029.68 29.6885L3107.33 521.334C3107.94 525.159 3104.15 528.189 3100.55 526.763L2645.85 346.622Z" fill="#EAEFF1" fill-opacity="0.25"/>
<path d="M2644.83 338.504L3021.88 26.9993C3024.57 24.7799 3028.65 26.3245 3029.19 29.7665L3106.84 521.412C3107.38 524.854 3103.98 527.582 3100.74 526.298L2646.04 346.157C2642.85 344.896 2642.19 340.684 2644.83 338.504Z" stroke="#0092DD" stroke-opacity="0.5"/>
<path d="M1721.21 702.823C1723.42 702.259 1725.43 704.272 1724.86 706.481L1713.26 751.318C1712.68 753.567 1709.88 754.33 1708.24 752.685L1674.96 719.309C1673.32 717.664 1674.09 714.859 1676.34 714.284L1721.21 702.823Z" fill="#EAEFF1" fill-opacity="0.25"/>
<path d="M1724.37 706.356L1712.78 751.193C1712.3 753.067 1709.96 753.703 1708.59 752.332L1675.31 718.956C1673.95 717.585 1674.59 715.248 1676.46 714.769L1721.33 703.308C1723.18 702.837 1724.85 704.515 1724.37 706.356Z" stroke="#0092DD" stroke-opacity="0.5"/>
<path d="M4297.45 771.103C4299.66 770.538 4301.67 772.551 4301.1 774.76L4276.11 871.387C4275.53 873.636 4272.72 874.399 4271.08 872.754L4199.37 800.826C4197.73 799.181 4198.5 796.376 4200.75 795.801L4297.45 771.103Z" fill="#EAEFF1" fill-opacity="0.25"/>
<path d="M4300.61 774.635L4275.63 871.262C4275.14 873.136 4272.8 873.772 4271.44 872.401L4199.72 800.473C4198.35 799.102 4199 796.765 4200.87 796.286L4297.57 771.587C4299.42 771.116 4301.09 772.794 4300.61 774.635Z" stroke="#0092DD" stroke-opacity="0.5"/>
<path d="M3344.05 1967.62C3346.3 1967.29 3348.09 1969.5 3347.29 1971.64L3331.1 2015.03C3330.28 2017.2 3327.41 2017.67 3325.95 2015.86L3296.33 1979.21C3294.87 1977.4 3295.93 1974.69 3298.23 1974.35L3344.05 1967.62Z" fill="#EAEFF1" fill-opacity="0.25"/>
<path d="M3346.82 1971.46L3330.63 2014.85C3329.95 2016.67 3327.56 2017.05 3326.34 2015.55L3296.72 1978.89C3295.5 1977.39 3296.38 1975.13 3298.3 1974.85L3344.12 1968.12C3346 1967.84 3347.49 1969.68 3346.82 1971.46Z" stroke="#D2876F" stroke-opacity="0.5"/>
<path d="M4219.1 2521.64C4221.36 2521.31 4223.14 2523.52 4222.35 2525.66L4206.15 2569.05C4205.34 2571.22 4202.47 2571.69 4201.01 2569.88L4171.38 2533.23C4169.92 2531.42 4170.98 2528.71 4173.28 2528.37L4219.1 2521.64Z" fill="#EAEFF1" fill-opacity="0.25"/>
<path d="M4221.88 2525.49L4205.68 2568.87C4205.01 2570.69 4202.61 2571.08 4201.4 2569.57L4171.77 2532.91C4170.55 2531.41 4171.44 2529.15 4173.35 2528.87L4219.17 2522.14C4221.05 2521.86 4222.54 2523.7 4221.88 2525.49Z" stroke="#D2876F" stroke-opacity="0.5"/>
<path d="M3284.2 281.829C3286.41 281.264 3288.42 283.277 3287.85 285.487L3276.26 330.324C3275.67 332.573 3272.87 333.336 3271.23 331.691L3237.95 298.315C3236.31 296.67 3237.08 293.865 3239.33 293.29L3284.2 281.829Z" fill="#EAEFF1" fill-opacity="0.25"/>
<path d="M3287.36 285.362L3275.77 330.198C3275.29 332.073 3272.95 332.709 3271.58 331.338L3238.3 297.962C3236.94 296.591 3237.58 294.253 3239.45 293.774L3284.33 282.314C3286.17 281.843 3287.84 283.52 3287.36 285.362Z" stroke="#0092DD" stroke-opacity="0.5"/>
<path d="M2839.71 1002.56C2841.92 1001.99 2843.92 1004 2843.35 1006.21L2823.5 1082.99C2822.92 1085.24 2820.11 1086 2818.47 1084.36L2761.49 1027.21C2759.85 1025.56 2760.62 1022.76 2762.87 1022.18L2839.71 1002.56Z" fill="#EAEFF1" fill-opacity="0.25"/>
<path d="M2842.87 1006.09L2823.02 1082.87C2822.53 1084.74 2820.19 1085.38 2818.82 1084.01L2761.84 1026.85C2760.47 1025.48 2761.12 1023.14 2762.99 1022.67L2839.83 1003.04C2841.67 1002.57 2843.34 1004.25 2842.87 1006.09Z" stroke="#D2876F" stroke-opacity="0.5"/>
<path d="M700.752 1040.55C702.963 1039.99 704.97 1042 704.399 1044.21L684.546 1120.99C683.964 1123.24 681.157 1124 679.517 1122.36L622.532 1065.2C620.892 1063.56 621.664 1060.75 623.914 1060.18L700.752 1040.55Z" fill="#EAEFF1" fill-opacity="0.25"/>
<path d="M703.915 1044.09L684.062 1120.86C683.577 1122.74 681.238 1123.37 679.871 1122L622.886 1064.85C621.52 1063.48 622.162 1061.14 624.038 1060.66L700.876 1041.04C702.718 1040.57 704.391 1042.24 703.915 1044.09Z" stroke="#D2876F" stroke-opacity="0.5"/>
<path d="M1810.93 1686.44C1808.76 1687.15 1806.62 1685.27 1807.05 1683.03L1821.91 1605.13C1822.35 1602.85 1825.1 1601.91 1826.84 1603.44L1887.39 1656.8C1889.14 1658.34 1888.55 1661.18 1886.34 1661.9L1810.93 1686.44Z" fill="#EAEFF1" fill-opacity="0.25"/>
<path d="M1807.54 1683.12L1822.4 1605.22C1822.76 1603.32 1825.06 1602.54 1826.51 1603.82L1887.06 1657.17C1888.51 1658.45 1888.02 1660.83 1886.18 1661.43L1810.77 1685.97C1808.96 1686.56 1807.19 1684.99 1807.54 1683.12Z" stroke="#D2876F" stroke-opacity="0.5"/>
<path d="M897.965 2342.44C895.795 2343.14 893.662 2341.26 894.09 2339.02L908.948 2261.12C909.383 2258.84 912.135 2257.9 913.878 2259.43L974.431 2312.79C976.174 2314.33 975.585 2317.18 973.376 2317.9L897.965 2342.44Z" fill="#EAEFF1" fill-opacity="0.25"/>
<path d="M894.581 2339.12L909.439 2261.22C909.802 2259.31 912.095 2258.53 913.548 2259.81L974.1 2313.17C975.553 2314.45 975.062 2316.82 973.221 2317.42L897.81 2341.96C896.002 2342.55 894.224 2340.98 894.581 2339.12Z" stroke="#D2876F" stroke-opacity="0.5"/>
</g>
</g>
<defs>
<filter id="filter0_bd_909_345" x="-32.9844" y="-34.5371" width="4834.56" height="3095.31" filterUnits="userSpaceOnUse" color-interpolation-filters="sRGB">
<feFlood flood-opacity="0" result="BackgroundImageFix"/>
<feGaussianBlur in="BackgroundImageFix" stdDeviation="30"/>
<feComposite in2="SourceAlpha" operator="in" result="effect1_backgroundBlur_909_345"/>
<feColorMatrix in="SourceAlpha" type="matrix" values="0 0 0 0 0 0 0 0 0 0 0 0 0 0 0 0 0 0 127 0" result="hardAlpha"/>
<feOffset/>
<feGaussianBlur stdDeviation="10"/>
<feComposite in2="hardAlpha" operator="out"/>
<feColorMatrix type="matrix" values="0 0 0 0 0.415686 0 0 0 0 0.415686 0 0 0 0 0.415686 0 0 0 0.25 0"/>
<feBlend mode="normal" in2="effect1_backgroundBlur_909_345" result="effect2_dropShadow_909_345"/>
<feBlend mode="normal" in="SourceGraphic" in2="effect2_dropShadow_909_345" result="shape"/>
</filter>
<clipPath id="clip0_909_345">
<rect width="4770" height="3183" fill="white"/>
</clipPath>
</defs>
</svg>
