<svg width="180" height="40" viewBox="0 0 180 40" fill="none" xmlns="http://www.w3.org/2000/svg">
<path d="M85.6071 28.789C82.954 31.0099 79.1174 32.2591 74.0971 32.5365V35.72H66.3998V32.5336C61.3782 32.1759 57.5415 30.907 54.8897 28.7269C52.238 26.5467 50.9121 23.5674 50.9121 19.789C50.9121 16.0099 52.231 13.0237 54.8687 10.8304C57.5065 8.6371 61.3492 7.36096 66.3968 7.00199V4.02368H74.0941V7.00199C79.1157 7.33072 82.9524 8.59272 85.6041 10.788C88.2559 12.9833 89.5818 15.9833 89.5818 19.788C89.5838 23.5691 88.2589 26.5694 85.6071 28.789ZM60.9077 24.1341C62.1272 25.1552 63.9569 25.8173 66.3968 26.1203V13.4122C63.8436 13.6884 61.9856 14.337 60.8227 15.358C59.6598 16.379 59.0786 17.856 59.0793 19.789C59.0793 21.666 59.6887 23.1144 60.9077 24.1341ZM79.6502 24.1756C80.8264 23.1276 81.4149 21.6516 81.4156 19.7476C81.4162 17.8435 80.8134 16.3817 79.6072 15.362C78.4016 14.3409 76.5649 13.691 74.0971 13.4122V26.1618C76.6222 25.8856 78.4733 25.2236 79.6502 24.1756Z" fill="#0092DD" fill-opacity="0.25"/>
<path d="M115.752 11.8855H102.264V34.3539H93.9668V5.3894H115.794L115.752 11.8855Z" fill="#0092DD" fill-opacity="0.25"/>
<path d="M123.134 32.9892C120.625 31.6927 118.653 29.8995 117.221 27.6095C115.788 25.3196 115.072 22.7403 115.072 19.8718C115.072 17.0033 115.788 14.4241 117.221 12.1342C118.653 9.84421 120.624 8.05098 123.134 6.75447C125.646 5.45861 128.475 4.81035 131.624 4.80969C134.772 4.80904 137.601 5.45729 140.112 6.75447C142.622 8.05164 144.593 9.84487 146.026 12.1342C147.458 14.4234 148.174 17.0027 148.175 19.8718C148.175 22.7417 147.458 25.3209 146.026 27.6095C144.593 29.8981 142.621 31.6914 140.112 32.9892C137.602 34.2864 134.772 34.9346 131.624 34.934C128.475 34.9333 125.645 34.2851 123.134 32.9892ZM135.708 27.1135C136.928 26.4242 137.929 25.4143 138.601 24.1963C139.31 22.9412 139.664 21.4997 139.665 19.8718C139.665 18.244 139.311 16.8025 138.601 15.5474C137.929 14.3297 136.927 13.3199 135.708 12.6302C134.457 11.9515 133.052 11.5957 131.624 11.5957C130.195 11.5957 128.79 11.9515 127.539 12.6302C126.319 13.3197 125.317 14.3296 124.645 15.5474C123.936 16.8038 123.581 18.2453 123.581 19.8718C123.581 21.4984 123.936 22.9399 124.645 24.1963C125.317 25.4146 126.319 26.4246 127.539 27.1135C128.79 27.7922 130.195 28.148 131.624 28.148C133.052 28.148 134.457 27.7922 135.708 27.1135Z" fill="#0092DD" fill-opacity="0.25"/>
<path d="M158.789 33.0099C156.306 31.7265 154.356 29.9402 152.939 27.6509C151.521 25.3616 150.812 22.7686 150.811 19.8718C150.811 16.9751 151.52 14.382 152.939 12.0927C154.358 9.80345 156.308 8.01712 158.789 6.73376C161.271 5.45105 164.072 4.80969 167.192 4.80969C169.915 4.80969 172.369 5.27879 174.553 6.21699C176.677 7.11016 178.547 8.50239 179.999 10.2722L174.638 14.9902C172.709 12.7285 170.369 11.5973 167.618 11.5967C166 11.5967 164.561 11.9415 163.299 12.6312C162.055 13.3031 161.035 14.3164 160.363 15.5484C159.667 16.8048 159.32 18.2463 159.321 19.8728C159.321 21.4994 159.669 22.9409 160.363 24.1973C161.035 25.4297 162.055 26.4431 163.299 27.1144C164.561 27.8041 166 28.149 167.618 28.149C170.369 28.149 172.709 27.0178 174.638 24.7555L179.999 29.4724C178.548 31.2439 176.678 32.6373 174.553 33.5306C172.368 34.4688 169.914 34.9379 167.192 34.9379C164.071 34.9353 161.27 34.2926 158.789 33.0099Z" fill="#0092DD" fill-opacity="0.25"/>
<path d="M19.7212 40.0001L39.4414 29.5868V20.7584L19.7212 31.1707L0 20.7584V29.5868L19.7212 40.0001Z" fill="#E30518" fill-opacity="0.25"/>
<path d="M19.7212 29.6203L39.4414 19.2081V10.3787L19.7212 20.7919L0 10.3787V19.2081L19.7212 29.6203Z" fill="#3359A5" fill-opacity="0.25"/>
<path d="M19.7212 19.2416L39.4414 8.8294V0L19.7212 10.4132L0 0V8.8294L19.7212 19.2416Z" fill="#0092DD" fill-opacity="0.25"/>
</svg>
