<svg width="84" height="112" viewBox="0 0 84 112" fill="none" xmlns="http://www.w3.org/2000/svg">
<path fill-rule="evenodd" clip-rule="evenodd" d="M35.9266 110.469C34.4851 109.462 32.6329 109.856 26.5355 104.814C24.46 103.098 21.8491 99.4819 20.5002 96.062C17.164 87.6039 20.5757 78.5751 24.9793 73.5368C25.5528 76.3997 25.7385 77.7165 27.079 79.9228C28.0407 81.5056 29.7655 83.5184 31.0953 84.3195C30.8131 83.0365 29.8248 81.1286 29.3967 79.5585C27.7638 73.5688 27.7638 68.3712 29.4322 62.4763C31.2073 56.2046 36.0506 49.5497 40.0468 47.0779C39.4781 53.3547 40.0782 56.3485 42.5267 61.4369C46.1089 68.8813 52.3845 75.4289 55.153 82.7259C57.6046 89.188 57.2115 91.3002 56.0755 96.9909C57.9409 95.8165 60.0722 91.9986 60.8716 88.9157C61.3122 87.2161 61.6713 85.3527 61.7999 83.5135C61.9488 81.3845 61.656 79.1766 61.7996 77.2247C63.7089 79.6234 65.014 84.714 64.918 88.5056C64.8122 92.6836 63.4361 96.6886 61.6121 99.6551C59.6984 102.767 57.5006 105.205 54.7421 107.141C49.3626 110.918 46.638 110.3 44.4715 111.338C47.1253 111.338 53.9614 111.145 56.6131 110.315C59.991 109.258 65.0884 106.472 67.8909 104.414C73.6252 100.201 78.1188 94.4159 80.6052 86.9014C82.997 79.6723 83.3188 75.09 83.9372 67.6179C84.1548 64.9891 83.738 62.1856 83.7254 60.2416C83.6859 54.1404 81.5494 47.4142 78.6887 42.6626C78.0111 41.5371 76.3921 38.8915 75.4678 38.2726C75.5159 40.4315 76.3414 41.4894 75.7244 45.7053C74.9712 50.8514 72.8979 56.4267 70.2068 60.8461C69.922 61.3139 69.7837 61.5876 69.5244 62.1208L68.7266 63.4977C68.7266 59.4762 66.8737 54.3339 65.2445 50.6704C61.8263 42.9843 55.3471 34.6996 51.7958 25.8466C50.6025 22.8718 50.0335 20.779 49.4934 17.0586C49.0444 13.9653 49.5487 9.46672 50.263 7.19639C50.596 6.13783 51.2776 4.29401 51.8529 3.3498L54.1569 0L46.3313 3.26469C40.3165 5.93723 31.1849 12.2835 27.0388 17.2433C23.3952 21.6021 20.5494 25.4243 18.6821 31.0672C16.6147 37.3154 15.9203 41.2009 16.5686 47.809C16.6374 48.5105 16.9097 49.4876 16.9717 50.2327C16.2958 49.7802 15.2245 48.0936 14.7269 47.2585C12.3498 43.2688 11.5353 39.5929 11.5353 34.3583C9.41846 36.7936 6.89491 41.0292 5.51887 43.7815C-0.629153 56.0789 -1.92897 69.0157 3.08527 81.5158C4.54487 85.1544 6.5839 88.3117 8.70656 91.3339C9.7429 92.8095 10.8558 94.2081 12.0202 95.6313C14.4476 98.5983 16.4775 101.318 19.5817 103.509C23.0891 105.985 25.8089 107.357 29.7063 108.824C30.9751 109.302 34.5143 110.439 35.9266 110.469Z" fill="#F3705A" fill-opacity="0.25"/>
<path fill-rule="evenodd" clip-rule="evenodd" d="M35.9262 110.469C37.1275 110.773 38.6125 111.121 39.8587 111.284C40.0349 111.307 40.2242 111.325 40.423 111.339H44.4711C46.6377 110.301 49.3623 110.919 54.7418 107.142C57.5003 105.205 59.6981 102.767 61.6118 99.6553C63.4358 96.6889 64.8119 92.6838 64.9176 88.5058C65.0137 84.7142 63.7086 79.6236 61.7993 77.2249C61.6556 79.1768 61.9485 81.3847 61.7995 83.5137C61.6709 85.3529 61.3119 87.2163 60.8712 88.9159C60.0718 91.9988 57.9405 95.8167 56.0752 96.9911C57.2112 91.3004 57.6043 89.1882 55.1526 82.7261C52.3842 75.4291 46.1086 68.8815 42.5264 61.4371C40.0779 56.3487 39.4778 53.3549 40.0465 47.0781C36.0503 49.5499 31.207 56.2048 29.4319 62.4765C27.7635 68.3714 27.7635 73.569 29.3964 79.5587C29.8244 81.1288 30.8128 83.0367 31.0949 84.3197C29.7652 83.5186 28.0403 81.5058 27.0787 79.9231C25.7382 77.7167 25.5525 76.3999 24.9789 73.537C20.5754 78.5753 17.1637 87.6041 20.4998 96.0622C21.8487 99.4821 24.4596 103.098 26.5351 104.814C32.6325 109.856 34.4848 109.462 35.9262 110.469Z" fill="#FFD05C" fill-opacity="0.25"/>
</svg>
