<svg width="14" height="16" viewBox="0 0 14 16" fill="none" xmlns="http://www.w3.org/2000/svg">
<path fill-rule="evenodd" clip-rule="evenodd" d="M0 15.2812V15.5937C0 15.7853 0.213668 16 0.404439 16H13.5955C13.7863 16 14 15.7853 14 15.5937C14 13.8406 13.3779 12.3853 12.2352 11.1788L11.4433 10.5056C9.46195 9.15985 8.19592 9.37492 5.84889 9.37492C4.73483 9.37492 3.85176 9.75062 3.02833 10.198C2.62865 10.4152 2.3074 10.6913 1.98371 10.9925C1.90285 11.0677 1.85701 11.0804 1.7801 11.163C1.29434 11.6849 0.902581 12.2537 0.580498 12.8955C0.299798 13.4549 0 14.4561 0 15.2812Z" fill="#6A6A6A" fill-opacity="0.75"/>
<path fill-rule="evenodd" clip-rule="evenodd" d="M2.80078 4.00003C2.80078 4.91818 2.91651 5.60273 3.37342 6.36235C3.62764 6.78499 3.68793 6.79165 3.90762 7.07577C4.11976 7.35013 4.56861 7.68141 4.86676 7.86236C6.30321 8.73411 8.0394 8.59985 9.43397 7.66285C9.53515 7.59487 9.62856 7.52859 9.71524 7.4454C9.81389 7.35072 9.88223 7.30995 9.98021 7.21153C10.0782 7.11311 10.1188 7.04448 10.213 6.94539C10.7417 6.38961 11.2008 5.21319 11.2008 4.43753C11.2008 3.28094 11.0236 2.66686 10.4295 1.77471C10.3618 1.67308 10.2959 1.57925 10.213 1.49217C9.82793 1.08734 9.66397 0.889441 9.13447 0.575545C8.55441 0.231692 7.8794 0.0349417 7.19727 0H6.75902C6.21583 0.0279368 5.68006 0.160746 5.19621 0.406129C5.0889 0.460549 4.97585 0.508993 4.86676 0.575203C4.61506 0.727951 4.22132 1.01999 4.021 1.22569C3.66367 1.5926 3.43439 1.95 3.2051 2.40614C3.01749 2.77937 2.80078 3.44192 2.80078 4.00003Z" fill="#6A6A6A" fill-opacity="0.75"/>
</svg>
