<svg width="14" height="30" viewBox="0 0 14 30" fill="none" xmlns="http://www.w3.org/2000/svg">
<path fill-rule="evenodd" clip-rule="evenodd" d="M4.3065 9.60937C4.3065 8.31498 4.51671 6.72509 4.9931 5.62326C6.34347 2.49987 8.18195 2.57812 10.96 2.57812V16.2891C8.801 16.2891 6.91732 16.4289 5.49879 14.2508C5.05384 13.5676 4.86598 13.1149 4.6171 12.2218C4.4213 11.5192 4.3065 10.4805 4.3065 9.60937ZM9.32213 0H13.5411C13.8059 0 14 0.129748 14 0.410151V29.6484C14 29.8067 13.9726 29.81 13.9426 29.9414C13.8245 29.9695 13.6643 29.9881 13.4796 30H11.3615C11.0938 30 10.96 29.8634 10.96 29.5899V18.8672C8.73207 18.8672 9.15677 18.6841 8.74219 19.5313L7.67151 21.6602C7.1866 22.6508 6.72434 23.5367 6.23755 24.5313L4.07706 28.8281C3.77388 29.4475 3.63584 30 3.15935 30H0.859045C-0.478768 29.9538 -0.0399966 29.6582 0.731038 28.1053L1.48488 26.7074C1.57216 26.5609 1.6035 26.4882 1.6871 26.3281L3.38909 23.2035C3.51961 22.9453 3.63244 22.7597 3.77043 22.4797L6.02724 18.2812C5.45656 18.1454 4.39553 17.3949 3.97948 17.0333C2.01811 15.3285 1.03711 12.8245 1.03711 10.1367C1.03711 7.07016 1.81347 4.57961 3.17247 2.88451C4.94398 0.674879 6.94388 0.118435 9.32213 0Z" fill="#ED1F24"/>
</svg>
