<svg width="44" height="45" viewBox="0 0 44 45" fill="none" xmlns="http://www.w3.org/2000/svg">
<path d="M20.116 25.384V24.52C20.116 23.72 20.236 23.048 20.476 22.504C20.732 21.96 21.172 21.392 21.796 20.8C22.34 20.272 22.724 19.816 22.948 19.432C23.172 19.048 23.284 18.584 23.284 18.04C23.284 16.984 22.764 16.456 21.724 16.456C21.244 16.456 20.756 16.552 20.26 16.744C19.78 16.936 19.268 17.208 18.724 17.56L17.572 15.064C18.276 14.6 18.988 14.248 19.708 14.008C20.444 13.752 21.204 13.624 21.988 13.624C23.444 13.624 24.556 14 25.324 14.752C26.108 15.504 26.5 16.512 26.5 17.776C26.5 18.464 26.412 19.056 26.236 19.552C26.076 20.048 25.828 20.52 25.492 20.968C25.172 21.4 24.764 21.848 24.268 22.312C23.884 22.68 23.596 22.992 23.404 23.248C23.212 23.504 23.084 23.752 23.02 23.992C22.956 24.216 22.924 24.488 22.924 24.808V25.384H20.116ZM19.636 29.296C19.636 28.64 19.804 28.152 20.14 27.832C20.492 27.496 20.98 27.328 21.604 27.328C22.18 27.328 22.636 27.488 22.972 27.808C23.308 28.128 23.476 28.624 23.476 29.296C23.476 29.952 23.3 30.448 22.948 30.784C22.612 31.12 22.164 31.288 21.604 31.288C21.012 31.288 20.532 31.12 20.164 30.784C19.812 30.448 19.636 29.952 19.636 29.296Z" fill="#98EF09"/>
<rect x="1" y="1" width="42" height="43" rx="21" stroke="#98EF09" stroke-width="2"/>
</svg>
