<svg width="1920" height="1080" viewBox="0 0 1920 1080" fill="none" xmlns="http://www.w3.org/2000/svg">
<g clip-path="url(#clip0_502_29)">
<rect width="1920" height="1080" fill="#FDFEFF"/>
<g opacity="0.7">
<path d="M1829.67 -25.9143C1791.72 -5.1471 1750.22 11.1764 1709.86 26.218C1558.16 82.7639 1397.64 111.775 1240.29 143.473C1170.1 157.613 1100.18 173.313 1030.02 187.677C960.536 201.905 890.582 212.889 821.085 226.954C716.523 248.116 618.109 294.617 527.347 351.094C442.482 403.903 373.561 476.989 299.777 542.975C264.863 574.198 231.057 606.115 200.433 641.339C172.452 673.524 147.46 708.018 117.678 738.771C76.132 781.67 24.54 814.289 -28.0055 842.595C-43.6802 851.039 -59.5696 857.981 -76.5707 863.127C-82.202 864.832 -87.666 866.176 -92.8619 869.02" stroke="#C5E2F1" stroke-width="50" stroke-linecap="round"/>
<path d="M1952.17 636.829C1914.9 605.105 1873.57 589.887 1824.45 586.889C1775.74 583.916 1726.68 590.393 1679.05 600.147C1602.18 615.889 1527.16 641.193 1453.73 668.501C1390.34 692.078 1327.59 718.135 1268.92 752.029C1198.49 792.719 1137.36 845.211 1086.55 908.773C1019.36 992.826 966.96 1096.66 967.738 1206.42C968.322 1288.73 1000.51 1381.82 1060.25 1440.07C1095.09 1474.03 1139.56 1493.25 1186.5 1503.85C1266.63 1521.96 1351.77 1522.32 1433.48 1521.01C1512.52 1519.75 1591.46 1514.28 1670.21 1507.61C1759.5 1500.04 1848.52 1490.8 1936.7 1474.61C1986.72 1465.43 2036.86 1455.33 2086.08 1442.5C2100.7 1438.68 2114.23 1435.05 2128.14 1429.38C2138.63 1425.11 2140.69 1421.32 2148.4 1415.1" stroke="#C5E2F1" stroke-width="50" stroke-linecap="round"/>
<path d="M-69.731 229.797C-56.4729 238.975 -31.7699 238.883 -16.7711 239.593C73.5926 243.874 170.359 229.346 252.742 191.642C334.129 154.394 405.48 98.3611 470.18 37.2556C486.153 22.1697 501.584 5.75792 519.677 -6.8653C524.449 -10.194 529.512 -12.7962 533.525 -16.8091" stroke="#F0CEC3" stroke-width="50" stroke-linecap="round"/>
<path d="M-38 1315.14C-1.40883 1345.55 45.3512 1361.58 91.5566 1370.34C167.462 1384.73 246.314 1384.41 323.144 1380.35C456.446 1373.3 588.998 1352.89 719.339 1324.5C983.888 1266.88 1241.09 1170.78 1475.29 1034.25C1592.9 965.688 1703.03 884.609 1805.12 794.642C1842.05 762.097 1885.82 719.901 1919.77 683.591C1983.67 615.246 1943.15 654.222 2003.12 586.237" stroke="#F0CEC3" stroke-width="50" stroke-linecap="round"/>
<path d="M280 415C280 470.228 244.5 502.5 172 532C105.5 559.059 79.9997 470.228 79.9997 415C79.9997 332.5 127 306.909 180 315C245.5 325 280 359.772 280 415Z" fill="#0092DD"/>
<path d="M1718.5 1021C1715 1079 1628.5 1089 1570 1094.5C1477.63 1103.18 1470 1045.23 1470 990C1470 934.772 1539.5 885.5 1613.5 855C1684 838.5 1715 920 1718.5 1021Z" fill="#D2876F"/>
<path d="M1330 866C1330 890.853 1301.27 897.957 1275 900C1230 903.5 1230 879.853 1230 855C1230 830.147 1238.5 815 1275 810C1337 803 1330 841.147 1330 866Z" fill="#D2876F"/>
<path d="M796.5 932.5C796.5 944.5 797.24 950 777.5 950C767.835 950 761 944 759 932.5C758.566 930 751 903 777.5 909C794.568 912.864 794.5 922 796.5 932.5Z" fill="#D2876F"/>
<path d="M1436 397C1436 406.665 1433 418 1417 415C1404.86 412.724 1401 406.665 1401 397C1401 387.335 1405 376 1418.5 368.5C1434.7 359.5 1436 387.335 1436 397Z" fill="#D2876F"/>
<path d="M426 670C426 697.614 403.614 720 376 720C348.386 720 326 697.614 326 670C326 642.386 330 612.5 376 608C403.614 608 426 642.386 426 670Z" fill="#0092DD"/>
<path d="M1914.5 129.5C1914.5 204.887 1818.89 290 1743.5 290C1668.11 290 1607 275 1607 153.5C1607 78.1131 1668.11 17 1743.5 17C1818.89 17 1914.5 54.1131 1914.5 129.5Z" fill="#0092DD"/>
<path d="M113.5 1248.5C117 1261.5 110 1295.5 92.9995 1292C75.9995 1288.5 61.4995 1277.5 61.4995 1267C61.4995 1248.5 64.4995 1216.5 79.9995 1214.5C100.5 1214.5 109.21 1232.57 113.5 1248.5Z" fill="#0092DD"/>
</g>
<g filter="url(#filter0_bd_502_29)">
<path d="M306.094 78.0966C309.047 75.6998 313.489 77.3474 314.165 81.0904L390.909 506.08C391.597 509.891 387.88 513.003 384.25 511.657L-27.8224 358.809C-31.4525 357.462 -32.2406 352.678 -29.2343 350.238L306.094 78.0966Z" fill="#EAEFF1" fill-opacity="0.25"/>
<path d="M313.673 81.1793L390.417 506.169C391.036 509.598 387.691 512.4 384.424 511.188L-27.6485 358.34C-30.9156 357.128 -31.6249 352.822 -28.9192 350.627L306.409 78.4849C309.067 76.3277 313.065 77.8105 313.673 81.1793Z" stroke="#0092DD" stroke-opacity="0.5"/>
<path d="M-164.13 858.182C-168.036 851.654 -163.512 843.328 -155.91 843.054L494.263 819.585C502.002 819.305 507.108 827.549 503.411 834.353L187.277 1416.12C183.58 1422.92 173.885 1423.12 169.909 1416.48L-164.13 858.182Z" fill="#EAEFF1" fill-opacity="0.25"/>
<path d="M-155.892 843.554L494.281 820.084C501.633 819.819 506.484 827.65 502.971 834.114L186.838 1415.88C183.325 1422.34 174.115 1422.53 170.338 1416.22L-163.701 857.925C-167.412 851.724 -163.114 843.814 -155.892 843.554Z" stroke="#0092DD" stroke-opacity="0.5"/>
<path d="M1638.85 410.786C1639.42 407.025 1643.81 405.246 1646.83 407.554L2251.01 868.773C2254.09 871.123 2253.44 875.928 2249.85 877.382L1532.91 1167.85C1529.32 1169.31 1525.51 1166.31 1526.08 1162.48L1638.85 410.786Z" fill="#EAEFF1" fill-opacity="0.25"/>
<path d="M1646.53 407.951L2250.71 869.171C2253.48 871.285 2252.89 875.61 2249.66 876.918L1532.72 1167.39C1529.49 1168.7 1526.06 1166 1526.58 1162.55L1639.35 410.861C1639.85 407.475 1643.81 405.874 1646.53 407.951Z" stroke="#0092DD" stroke-opacity="0.5"/>
<path d="M1305.27 147.946C1301.74 146.545 1301 141.866 1303.93 139.443L1680.98 -172.061C1683.97 -174.527 1688.5 -172.811 1689.11 -168.987L1766.75 322.659C1767.36 326.484 1763.57 329.514 1759.97 328.088L1305.27 147.946Z" fill="#EAEFF1" fill-opacity="0.25"/>
<path d="M1304.25 139.829L1681.3 -171.676C1683.99 -173.895 1688.07 -172.351 1688.61 -168.909L1766.26 322.737C1766.8 326.179 1763.4 328.906 1760.16 327.623L1305.46 147.482C1302.27 146.221 1301.61 142.009 1304.25 139.829Z" stroke="#0092DD" stroke-opacity="0.5"/>
<path d="M221.625 511.824C223.836 511.259 225.843 513.272 225.272 515.481L213.678 560.318C213.097 562.567 210.29 563.33 208.649 561.685L175.372 528.309C173.732 526.664 174.503 523.859 176.754 523.285L221.625 511.824Z" fill="#EAEFF1" fill-opacity="0.25"/>
<path d="M224.788 515.356L213.194 560.193C212.71 562.067 210.37 562.703 209.004 561.332L175.726 527.956C174.359 526.585 175.002 524.248 176.878 523.769L221.749 512.308C223.591 511.838 225.264 513.515 224.788 515.356Z" stroke="#0092DD" stroke-opacity="0.5"/>
<path d="M1357.13 838.553C1359.34 837.988 1361.35 840.001 1360.78 842.211L1340.92 918.99C1340.34 921.239 1337.53 922.002 1335.89 920.357L1278.91 863.204C1277.27 861.559 1278.04 858.754 1280.29 858.179L1357.13 838.553Z" fill="#EAEFF1" fill-opacity="0.25"/>
<path d="M1360.29 842.086L1340.44 918.865C1339.95 920.739 1337.61 921.375 1336.25 920.004L1279.26 862.851C1277.9 861.48 1278.54 859.142 1280.42 858.663L1357.25 839.038C1359.1 838.567 1360.77 840.244 1360.29 842.086Z" stroke="#0092DD" stroke-opacity="0.5"/>
</g>
</g>
<defs>
<filter id="filter0_bd_502_29" x="-225.562" y="-233.212" width="2538.54" height="1963.36" filterUnits="userSpaceOnUse" color-interpolation-filters="sRGB">
<feFlood flood-opacity="0" result="BackgroundImageFix"/>
<feGaussianBlur in="BackgroundImageFix" stdDeviation="30"/>
<feComposite in2="SourceAlpha" operator="in" result="effect1_backgroundBlur_502_29"/>
<feColorMatrix in="SourceAlpha" type="matrix" values="0 0 0 0 0 0 0 0 0 0 0 0 0 0 0 0 0 0 127 0" result="hardAlpha"/>
<feOffset/>
<feGaussianBlur stdDeviation="10"/>
<feComposite in2="hardAlpha" operator="out"/>
<feColorMatrix type="matrix" values="0 0 0 0 0.415686 0 0 0 0 0.415686 0 0 0 0 0.415686 0 0 0 0.25 0"/>
<feBlend mode="normal" in2="effect1_backgroundBlur_502_29" result="effect2_dropShadow_502_29"/>
<feBlend mode="normal" in="SourceGraphic" in2="effect2_dropShadow_502_29" result="shape"/>
</filter>
<clipPath id="clip0_502_29">
<rect width="1920" height="1080" fill="white"/>
</clipPath>
</defs>
</svg>
