<svg width="66" height="39" viewBox="0 0 66 39" fill="none" xmlns="http://www.w3.org/2000/svg">
<path fill-rule="evenodd" clip-rule="evenodd" d="M25 9.86133V27.416C25 28.3205 26.131 28.3272 26.9585 28.4927C27.7909 28.6591 28.6896 28.8389 29.522 29.0054C30.3805 29.1771 31.2002 29.341 32.0513 29.5112C32.4696 29.5949 32.8806 29.6771 33.3159 29.7642C33.6561 29.8322 34.3512 30 34.6797 30C35.1042 30 35.5 29.6042 35.5 29.1797V28.2773H39.6836C40.0026 28.2773 40.2352 28.2115 40.4182 28.0686C40.5694 27.9505 40.75 27.7206 40.75 27.457V22.043C40.75 21.0363 38.9863 20.901 38.9863 22.166V26.4727H35.5V12.4453C35.5 11.6565 34.5354 11.5553 33.9772 11.3841L32.2441 10.8614C32.1794 10.8426 32.1764 10.8435 32.1211 10.8203L38.9863 10.7637V15.1523C38.9863 15.5902 39.3861 16.0137 39.8887 16.0137C40.3194 16.0137 40.75 15.637 40.75 15.1934V9.82031C40.75 9.39576 40.3542 9 39.9297 9H25.8613C25.4066 9 25 9.39856 25 9.86133Z" fill="#D2876F"/>
<path fill-rule="evenodd" clip-rule="evenodd" d="M41.6118 15.9727C41.6118 16.7046 42.5603 17.1315 42.9653 17.7363L38.0477 17.7406C36.9848 17.853 37.0097 19.3562 37.9699 19.4915C38.2535 19.5315 42.4597 19.5 42.9653 19.5C42.6261 20.0065 41.6118 20.5451 41.6118 21.2637C41.6118 21.7292 41.9765 22.125 42.5551 22.125C43.0027 22.125 43.3233 21.6645 43.5703 21.4175L45.2929 19.6948C45.681 19.3068 46.0005 19.1583 46.0005 18.5566C46.0005 18.1281 45.5322 17.7808 45.2929 17.5415L43.5703 15.8189C43.2686 15.5172 42.9977 15.1113 42.4731 15.1113C42.0316 15.1113 41.6118 15.5311 41.6118 15.9727Z" fill="#D2876F"/>
<rect x="1" y="1" width="64" height="37" rx="9" stroke="#D2876F" stroke-width="2"/>
</svg>
