<svg width="32" height="32" viewBox="0 0 32 32" fill="none" xmlns="http://www.w3.org/2000/svg">
<path fill-rule="evenodd" clip-rule="evenodd" d="M0 15.1252V15.3137C0.00213212 17.2125 0.0410909 17.6491 0.463477 19.599C0.581098 20.1425 0.772796 20.6606 0.929054 21.1332C1.10305 21.6594 1.31103 22.0662 1.50876 22.5538C1.88789 23.4889 3.14155 25.4512 3.82825 26.1719C4.01533 26.3682 4.09257 26.5025 4.29667 26.7034C4.73498 27.1353 4.52733 26.9982 5.01491 27.4227C5.48368 27.8305 5.6892 28.0899 6.33869 28.5987L7.51226 29.425C8.38249 30.0097 9.84202 30.7286 10.8196 31.0553C11.3338 31.2268 11.7884 31.3835 12.3489 31.5259C13.4243 31.7991 14.5235 31.9557 15.6258 32H16.9496C19.6606 31.8898 22.3355 31.1078 24.6521 29.7145C25.3622 29.2876 26.0387 28.8514 26.6389 28.3266C26.8026 28.1834 26.9277 28.1002 27.0794 27.9546L27.9535 27.141C29.1051 25.9958 30.0054 24.6288 30.7704 23.2079C31.2665 22.287 31.7548 21.2392 32 20.1875C31.5801 20.2853 29.993 21.3356 27.6502 21.838C19.4884 23.5874 11.399 18.0718 10.0536 9.88418C9.56349 6.90173 9.88844 4.8108 10.8515 2.10156C11.0999 1.4028 11.7398 0.311806 11.8125 0C9.59857 0.515908 6.52932 2.36694 4.92099 3.98344C4.18257 4.72542 3.59472 5.42734 2.9736 6.28591C2.70253 6.66045 2.53809 6.90919 2.30921 7.30923L1.70825 8.39596C0.741622 10.3292 0 12.8957 0 15.1252Z" fill="#D2876F"/>
</svg>
